<mxfile host="65bd71144e">
    <diagram name="overflow-2025-architecture" id="overflow-2025-architecture">
        <mxGraphModel dx="1575" dy="1403" grid="1" gridSize="10" guides="1" tooltips="1" connect="1" arrows="1" fold="1" page="1" pageScale="1" pageWidth="1169" pageHeight="827" background="#FFFFFF" math="0" shadow="0">
            <root>
                <mxCell id="0"/>
                <mxCell id="1" parent="0"/>
                <mxCell id="title" value="&lt;font style=&quot;font-size: 24px;&quot;&gt;Overflow 2025 - System Architecture&lt;/font&gt;" style="text;html=1;strokeColor=none;fillColor=none;align=center;verticalAlign=middle;whiteSpace=wrap;rounded=0;fontSize=20;fontStyle=1;fontColor=#232F3E;" parent="1" vertex="1">
                    <mxGeometry x="-10" y="-30" width="530" height="30" as="geometry"/>
                </mxCell>
                <mxCell id="claude" value="🤖&lt;br&gt;Claude Desktop&lt;br&gt;(MCP Client)" style="rounded=1;whiteSpace=wrap;html=1;fillColor=#8B5CF6;strokeColor=#7C3AED;fontColor=white;fontSize=11;fontStyle=1;" parent="1" vertex="1">
                    <mxGeometry x="130" y="314" width="120" height="60" as="geometry"/>
                </mxCell>
                <mxCell id="walrus" value="🗄️&lt;br&gt;Walrus Storage&lt;br&gt;(Decentralized)" style="rounded=1;whiteSpace=wrap;html=1;fillColor=#3B82F6;strokeColor=#2563EB;fontColor=white;fontSize=10;fontStyle=1;" parent="1" vertex="1">
                    <mxGeometry x="860" y="431.5" width="100" height="50" as="geometry"/>
                </mxCell>
                <mxCell id="x402" value="💳&lt;br&gt;x402 Payment&lt;br&gt;Protocol" style="rounded=1;whiteSpace=wrap;html=1;fillColor=#F59E0B;strokeColor=#D97706;fontColor=white;fontSize=10;fontStyle=1;" parent="1" vertex="1">
                    <mxGeometry x="860" y="252" width="100" height="50" as="geometry"/>
                </mxCell>
                <mxCell id="conn-9" value="" style="endArrow=classic;html=1;rounded=0;strokeColor=#3B82F6;strokeWidth=2;entryX=0;entryY=0.5;entryDx=0;entryDy=0;exitX=1;exitY=0.5;exitDx=0;exitDy=0;exitPerimeter=0;edgeStyle=orthogonalEdgeStyle;" parent="1" source="lambda" target="walrus" edge="1">
                    <mxGeometry width="50" height="50" relative="1" as="geometry">
                        <mxPoint x="840" y="302" as="sourcePoint"/>
                        <mxPoint x="860" y="397" as="targetPoint"/>
                        <Array as="points">
                            <mxPoint x="460" y="344"/>
                            <mxPoint x="460" y="457"/>
                        </Array>
                    </mxGeometry>
                </mxCell>
                <mxCell id="conn-10" value="" style="endArrow=classic;html=1;rounded=0;strokeColor=#F59E0B;strokeWidth=2;entryX=0;entryY=0.5;entryDx=0;entryDy=0;exitX=1;exitY=0.5;exitDx=0;exitDy=0;exitPerimeter=0;" parent="1" source="ecs" target="x402" edge="1">
                    <mxGeometry width="50" height="50" relative="1" as="geometry">
                        <mxPoint x="830" y="320" as="sourcePoint"/>
                        <mxPoint x="850" y="405" as="targetPoint"/>
                    </mxGeometry>
                </mxCell>
                <mxCell id="2" value="AWS Cloud" style="points=[[0,0],[0.25,0],[0.5,0],[0.75,0],[1,0],[1,0.25],[1,0.5],[1,0.75],[1,1],[0.75,1],[0.5,1],[0.25,1],[0,1],[0,0.75],[0,0.5],[0,0.25]];outlineConnect=0;gradientColor=none;html=1;whiteSpace=wrap;fontSize=12;fontStyle=0;container=1;pointerEvents=0;collapsible=0;recursiveResize=0;shape=mxgraph.aws4.group;grIcon=mxgraph.aws4.group_aws_cloud_alt;strokeColor=#232F3E;fillColor=none;verticalAlign=top;align=left;spacingLeft=30;fontColor=#232F3E;dashed=0;" parent="1" vertex="1">
                    <mxGeometry x="280" y="80" width="550" height="430" as="geometry"/>
                </mxCell>
                <mxCell id="alb" value="" style="sketch=0;points=[[0,0,0],[0.25,0,0],[0.5,0,0],[0.75,0,0],[1,0,0],[0,1,0],[0.25,1,0],[0.5,1,0],[0.75,1,0],[1,1,0],[0,0.25,0],[0,0.5,0],[0,0.75,0],[1,0.25,0],[1,0.5,0],[1,0.75,0]];outlineConnect=0;fontColor=#232F3E;gradientColor=#4AB29A;gradientDirection=north;fillColor=#067F68;strokeColor=#ffffff;dashed=0;verticalLabelPosition=bottom;verticalAlign=top;align=center;html=1;fontSize=12;fontStyle=0;aspect=fixed;shape=mxgraph.aws4.resourceIcon;resIcon=mxgraph.aws4.application_load_balancer;" parent="2" vertex="1">
                    <mxGeometry x="219" y="157" width="80" height="80" as="geometry"/>
                </mxCell>
                <mxCell id="alb-label" value="Application&lt;br&gt;Load Balancer" style="text;html=1;strokeColor=none;fillColor=none;align=center;verticalAlign=middle;whiteSpace=wrap;rounded=0;fontColor=#232F3E;fontSize=11;fontStyle=1;" parent="2" vertex="1">
                    <mxGeometry x="209" y="249" width="100" height="30" as="geometry"/>
                </mxCell>
                <mxCell id="ecs" value="" style="sketch=0;points=[[0,0,0],[0.25,0,0],[0.5,0,0],[0.75,0,0],[1,0,0],[0,1,0],[0.25,1,0],[0.5,1,0],[0.75,1,0],[1,1,0],[0,0.25,0],[0,0.5,0],[0,0.75,0],[1,0.25,0],[1,0.5,0],[1,0.75,0]];outlineConnect=0;fontColor=#232F3E;gradientColor=#4AB29A;gradientDirection=north;fillColor=#067F68;strokeColor=#ffffff;dashed=0;verticalLabelPosition=bottom;verticalAlign=top;align=center;html=1;fontSize=12;fontStyle=0;aspect=fixed;shape=mxgraph.aws4.resourceIcon;resIcon=mxgraph.aws4.fargate;" parent="2" vertex="1">
                    <mxGeometry x="381" y="157" width="80" height="80" as="geometry"/>
                </mxCell>
                <mxCell id="conn-4" value="" style="endArrow=classic;html=1;rounded=0;strokeColor=#232F3E;strokeWidth=2;exitX=1;exitY=0.5;exitDx=0;exitDy=0;entryX=0;entryY=0.5;entryDx=0;entryDy=0;" parent="2" source="alb" target="ecs" edge="1">
                    <mxGeometry width="50" height="50" relative="1" as="geometry">
                        <mxPoint x="360" y="300" as="sourcePoint"/>
                        <mxPoint x="470" y="300" as="targetPoint"/>
                    </mxGeometry>
                </mxCell>
                <mxCell id="ecs-label" value="x402用のAPIサーバー&lt;br&gt;(Hono と Fargate使用)" style="text;html=1;strokeColor=none;fillColor=none;align=center;verticalAlign=middle;whiteSpace=wrap;rounded=0;fontColor=#232F3E;fontSize=11;fontStyle=1;" parent="2" vertex="1">
                    <mxGeometry x="361.5" y="240" width="119" height="48" as="geometry"/>
                </mxCell>
                <mxCell id="ecr" value="" style="sketch=0;points=[[0,0,0],[0.25,0,0],[0.5,0,0],[0.75,0,0],[1,0,0],[0,1,0],[0.25,1,0],[0.5,1,0],[0.75,1,0],[1,1,0],[0,0.25,0],[0,0.5,0],[0,0.75,0],[1,0.25,0],[1,0.5,0],[1,0.75,0]];outlineConnect=0;fontColor=#232F3E;gradientColor=#F78E04;gradientDirection=north;fillColor=#D05C17;strokeColor=#ffffff;dashed=0;verticalLabelPosition=bottom;verticalAlign=top;align=center;html=1;fontSize=12;fontStyle=0;aspect=fixed;shape=mxgraph.aws4.resourceIcon;resIcon=mxgraph.aws4.ecr;" parent="2" vertex="1">
                    <mxGeometry x="381" y="27" width="80" height="80" as="geometry"/>
                </mxCell>
                <mxCell id="conn-6" value="" style="endArrow=classic;html=1;rounded=1;strokeColor=#F59E0B;strokeWidth=2;exitX=0.5;exitY=1;exitDx=0;exitDy=0;entryX=0.5;entryY=0;entryDx=0;entryDy=0;curved=1;exitPerimeter=0;entryPerimeter=0;" parent="2" source="ecr" target="ecs" edge="1">
                    <mxGeometry width="50" height="50" relative="1" as="geometry">
                        <mxPoint x="660" y="180" as="sourcePoint"/>
                        <mxPoint x="550" y="260" as="targetPoint"/>
                    </mxGeometry>
                </mxCell>
                <mxCell id="ecr-label" value="ECR" style="text;html=1;strokeColor=none;fillColor=none;align=center;verticalAlign=middle;whiteSpace=wrap;rounded=0;fontColor=#232F3E;fontSize=11;fontStyle=1;" parent="2" vertex="1">
                    <mxGeometry x="416" y="107" width="55" height="30" as="geometry"/>
                </mxCell>
                <mxCell id="lambda" value="" style="sketch=0;points=[[0,0,0],[0.25,0,0],[0.5,0,0],[0.75,0,0],[1,0,0],[0,1,0],[0.25,1,0],[0.5,1,0],[0.75,1,0],[1,1,0],[0,0.25,0],[0,0.5,0],[0,0.75,0],[1,0.25,0],[1,0.5,0],[1,0.75,0]];outlineConnect=0;fontColor=#232F3E;gradientColor=#F78E04;gradientDirection=north;fillColor=#D05C17;strokeColor=#ffffff;dashed=0;verticalLabelPosition=bottom;verticalAlign=top;align=center;html=1;fontSize=12;fontStyle=0;aspect=fixed;shape=mxgraph.aws4.resourceIcon;resIcon=mxgraph.aws4.lambda;" parent="2" vertex="1">
                    <mxGeometry x="60" y="224" width="80" height="80" as="geometry"/>
                </mxCell>
                <mxCell id="cloudwatch" value="" style="sketch=0;points=[[0,0,0],[0.25,0,0],[0.5,0,0],[0.75,0,0],[1,0,0],[0,1,0],[0.25,1,0],[0.5,1,0],[0.75,1,0],[1,1,0],[0,0.25,0],[0,0.5,0],[0,0.75,0],[1,0.25,0],[1,0.5,0],[1,0.75,0]];outlineConnect=0;fontColor=#232F3E;gradientColor=#945DF2;gradientDirection=north;fillColor=#5A30B5;strokeColor=#ffffff;dashed=0;verticalLabelPosition=bottom;verticalAlign=top;align=center;html=1;fontSize=12;fontStyle=0;aspect=fixed;shape=mxgraph.aws4.resourceIcon;resIcon=mxgraph.aws4.cloudwatch;" parent="2" vertex="1">
                    <mxGeometry x="160" y="27" width="83" height="83" as="geometry"/>
                </mxCell>
                <mxCell id="conn-8" value="" style="endArrow=classic;html=1;rounded=0;strokeColor=#945DF2;strokeWidth=1;entryX=1;entryY=0.5;entryDx=0;entryDy=0;entryPerimeter=0;exitX=0.5;exitY=0;exitDx=0;exitDy=0;exitPerimeter=0;edgeStyle=orthogonalEdgeStyle;" parent="2" source="ecs" target="cloudwatch" edge="1">
                    <mxGeometry width="50" height="50" relative="1" as="geometry">
                        <mxPoint x="-50" y="370" as="sourcePoint"/>
                        <mxPoint x="-50" y="330" as="targetPoint"/>
                        <Array as="points">
                            <mxPoint x="421" y="130"/>
                            <mxPoint x="310" y="130"/>
                            <mxPoint x="310" y="69"/>
                        </Array>
                    </mxGeometry>
                </mxCell>
                <mxCell id="cloudwatch-label" value="CloudWatch" style="text;html=1;strokeColor=none;fillColor=none;align=center;verticalAlign=middle;whiteSpace=wrap;rounded=0;fontColor=#232F3E;fontSize=10;fontStyle=1;" parent="2" vertex="1">
                    <mxGeometry x="171.5" y="117" width="60" height="20" as="geometry"/>
                </mxCell>
                <mxCell id="8" value="" style="endArrow=classic;html=1;rounded=0;strokeColor=#232F3E;strokeWidth=2;exitX=1;exitY=0.5;exitDx=0;exitDy=0;entryX=0;entryY=0.5;entryDx=0;entryDy=0;exitPerimeter=0;entryPerimeter=0;edgeStyle=orthogonalEdgeStyle;" parent="2" source="lambda" target="alb" edge="1">
                    <mxGeometry width="50" height="50" relative="1" as="geometry">
                        <mxPoint x="301" y="207" as="sourcePoint"/>
                        <mxPoint x="391" y="207" as="targetPoint"/>
                    </mxGeometry>
                </mxCell>
                <mxCell id="lambda-label" value="Lambda Function&lt;br&gt;MCP Server&lt;br&gt;(LWA を利用)" style="text;html=1;strokeColor=none;fillColor=none;align=center;verticalAlign=middle;whiteSpace=wrap;rounded=0;fontColor=#232F3E;fontSize=11;fontStyle=1;" parent="2" vertex="1">
                    <mxGeometry x="47" y="312" width="100" height="30" as="geometry"/>
                </mxCell>
                <mxCell id="9" value="" style="endArrow=classic;html=1;rounded=0;strokeColor=#945DF2;strokeWidth=1;entryX=0;entryY=0.5;entryDx=0;entryDy=0;entryPerimeter=0;exitX=0.5;exitY=0;exitDx=0;exitDy=0;exitPerimeter=0;edgeStyle=orthogonalEdgeStyle;" parent="2" source="lambda" target="cloudwatch" edge="1">
                    <mxGeometry width="50" height="50" relative="1" as="geometry">
                        <mxPoint x="-40" y="380" as="sourcePoint"/>
                        <mxPoint x="-40" y="340" as="targetPoint"/>
                    </mxGeometry>
                </mxCell>
                <mxCell id="conn-10-label" value="Payments" style="text;html=1;strokeColor=none;fillColor=none;align=center;verticalAlign=middle;whiteSpace=wrap;rounded=0;fontSize=8;fontColor=#F59E0B;fontStyle=1;" parent="2" vertex="1">
                    <mxGeometry x="490" y="170" width="50" height="20" as="geometry"/>
                </mxCell>
                <mxCell id="users" value="" style="sketch=0;outlineConnect=0;fontColor=#232F3E;gradientColor=none;fillColor=#232F3D;strokeColor=none;dashed=0;verticalLabelPosition=bottom;verticalAlign=top;align=center;html=1;fontSize=12;fontStyle=0;aspect=fixed;pointerEvents=1;shape=mxgraph.aws4.users;" parent="1" vertex="1">
                    <mxGeometry x="20" y="266" width="78" height="78" as="geometry"/>
                </mxCell>
                <mxCell id="users-label" value="Users" style="text;html=1;strokeColor=none;fillColor=none;align=center;verticalAlign=middle;whiteSpace=wrap;rounded=0;fontColor=#232F3E;fontSize=12;fontStyle=1;" parent="1" vertex="1">
                    <mxGeometry x="39" y="344" width="40" height="20" as="geometry"/>
                </mxCell>
                <mxCell id="conn-3" value="" style="endArrow=classic;html=1;rounded=0;strokeColor=#232F3E;strokeWidth=2;exitX=1;exitY=1;exitDx=0;exitDy=0;entryX=0;entryY=0.5;entryDx=0;entryDy=0;" parent="1" source="users" target="claude" edge="1">
                    <mxGeometry width="50" height="50" relative="1" as="geometry">
                        <mxPoint x="148" y="248" as="sourcePoint"/>
                        <mxPoint x="360" y="260" as="targetPoint"/>
                    </mxGeometry>
                </mxCell>
                <mxCell id="3" value="" style="endArrow=classic;html=1;rounded=0;strokeColor=#232F3E;strokeWidth=2;exitX=1;exitY=0.5;exitDx=0;exitDy=0;entryX=0;entryY=0.5;entryDx=0;entryDy=0;entryPerimeter=0;" parent="1" source="claude" target="lambda" edge="1">
                    <mxGeometry width="50" height="50" relative="1" as="geometry">
                        <mxPoint x="158" y="268" as="sourcePoint"/>
                        <mxPoint x="370" y="270" as="targetPoint"/>
                    </mxGeometry>
                </mxCell>
                <mxCell id="12" value="" style="shape=image;verticalLabelPosition=bottom;labelBackgroundColor=default;verticalAlign=top;aspect=fixed;imageAspect=0;image=data:image/jpeg,/9j/4AAQSkZJRgABAQAAAQABAAD/4gKgSUNDX1BST0ZJTEUAAQEAAAKQbGNtcwQwAABtbnRyUkdCIFhZWiAAAAAAAAAAAAAAAABhY3NwQVBQTAAAAAAAAAAAAAAAAAAAAAAAAAAAAAAAAAAA9tYAAQAAAADTLWxjbXMAAAAAAAAAAAAAAAAAAAAAAAAAAAAAAAAAAAAAAAAAAAAAAAAAAAAAAAAAAAAAAAtkZXNjAAABCAAAADhjcHJ0AAABQAAAAE53dHB0AAABkAAAABRjaGFkAAABpAAAACxyWFlaAAAB0AAAABRiWFlaAAAB5AAAABRnWFlaAAAB+AAAABRyVFJDAAACDAAAACBnVFJDAAACLAAAACBiVFJDAAACTAAAACBjaHJtAAACbAAAACRtbHVjAAAAAAAAAAEAAAAMZW5VUwAAABwAAAAcAHMAUgBHAEIAIABiAHUAaQBsAHQALQBpAG4AAG1sdWMAAAAAAAAAAQAAAAxlblVTAAAAMgAAABwATgBvACAAYwBvAHAAeQByAGkAZwBoAHQALAAgAHUAcwBlACAAZgByAGUAZQBsAHkAAAAAWFlaIAAAAAAAAPbWAAEAAAAA0y1zZjMyAAAAAAABDEoAAAXj///zKgAAB5sAAP2H///7ov///aMAAAPYAADAlFhZWiAAAAAAAABvlAAAOO4AAAOQWFlaIAAAAAAAACSdAAAPgwAAtr5YWVogAAAAAAAAYqUAALeQAAAY3nBhcmEAAAAAAAMAAAACZmYAAPKnAAANWQAAE9AAAApbcGFyYQAAAAAAAwAAAAJmZgAA8qcAAA1ZAAAT0AAACltwYXJhAAAAAAADAAAAAmZmAADypwAADVkAABPQAAAKW2Nocm0AAAAAAAMAAAAAo9cAAFR7AABMzQAAmZoAACZmAAAPXP/bAEMABQMEBAQDBQQEBAUFBQYHDAgHBwcHDwsLCQwRDxISEQ8RERMWHBcTFBoVEREYIRgaHR0fHx8TFyIkIh4kHB4fHv/bAEMBBQUFBwYHDggIDh4UERQeHh4eHh4eHh4eHh4eHh4eHh4eHh4eHh4eHh4eHh4eHh4eHh4eHh4eHh4eHh4eHh4eHv/CABEIAZABkAMBIgACEQEDEQH/xAAcAAADAQADAQEAAAAAAAAAAAAAAQIDBAYHBQj/xAAaAQEBAQEBAQEAAAAAAAAAAAAAAQIDBAUG/9oADAMBAAIQAxAAAAH05h7eIIAGJpiaAAAGAIGIAAAGAAAJgmIAYgBghpoBgAhiAGAgGIGIGgAaBiBiAaGIGAAOEUySnElCyUElBBaSC1UjQhqgAYgBggBiYmIBgIYAgaYgAYhoYmVE03CbcsunElOWSgkoJVhBQQrLIVqoVqyBqkBQNAANNDBDExNAAAAAAxMGVCorNTblTp5S6JUUySiJKCVYQWqhWiFpNkK1pE6TZCudSRqgaAGIAYmAIaAABoYUOCisVUVKqKzU2ZD4vF3PoYcCemeXlhPTOywnpOVfAmT6/K65OddrXW/ocN/TRXPUTpNROk6kTpNmatakDWgAA0AAAAAAwGVBRWaNvNKKzVU8SNeI574mbncmbnUibnUmanUibnUianWZmo0r7Hw5w7mur9i8Ho1nScaibWpnOk6maudRJlIAAAaYgYA4dFZpRWaUVmkvikzS64mbVQqWpE3OpE3OpE3GpE3G5E1OpE1G8qKjUV5zZ2zm9H7V8308ydJ8/TOdJ3M50nUzKnUQFDEDQMTHSrNdKs10VijeMRNLpmVSqFasibWkTc2ZzpG5EaRqZxpG85zee5MVHTMxUailxvJeUneN+md0+P64nSee85udyJudZga0AAaAY4qlWa7m8V0qzZytVKpaSqEibVkTpOkTpOpnGk6mUaxvOWeufTOeeme5nF59MzDjplSTuEk6h2XrGnHXoMzfxPbEaRqRNzuZqlqICgaHU3DubxXc1jVDWbKoslUVCtVCtEK1qZzpNmcazuY57RvOGe2XTOOWuXbOeV5dcTDz6ZJU7glOo0p1O19g6D374fsibnz9YjSN5ibjcTToAHU3lVTWNXU3mtjxZKRJRUK0SrVkToqznVWYztG5hnyM9zj48nDrjjYcjjejnjleHfCzI65JU7y5U6lKVVeh+ddx+d3+9Nx8r1xNTqRNxvMgaAMdzWbdTWLdTWLdDxqSgkpElBBaqFoJktVWU7Kzj58qNTh8f6HG7Y+bwuf8v3ccsFh6+NxEdc2s1qWoLKIKrsnWPt+Xp3uan8/9CIudyIudyUzUTQXU1m3U1i3U1i6vyT4P0vL70vBl2z72vBUnvZ4GV74eBKvfj8/qz9Ar8/I/QS/Pqr9Bz+fRP0Dl4Eae09R6J9T1cvuRwNOs5S47s2MiXQzZZAX9f4v2OG/Q5qfzP0omp3Imp3JTWoNMqovNuovFuovF8l6v3jo/7P4wB7+AAAAAAAAAAAAAAa5OX6O3B38/Tl3xr563rCsXV5uXQgjT7vX+1eTr3aaj819KZqdyJqdyQNQEFXFZXU1jV3FZvTvL/cPD/wBL8wA+54gAAAAAAAAAAAAAANd+NrjXJvDTlvasqxdayrN0ebzb770D1j5Pq5sVPw/dE1OpMVO4kzUQMLiouovFuorGr8T9s6L7/N5uB+y+QAAAAAAAAAAAAAAA9cdJdryvnrW8qxrWs3i6Vm4+t6r1Dt/5b6cy58feZqN5UVO4IKGAqlxpUVm3edYumOtYvg3G9J82/a/FAPdxAAAAAAAAAAAAACpa63leLrWdY1pWdZunJ4noHh69q1c/k/rKHOopc7ky1qNBTAE0F1nebdRWbpWdYr8a9m+f6uHhxyuL+0+OAbgAAAAAAAAAAAABd53nV3nWbpWfL5a+l6xwud+P+qST5+ylzuKXOspBoAxAAxDcuNKzrN0rOs3Ss6zfieQe+fC+l5fGjlcX9Z8oA3AAAAAAAAAAAAd53LdRy+Wl6wvuflPqEk/P9JJOoSTqJC1GgoABgAAmgqocaVnWLo4culZ1m8Dyr2Verh+fz0noH6n5nFA93EAAAAAAAAAArkegeDv1P1TnP8v9NyT5ewidQkmwkW4IKABghiBgCBiaCqh5aVnWbdZ1LdZ1m3hq8ujdN9sPpeb8+nuHX/q+Xy87xwPZx6sdgOuevnaPoc9dHPUOweLt5L3LvR8r1YbpfN9LknRyTqOSdQSVgg0aYIAAYgBghiAYhgiqhxdZ1m24ct1m8rcOW3AWQ4okKJRakppIaSsaS0ck2ORagmqABpoGIAYhoAABiAGgGADlxbzqLcOWyHFuCWyGUSFEookGSrKSVNKbGgpDKE0AAAANAwBNAAAAAwQDTQxANA2lFuAtwRZItEhRIUpClJY0IaCgGCYJoBoAAGIaaAAAAABoAaAAABoBoYJoaAYgYgaaGgAAaGIABoAYgBoBghoYgD//xAApEAABBAIBBAICAgMBAAAAAAABAAIDBAVAEQYSEzAUUCAhFTUQI4Ax/9oACAEBAAEFAv8AqRz2hGdqNgozyLzyrzyoWJELTk20xNkjd9MSAnShOe4+tk0jFHcCa5rh9C6REk+9j3MMFwFf+7xICc4u04LD4TDKyVu248I/vVje6N1Ww2Zuy48I67XFjqlgTs1z+kdmKR0b68rZotZ3726c/glH7Go7dxU/c36Qooooo+iKQxyRuEjNI6BRRRRRR9OGl5Z9EUUUUUUUfRSl8Vn6Iooooooo+mnJ5av0JRRTk5FFH04N/NfQHv4XCIRCcE9OTiiUSuVz+eBf/t0B7+FwuEQnBSKQpxRK5XK5/PCu4vaA0f0uEWq0ztZLKOS9dy5XK5/PEf2OhnrVmPK/NuL5ltfMtr5dpfLtL5VpfKsr5NhfInXnmXmlXlkXkeu9y7nLuK5K5P8AmOU8B67lyuVz+eH/ALHQ6oZ25XUYU0oFcrlc/ngm91/Q6uj4s6gTSgUD6enG8z6HVkXdS1Qgh6enmcVdDKQ/Ix+qEEPTQi8NPRy9f42Q1Agh6MZD57ul1ZV7otUenpuv2xaViJs8NqF9exqD0VonTzwxtii0+qaPfHudOVO1mo4BzczRNK1tYmmblloDW6uRqsu1rUElafYqwyWJqFVlSvr5jHMvQzRSQy60Mb5pMTQZSh2cvjYr8dqvLWl1KsEtiXFY6OjHt3qcFyLJ42xRdpY3Gz3XUacNOLdcGubksCx6sQTV3+6vBNYkxuBYxNDWt+gnhinZd6ejcreOuVvXUx1yyqXT0bVBDFAz6WxQp2FP09VcpenJgn4HINX8Lkl/C5JR4HIOUXTkxUHT1VqrUKdf/qX/xAApEQABAgQEBQUBAAAAAAAAAAABAAIDBBEwEhQxQBMgIVFhECIyQWBx/9oACAEDAQE/Af1tViWIqpWIriFB4OxqibAcQmvDt1DfXdMfiG5Y7CdmUeaC6rdkUUeWXPupsKKiITkSqqvrCNHiy6ca00os83ss8Oyzw7LPDss6Oyzo7LPeFn/Cz3hOmMX0sSqq+sP5CzMCkQ2wVXkg9XizOto6tscsqPdWzNMxMrsJduFlnVRofDdegsxutx4XEb5RFOlwCpUCFw23JiXx9Rqi0jW0ATopeBg6nW9GgNif1RILodiFAc9QoDYew1T5Vjk6ScNEZd4+lwYnZCXiH6TZJ51TJVjdVp+t/8QALREAAgEDAQcDAwUBAAAAAAAAAAERAgMEEAUSICEwMVITFUEyUXEUQEJQoTP/2gAIAQIBAT8B/o5JJJJ/ZzpJOk6z150kkkkkkknWetOittitIVqk3KfselQ/geMvgqsV06T10pKaUuNFdmmsuWarfWSniWq0dKq7mRj+nzXbVdBnfjQhCEIqpVSgv2XaqFxvVcSEIQha5Fr1KNVxPjkTExCEJCWkGZb3Ln5FwvR8UkiYmUspKUJEEEG0KJp3haLV6PhkkkkVRTUWuZTSKkgggzKZssQhasYy1se7doVafc9iu+SPYrv3PYrnkew3PI9hr8j2GvyPYavM9hr8/wDBbCr8/wDC1s52VzcnpwbpBBBk/wDGr8CELVjGbMq3sanpMqpHSQQQZz3bLEIWr0ZsO5Nt0fbp1IaIIINq1xQqfuLRcLNlX/Sv8/npsaGiNNo3fUvfgXExnbmbPylkWk/npvXOvqxabO+i42YOW8a5PwW61XTvU9NldSop3mZmS8i5PwLoPXZ20HjPdq+kouU1071PSuV00LeqM/PeQ92n6dV08TOuYz5c0Yu0LWQuT59DKz7WOub5mVm3Ml8+3Xg7dixtW/a5PmWtuW39agp2njVfyP12P5oq2njU/wAi5ty2voUl/al+7y7HfmyOtGkEEEEEEEax140gggjWCP2UEEEEf0n/xAA2EAACAQEEBgcGBwEAAAAAAAABAgMAESFAUBIxMkFRUgQjMzRxkZIiMGGBobETQnKAosHw8f/aAAgBAQAGPwL90l5q4E1cBW6tqtr6VuNXqKvBFXMMmvr2a1+7uausFnxq1TbkV1X+/tU2VZLceOZ8V4VapzLSU2GuDDWMyDKbCK4MNYzIOusUHGZW/lOurRmX4LaxqzJXXWKDjUcyaE7rxmSNutsOZxvxF+ZMnK2ZSJxFuZAcykZKW97H8/tgZkTpEqrdYAx4V3qb1mu9T+s13qf1mu9Tes13mb1mu8zes13iX1mu8S+s128nqNdtJ6q7V/VXaN51tt51tHzraNazWs4CP5/bAseZQchB5VJwMMvMmj5f9yGV+C2f7ywKSgbD/Q/4ZC0lm02BmistJW7xyGKPeBf44KWOz2bbV8Dj403W2nBp0pRevst4f7749ukkbVy+GDeJx7LCw08Mm0hsxqRJrY0sa6lFmEHTIx7SXP4Y09KcXtcnhhSrC0GtEdm16H+sXYezW9zQAFgGGaF/keBpoZRYy4lYoxaxpYk+Z4nEcsq7Df1TRSqVddYw6xxqWZtQrc0rbTYrlmGy1GKZNFhhRFEuk1c0p1tjNCZfA7xVrDTi3OMHaBoR73NaEK+J3nHFWAIO6jJ0M6Dch1V+HNGyN8ff6EMbO3woSdMIduQaqAUAAZDoSxq68DRbokmgeVrxXWQNo8y3j3fVwNo8zXCg3SpNM8q3CtCKNUXgMm62BCeOo0TFJJGfMV1XSI2/ULKuVH8Gru/8xXd/5ir1RPFq63pEa/pFtAyySSfQV1UCA8dZ/dL/AP/EACsQAQEBAAAEBAUEAwEAAAAAAAEAERAhMVEgQWHwMECBocFQcZHxsdHhYP/aAAgBAQABPyH9S8/0Py/Q8ssssssssss/RMs4ZZZZZZZZZZZZZZ+g5wyyyzjlnDLLLLLLLLPn8s4ZZxyyyyyzjllnDLLPmcgsiyyyyyyyyyyzhlllnDPClnyxBBZZwyyyyyyyyyyyyyzhllnDLJ4J8Xz8ZxzjnDLOHQ0iQeVX7sjoj9if6BeyIfV/cI3Xfs5K/wB/ddz28+GeDOGSWT8kREcDjkBqAjchvq3X1nYmZmZmZm6z52eZN5a+zmWSA7lnBLODMz8gREcSzgZy53vM6tfAzMzMzMzaXr0sMvS9IQaOjxeDwZ+MRERERG63ph28LMzMzMzMzNkD1nfUWPM4MzMzPxCIjgcCM+s1a+F4MzMzMzMzMw3Mfe9iR5zMzMzPwyIiIix+tpdfCzMzMzMzMzMzM9DmBvKn9qmZmZn4RERERLGy11+AzMzMzMzMzMzIzn3LkI9zs9pmZmZ+CRERHBa9PG8GZmZmZmZmZmZlFds/mQCCPRmZmZ8PlxIiIiJcs+AzMzMzMzMzMzMzw3G831naZmZmfGRERHB5vwM4MkzM+MBmZlmbrdOz26OkzMzPjIiIj4bJJJkn4ABlmWWWW21hz/ivX7/5mZmZnwkRERE+PLLLJJJJJIeMhSyyyy28Ntc/gGekzMzPhIiIiPDnDLLLLLJJJJIQ8HcpSyyy22223MHX+Ucn7zMzM+EiIiI8eWWWWWWSSSQjHiOUpZZbbbbbbXHX+AfbM8GZ8JEREfAZZZZZZZJMfCKPwEMYttttttl2/wDwf+zMzwfCRERF0eLLLLLLLLLOBjx+cseKseBtttttt7oDn+JmZmfCREREuXHlaWne0uXe073Lvcu5cu5cu5cu5cu5cu5cu5J3EnuRvmXSDDrIWNpPgTbbbbbZ+13TMzM+EiIiIuS5XBy3s783vr83sL83tb83t783uL83tz88UFv7Rf2q/td/aODv7i/tr+8vUbXvCju85g1tI8Cbbbbbbe+9UzMzN58fOIiIi9m/y/HyuXFSHA2222229gBy/MzMzN5+EiIi9Zj+TflXV4CBhhtttttvRG/mxmZmbz8BEcCLncPOewf7+WOUoYYbbbbbbfsPLe4f92Z4Mz4SIiIsZ0afRzPuHy9ShhhtttttttMDj1c37szMzPiIiIvKy/C6bl1Pt0+nyxShhhhtt4aeaej8jn/z68GZmZ8REREXWcfqun8Py4QxDENvDqFP6Tr9/wDEzMzM+IiIiLSkuBW6h69n6/LCIhhiGCLpv29Y38IJmZmfGREREXQhMQ69/wBPfT5UiIiI4dHbwTp3fX31mZmZn4BEREQ4AYickk4Lv6L8j5UiIiIpsfRHb6whgYB5EzMzPwSIiIjlcmheefPym1xry6J3PT5QiIi1bH6B3bmdJzz+tMzPBn4RERERch4L/o9JkKYnyZERLWLAuavZQekzMzM/DIiIiItByL0fs+klT+Anc9PkiIkZp/Ad30tpyP0/sekzMzMz8PziI4EcNufqnT6vo3NAOi5fXs/JFy4nouX07tyYV6/NfVmZ4MzPxiIjicBQNijRLMDrPW/t299J32aHX9nz+P6YyHT93yvPxR0P79/fWFImAHIJeDxZn5AiI4DxGQsHk7aQ+7Hqfe11g/Yu/Lp9fh46Rf7Ln1+lpP7ser9oAAeTktvBZ4Mz8kRwG3htttt9JlX3Un3DnaoLoaF+fvfehf8AHb3N/wC+T6v294Xt9veR91+m33oX/PLVBOpo35+9gp7oz7jzuUs8N4vFflDhttvHbbbbbbbbbbbbbbbbeG8Wfltttttttt4bbbbbbbw22222222235rbeG22222222222228N8G2/Obbbw222222223httttttv6Dttttttttttttttttv6Ltttttttttv8A7n//2gAMAwEAAgADAAAAEITeabfeRZffQQEZefRVcRTMHTTXdZZdTQTkWzDCJYTtfTcfSZcWRafZWaowIWjXGKuRAzvdfVRSbfffSSa3M5mDzX5Dt7FxddefSRXfGRYqKiyFsrH/AAoVZRavX3X333FHBXioRZTwzCsa1xQnCFH32nlbLDBS9qh3weSq1a8zLDKP2W0kJzLE0ztg7RbOYjaV7nKwPX23YCtFIwp7QBjFFLIygBolcDr3WmmZZljz4g4hm7hyyiYQfpUWkFt4iueD4V7uXwIGTjDS5aQ6X3nQReXgS6TnQv8AHdvmu7qap44QtUVVCUT5g5TRbYT6Nm6CIppoVpcYfoBDDBBBBDDWSlvyWEvggANn2gABBBBBBBBBRlQxhCwY6aR5h5eWBBBBBBBBBBJRkml6u3Rdh+EvCpBBBBBBBBBQNU8TAfA+dBtK0O5DBBBBBBBBRCkI/O4Dd59lePMMQLBBBBBBBBpGwMMOvd8hBtFOVoLJBBBBBBBjwUhOJd9FNB5t3qoqCkLKPMAQCWUErdR959FMlEhq0v6kbznYy/4WRV9Vl51959dB6LAfmYxn6vAHyxV991hV995dVMt3FlQwgaJ3d5Rtt9lV999t189dYVdMNVd9Z9159dFZ9//EACURAAMAAQMEAgMBAQAAAAAAAAABERAhMDEgQVFh4fFxkfBAof/aAAgBAwEBPxDcmzC7cxCEITE35hIhCEIQmITehMQhCExCbU6JiDVDfsPyHuJdxI5OW0OcNYa2kQaIY8MYxjGcafmBj2FhCG5hjHhjGMZWtUJWPkY11oWOB5eGhjGPDE2nUfmsMfQsIQ3hrDJhjGMeGTWcjw+hCO2JmEGhrIxsbGymheMMeUIRMQhCEGhoTBhsbGykW8hjHlCF0QhCDDwNGB4KXEGMY8IQhztpoewe9hfyZ/Vn9WT9/gj7/A0fz+BL9hqyUo37hjHlCESHvaTwIUpRIBjGPCEIg+a22ExMpSreAxj6FjT3K120JiZSmuPl4Y8rCHojHtXbttIWExqV27kiiHh9CFhclw4HvXO0hDpIRB8vnDH0rCYha/eHM5bT2BKfWGPovUiiWvTyH2q089thnotPPYW1avyUb3LhpJGaytH6OSp/8OWY939HCMchSNf1P2KJFi7MxcUpRMpSlKUpd6lEylKUpSlKXdWUylKUv+BZeXvf/8QAKREBAQABAgMHBQEBAAAAAAAAAQARECEgMDFBUWGR0eHwcYGhscFQ8f/aAAgBAgEBPxD/AAc2eIGbPPzLMzqZ0ZsxBh5izFnkAAwxB5SyyzMt1ra7dA7I7p5T1kX1YtwN7KbMQYYeQssss7ugxDERGgXc375jfc74YYYeJZZZbrmMBghhhh0EaCFxEX/NDDKHhWWUGUbQwwwwy4AIWVOlgHY9JQw8DKWW2WbMMMMpcAEEEbHb2fW3HDDKNWXR22bNmzDGoHpOoBE386bvWURwHRmzZs2YhqDJpyaBDQxvcf38NBwjoXezZs6hC4NITY0DWYb4Z8t+SAaEAPb23zG8L5Md28mO4eXveH8ve8L5e94by974PdA+H9v0xY/rpbOCHzH65IGedxjy2/nKGTUHWZn4Y89uMHRlx3X4ffPNBjGd5i/B8NBDVnRhxbbfv2en35Y1BiWVDps+/b6fbQRqwhGUDqXYEbP1+b8phJJdqDofX5vZVl6wQjgSSF3/AHZ9ftDkyPKSE6XAWNOjp6/eEEHCkJJLqlX49u+LJkeSyNMBdKg/PtBBCDiSSSS+9yP87oJtdx6/PpyOrDuHX59bs87nr3wQQQchJJJhlZWGwaY+PXz9c2xovM9fxdMB9dv3i/6hddD9N/1ZsReR6/iy4cfDr5+mLdZMsQIIOUkxJjxAECCIHMSSZjhDFiITHPxY4gYsf4X/xAApEAEBAAEEAQQCAwADAQEAAAABABEQITFBYSBRcYGhsUCR8DDB0eHx/9oACAEBAAE/ELmzfF5u7vawWLvfR5safm505nN9RzPMZuC+rN9WLN9Rze/o5v1qc2brfTezGL30fxEQ30205utHmedHm8aeLzY2vuxtd7XFvxYsWGRsOLDb4vu6m6vMRPnTzO176bam+n7t7uPaS2403097uedHnTyX606uL6gbEf8ACAHwmYu9e9O7zObu79720606jf0YnnT50Oo5uY5vbQ50+GxtEIH/ACgAMYkmNMa/cYvLp/3d2Z99DxdXjT9X6sOjzo83WNHmeb5g8RAiHhoIFjxqY0fDQxjHwmPhJN76POncmn1o/N8X3dW1173i6I5u7jT6uLi+oIIPEQgR/mIgWPHrASxMYxPExjExd36jMc6ba9XVvd3F1fdvHOnenm7gjQHhCIQhCE+Eaj4WNDoMTxMSSTxJ40HwkxHN3HOni7jmzdZn3n30/Gjze0c6fcGYagQgRCEIeoD4aGMSYxiTGCTQS5nTq6t+dO78afMT60zGbeCEEEQIIgRCY82wvHWcv9FnxD4wf+/iV+dH/wAv9gvzdDH/AF7Sf+H6v8pPxi/KPftmRBh5cAP+/wAWJHXGWP6O8n3MSTmTxMSdAwSY6utMXV5trvfT2up5j2u9QhDxCEEIIImBwdrZRL+A/wDf1ZEMvAQ9AFw0cLlcJIEn4z4ePqxLP8Icn5hLf25mJeCYkIQhJdxzGL50ebuHTrnTiOYMwhCEEEI8LYFcAWZE9xxZy/IyTzJcNAhc9HD0h5U+ufk4fuwicAG/59v18QExMiORJJISQkhCTiY5vm61xe9929tnQQ4hCEIQsjcex2zWF8KSSSSEIQ0CHpBSlHFVdzt9PTYa3GM5hfJ/iSEIQhCHifa39BzdT73DHN4hxCEIIQQvdS4JeqskkkkJIQh6Q76OXoCnJ7DwPZOyZBg2Vfw9z9f1kbwh4hCEIXe2hzLc20e+nEbpCEIQhCDhyuCSkVZJJJIQhCEId6nL0FSuUpTR2wH/AH9W7sFjJ+Hh/H5RCEIQhJp1caPN+L5uYQhCG8IQqv8A9mfkZJJJPEkkkIQhGPq+5SlKVk/rvgdj4blAbZ8vcv8AbkIQhCELa2u9rvTrQhCEIQjYvhXEliSSSSEkIQhGPq+5zlKUpoc4PG6Hk/WSBg4g5Ee4Q5hDxCElzHNmImghCG8IQsGHvmxYkkkkkhCEIRjH1fc5zlLzKWyVp51+X6P4fEN4QhCELa20edPaEIQhCNjLZoskkkkkkkxIaAjHxGGjtdpSnOctBSk6AI9k7Hwm1hvK3h9/JCEIQ8Qm/FieZ5jmELhCEbhj3sSSSSSSSSTqAaRhCF3u0uZT0n6QBm+O+LPds+t0EIQuELY6e176CEI7Q3hHa3skliSSSYxj6wFAjoc5efWQAxbdceTg4lfjn60DpMNHDRvq739A4aOujFjxJJoSYxj4TH0B/Hqw0rQ83qKBjGMzxggk5/6g6RoHp8xvfLSIahseLFixJJoYxjGPj6H/AA3h0hjMsen38ui+UxjGZPUkPZCfk1DDRy070OblcLkehjbNixJYsWJ0GPhMfGdL4LxXg0NjiGM2LvUPJpeTRa+U+Uxgbpyv1aRuWh7uVm6uo5NXkXLR1jceLFixY9A+GhrWtfC8N4tF8O05doklv86XnvJPlNfThRuw/HoDsuGhvu6jk0cLZctQMS25yZsnizqD5Cz7F4Fn2v7s0zTNP9nT4un/AN9/9HNkyc3oPK9iwpp8xrZsk5dz53y9fGIffHXOWnw0Opzp4aflo6wY7eTZ3AODLl+ZbmMvzGy8xlpynMJTmQpzMX5X/HvL8r/r3l+U/wB+8py3+PeU5X5/9JXl/wDXvK8r9r3f7d/+usnP9y9z++8yAFYORzGjv3MObJ3GXen5ernyty+2ndrl6Mz4vxHrOIh1HwD/ABdFifHN5tPyR5RSms+Ug7yv3jWOXoToOYjq4eljzLlo6/iq8TyaHkvPqpCmoHIuQv7otZaO06Pq9vRTVz4nBuzA/wBgfxTnW/L6NSEIQmfpYycMD8tY8anLQ97q/PoC0Kd6EBxnb/4wXpifJEIeUQisKZnj/sS5SuHoG3NzqXC5SnKDKLd4zGjhA9zLd7/xSw3k9RQEIMvMquRzh8ON3vF2lPRylzcLh1+olKUpSmP3Kw3z719lx8/xRzKek9BaBBmwVnadm48OyqUpS8y0femN9N5SlKU46hS7wmMnsnI9O8AAShwOQ8DCeH+KpynqC0ABJSvA5V4DK+CwZvfeAxl8vK9spSlLaU83W91OmZSlKWh8SZeFuDNt80uduHdx/FOc5Sl5l5hsqI7cHf8AdxtwbbRSlKV8pWdeuJdD5lKUpSnIvz5GyI8mJnBqZ+SfJjyYe8fxDmc5SlKF7BC/oX3wx4MvUFZh+ANgD2lKUpSnfQ506utPqU5SlKUwh7X5A4f0m2RTO9tHIVZ6Sdo3/eHb+I5S8ylBfwWVx2k6A3/W9gC3kwU5f6DfABKUt95Sy1fvR829933fcO8pSlKUrPG+VNn4d1/2O5ncUIBP3H9I8ibJubfw1KUrFVZO6/8AQcq7Bu7WSMASNj598P7Xd6BSlKUpXN1vfV3fnXm7uZSl5l5lKUt4ScrB5HPnz+x3Ox3HXGd+knCvc+OR/hcJaN136G3aTgHu/HOJA3Cn4HPjz+13egUpSlzKUrbQ5uru+ri4b7u4ilKGUoYmEQqvwzv+jZyODIyhjMfVw/u2el3/AIJzKLORhPLfcP6tjtNra0wrwnf/AEGAy4CUpSyl5lKbzcXe0F73mCzfN1oOGUpShhlDOhBnQbIjsjLvnKO/57r523ODZFQG5shxkNh5FP8AnLvG7sj7psPKhIHHCbn8+eu2xybIwpMeBsAGwWSWUsspSlze+vVzd6cXhtr8xzbQ42l5lKUOgPmG8lz2lCM+5nhPc3Op1RZRHL0HE+ZuOE49l2eD4D/x7BhoWy7YPAfJnAhhWcvs8T4yuK84Rn3ccr7u73eSYugpZSlL7adxzHMc2176ubG+nV1Zh3l5lDoEGIQhFHmOucci/OL8rJiG+B+EF9wczmYljHnsX6wHGLx/23kH8p4Ad7kn4wNznRtcpoltA/gEfUWffOBc+2b8oehiySlmLLKWXQXX5u8XWpcX1eb8TxZt44uIcdyh8xCHlDDGyIaHy1PlfLU+UxjGMWYvmWUpbvXvN7afenVtJPtdRzpzpvHMOOohCEPKFEIMT5eoGZjFTGMYxjFlutONPq6uLrTq3020OZ51/OnLoPmIQYhDyiEIeoBy70LPlLLLMYs76dX40Pe61eY5vuTXi7uJ5jm99PMY0MxCEHzEIaHy9A+VnUYxjGLPd8WG4vLp1p50206mxPPp9tPu6to5vicwWYY/4wAMY6DoLxp7WfFj2vzpxp3pmztca9anMc2NOs67XmeZxp3vdWbPUOjhfL0h8tDM2WNOruzp4dOtHm7uYJ3vOpz6ffT70+tfvXERzfEczp92Wy2Wy2b3safHo+rE8676bYtpxHi/OjzPvHM86/VjT7v3oc3cc6d+9+45vi620eY5vu+55nmLv3viObu69H61ebfF1fcc31i7jmObxo83/9k=;" parent="1" vertex="1">
                    <mxGeometry x="1020" y="241" width="78" height="78" as="geometry"/>
                </mxCell>
                <mxCell id="13" value="" style="shape=image;verticalLabelPosition=bottom;labelBackgroundColor=default;verticalAlign=top;aspect=fixed;imageAspect=0;image=data:image/png,iVBORw0KGgoAAAANSUhEUgAABLAAAASwCAYAAADrIbPPAAAAAXNSR0IArs4c6QAAIABJREFUeF7s3XmcnXV1+PHPuXcmM0kIm6LgDri0VVtZrD+11tBaaFaWmqmQjYAFFAUVBASEAcIiUgRcA0LIJIGaKMtMQpRaSa1LfyqudamVxZ8sRUGQBDLJzL3nxw2gSWTJZLZ77/O5/8jr5fOc7znv85XcHJ/7fQI/CiiggAIKKKCAAgMWmNiZLbvsQnvvDrymVGFiFV4NvCSDHQKqwIOZ3EmJH1b7+Up5A7e178T65R1RGfBi3qCAAgoooIACChRcIApev+UroIACCiiggAIDEpjdleN/W+b5UeHogHfUhlZbFSD4r0iuaQmuLrfx0PKOWLdV93mRAgoooIACCiigAA6w3AQKKKCAAgoooMBWCMxYlmN6e3khwbtJjgPGbMVtf3xJ8CBVLipVWDxmO+7xiaxtUvQmBRRQQAEFFCiYgAOsgjXcchVQQAEFFFBg4AKTluT2LRX2i+Bs4DUJpYFH2eyO2s8Iv5bJ6WurfGf1vOgdZDxvV0ABBRRQQAEFmlrAAVZTt9fiFFBAAQUUUGCwAgd8Nndua+MfMzkTeP5g4/3+/iBJ7szkpLFjWelPCodM1kAKKKCAAgoo0IQCDrCasKmWpIACCiiggAJDIzD9ypwQrcypwoeAFw5N1M2jJNxGcsoLernx8qOjbzjWMKYCCiiggAIKKNDoAg6wGr2D5q+AAgoooIACwyKwz4Js3W0cHZF0Ai8flkX+EPSHEZzcPYsvEY+t6EcBBRRQQAEFFFBgMwEHWG4IBRRQQAEFFFBgS4HMmLqIv4sS5wN7jwBQJeCrWeHUnnnxnyOwnksooIACCiiggAINJeAAq6HaZbIKKKCAAgooMBICUxflX0YwH/gboDwSawLrgOurMH/lnPjpCK3pMgoooIACCiigQEMIOMBqiDaZpAIKKKCAAgqMlMDUpfmKqHAq0AGMG6l1n1jntwEL+itcdtO8+N8RXtvlFFBAAQUUUECBuhVwgFW3rTExBRRQQAEFFBhpgUlX5S7lMu+O4Dhg55Fef+N6yT3A2euDJTfPiUdGJQcXVUABBRRQQAEF6kzAAVadNcR0FFBAAQUUUGB0BCYuzPYJZWY89tTVhcCuo5PF71e9I4L3trXxxeUdURnlXFxeAQUUUEABBRQYdQEHWKPeAhNQQAEFFFBAgdEW6OzM0ndfwVuzn0UELx7tfAiS5MeUOKJnVnx71PMxAQUUUEABBRRQYJQFHGCNcgNcXgEFFFBAAQVGX2Da1flqSnyO4M9I6uX7UTXhXyvrOHbV0XHb6CuZgQIKKKCAAgooMHoC9fIFbfQEXFkBBRRQQAEFCi1wyOLcrQ+uJPl7qJvh1ZM9qSR8Mst0rpwZDxa6URavgAIKKKCAAoUWcIBV6PZbvAIKKKCAAsUW2L8rx49Jzozgg3UuMa+9nWuWd8SGOs/T9BRQQAEFFFBAgWERcIA1LKwGVUABBRRQQIF6F5ixLMvr1jMzkkX1nmvt3YRRZWL3XP6DiGyAfE1RAQUUUEABBRQYUgEHWEPKaTAFFFBAAQUUaBSB6Vfnm7PEV4FSg+S8NoJ9u2fHfzdIvqapgAIKKKCAAgoMmYADrCGjNJACCiiggAIKNIrAlK58TcDXA7ZvlJyfyPOnfa1M/uKhcWeD5W26CiiggAIKKKDAoAQcYA2Kz5sVUEABBRRQoNEEpi7NV1BhecBfNFruG/MNvhBlju0+LO5ryPxNWgEFFFBAAQUU2AYBB1jbgOYtCiiggAIKKNCYAhvfOJhcBPwjUG7EKgL6qnBRqY/zu4+MNY1YgzkroIACCiiggAIDFXCANVAxr1dAAQUUUECBhhSYfmVOyFZOBt4HjG/IIv6Q9MMJp659MQtW7xf9DV6L6SuggAIKKKCAAs8q4ADrWYm8QAEFFFBAAQUaXWBiZ7ZstwdHB5wJ7NLo9dTyD7grgxN6ZrMcfDNhM/TUGhRQQAEFFFDg6QUcYLk7FFBAAQUUUKDJBTKmLqGDKudGsAdZm/00xacC/CCrnLTi8Pi3pqjIIhRQQAEFFFBAgacRaJYvcDZYAQUUUEABBRR4SoFpXfk3Aecl7Nuo5149Q2t7gX+NFk7vPix+6BZQQAEFFFBAAQWaVcABVrN21roUUEABBRRQgCld+ZpS0EkyBWhvUpI1BIsrbZxzU0f8b5PWaFkKKKCAAgooUHABB1gF3wCWr4ACCiigQLMKTF6Yu5ZaOCWSI4AJzVrnxrqS3xJc3N7Oxcs7Yl1T12pxCiiggAIKKFBIAQdYhWy7RSuggAIKKNDcAhMXZvt2Jd4bwYeAnZq72serS7iX4Ix9b+Oqzs6oFqFma1RAAQUUUECB4gg4wCpOr61UAQUUUECBYgh0ZmnKyzmslFxE8vxiFP34DCvhZxl8cOXsWFmgui1VAQUUUEABBQog4ACrAE22RAUUUEABBYokMH1x/h3JJzJ4RRO9cXCrWhhQe/LqK9Xg5BWz47tbdZMXKaCAAgoooIACDSDgAKsBmmSKCiiggAIKKLB1AtOuzldT5mKS/bfujua8KuEzlfWcu+qf4q7mrNCqFFBAAQUUUKBoAg6witZx61VAAQUUUKApBTKmX8lu2copwHubssQBFhXJSRPKLFg6Kx4e4K1eroACCiiggAIK1J2AA6y6a4kJKaCAAgoooMBABaZfmROylXcCFw/03qa9PujPZG7luXxh1eRY37R1WpgCCiiggAIKFELAAVYh2myRCiiggAIKNK/AjGU5ZsMGDq5WWQK0NG+lA68s4AGCQx9+Ebes3i/6Bx7BOxRQQAEFFFBAgfoQcIBVH30wCwUUUEABBRTYFoHOLE3bg4nA54DnbkuIAtzzvUiO7J7D94nIAtRriQoooIACCijQhAIOsJqwqZakgAIKKKBAUQQmL8nXlqtcDexdlJq3sc7roo/3dh8Z92zj/d6mgAIKKKCAAgqMqoADrFHld3EFFFBAAQUU2FaBQxbnbv3wyUwO3tYYBbvvEtZxWs/R8WjB6rZcBRRQQAEFFGgCAQdYTdBES1BAAQUUUKBoAvt35fi24EKSdxet9kHUmySnt4/lI8s7ojKION6qgAIKKKCAAgqMuIADrBEnd0EFFFBAAQUUGIzAjBlZXj+dU6vJhwNaBxOrgPeujeT47rksBM/DKmD/LVkBBRRQQIGGFXCA1bCtM3EFFFBAAQWKKJAxbRFHUWI+6aHt27ADak9h/SKD962YEzdtw/3eooACCiiggAIKjIqAA6xRYXdRBRRQQAEFFBi4QMb0xUzO5KPAq4DSwGN4B0E/Vb6RJY5bMTt+oIgCCiiggAIKKNAIAg6wGqFL5qiAAgoooIACTF+Uf57BxwLekv50cHA7IllPiRvb23jP8o74zeCCebcCCiiggAIKKDD8Ag6wht/YFRRQQAEFFFBgkAIHd+Xz+pNLiI1vHGwfZDhvf1zgEYJF/c/hA6smx3pRFFBAAQUUUECBehZwgFXP3TE3BRRQQAEFFGDGshzT28tHSd5JME6SIRV4oAQf2+t2zu/sjOqQRjaYAgoooIACCigwhAIOsIYQ01AKKKCAAgooMMQCmTFtCSeRnATsPMTRDRdkVrk9grN65sRiQRRQQAEFFFBAgXoVcIBVr50xLwUUUEABBRRg2uI8lGQ+sIccwyrwtVJw8o2z4xvDuorBFVBAAQUUUECBbRRwgLWNcN6mgAIKKKCAAsMo0JmlA/fk/1ST84C3DuNKhn5SILm2WuH0lUdwB0QKo4ACCiiggAIK1JOAA6x66oa5KKCAAgoooABkxvQl7JlVziSYJcnICWRycbRyfs9hcf/IrepKCiiggAIKKKDAsws4wHp2I69QQAEFFFBAgREUqL1xsA9OCDaee+VnZAV6CT4c27Og+8BYM7JLu5oCCiiggAIKKPD0Ag6w3B0KKKCAAgooUDcCk5bk9q0V3pnBuUB73SRWrETujuSU7OW6nqPj0WKVbrUKKKCAAgooUK8CDrDqtTPmpYACCiigQMEEZlycY9c9l4NLcFHCbgUrv77KTW4lOGm3dfzH5UdHX30lZzYKKKCAAgooUEQBB1hF7Lo1K6CAAgooUGcCE2/Jlgm/4s3APwP71Fl6RU1nRRVOev3t/HdnZ1SLimDdCiiggAIKKFAfAg6w6qMPZqGAAgoooEBxBZ48tD25FJhcXIj6qzzgqr5+Tll1RPym/rIzIwUUUEABBRQokoADrCJ121oVUEABBRSoQ4G3LcgdxrbzCd84WIfNgQrBRf0Pcuaq42J9XWZoUgoooIACCihQCAEHWIVos0UqoIACCihQnwKdnVm6dQ8uAo4HSvWZZeGzWkNyWs+c2pAxsvAaAiiggAIKKKDAqAg4wBoVdhdVQAEFFFBAAR7/6eD7MzkbGK9I/QpEcFc1OXrFnLipfrM0MwUUUEABBRRoZgEHWM3cXWtTQAEFFFCgjgWmL87pJJ/xjYN13KRNU0t+XA1mrJwTP22QjE1TAQUUUEABBZpIwAFWEzXTUhRQQAEFFGgUgQOX5GurVa4heDWJ30cao3G1nw9+vVpm+sqZ8WBjpGyWCiiggAIKKNAsAn5hbJZOWocCCiiggAINIvC3i/I54+BG4I2E5141SNs2phnQl3DTmhfz9tX7RX8j5W6uCiiggAIKKNDYAg6wGrt/Zq+AAgoooEBDCeyzIFtfMI5lmUwJaG2o5E32SYE1EVxx4yxODA91d1cooIACCiigwAgJOMAaIWiXUUABBRRQoOgCWTu0fTEXA+8Etiu6R0PXH9xDhbN6DucK8M2EDd1Lk1dAAQUUUKBBBBxgNUijTFMBBRRQQIFGFpixLMvrezkikw8TvLiRazH3xwUSfhQtvLfnUL6KT2K5LRRQQAEFFFBgmAUcYA0zsOEVUEABBRQoukBteNW3gYmVKhcCexfdo6nqT/6tr59jv3gEP3eI1VSdtRgFFFBAAQXqTsABVt21xIQUUEABBRRoIoHMmLKYV5fgo8DfN1FllvK4QDVhGcmJK+bG3aIooIACCiiggALDJeAAa7hkjauAAgoooIACTP5svrQ8hnOAmeAbB5t0SzxC8mla+UjPYXF/k9ZoWQoooIACCigwygIOsEa5AS6vgAIKKKBAswpMvyKfX23jAwHHAuObtU7r2nge1l2RXNhfZtGqWfGwJgoooIACCiigwFALOMAaalHjKaCAAgoooABvW5A7jG1nDnAKwQskaX6BCL6fVTrXVPnS6nnR2/wVW6ECCiiggAIKjKSAA6yR1HYtBRRQQAEFCiAwcWG2b9/C/pkbfzr45wUo2RL/IPCVCpw6vp3vLO+IijAKKKCAAgoooMBQCTjAGipJ4yiggAIKKKAAtTcOru9lr4SLgLdKUkiBL2SFD62Yxy8gspACFq2AAgoooIACQy7gAGvISQ2ogAIKKKBAUQUyDlrIS6slLs1gelEVil53QF8mV0QrZ3cfFvcV3cP6FVBAAQUUUGBoBBxgDY2jURRQQAEFFCi8wAGfzZ3bxnBBwjygpfAgxQZ4KEqc//Dv+NTqY2NtsSmsXgEFFFBAAQWGQsAB1lAoGkMBBRRQQIGCC0y6LNtaduIEklOACQXnsPzHBe6OMse1tXKj52G5JRRQQAEFFFBgsAIOsAYr6P0KKKCAAgoowJSuPKQEnwF2kUOBTQTuoMq0nsPjx6oooIACCiiggAKDEXCANRg971VAAQUUUEABDu7KP+2HrwC7yqHAlgIBP6ePfbuPjDXqKKCAAgoooIAC2yrgAGtb5bxPAQUUUEABBZi0JLdvSX5K8gI5FHhKgSADvtnWxl/7U0L3iAIKKKCAAgpsq4ADrG2V8z4FFFBAAQUKLjAjs9y7mP8E9i04heU/u0AV+GzP7byLzqj9sx8FFFBAAQUUUGBAAg6wBsTlxQoooIACCihQEzhqQbbe084CglkBraoosBUCj5J8YJ87uKLTIdZWcHmJAgoooIACCmwq4ADL/aCAAgoooIACAxKoDa/ubueYUnAWsNOAbvbiQgsE3FsNDtv3Nr7qEKvQW8HiFVBAAQUUGLCAA6wBk3mDAgoooIACxRWYsSzL69fz9ySfSHhZcSWsfFsFEn5aLvGPN87kv4jIbY3jfQoooIACCihQLAEHWMXqt9UqoIACCiiw7QKZMW0p+0aFyzN43bYH8s6CC1RIVldbOGrlzLi94BaWr4ACCiiggAJbKeAAayuhvEwBBRRQQIFiC2RMu4ZXRT+XJLwNKBfbw+oHJRCsBf4lWjiz+9C4Z1CxvFkBBRRQQAEFCiHgAKsQbbZIBRRQQAEFBicwdVG+JEp8mORQYPzgonm3ArDxPCz4eJb5zMqZ8aAmCiiggAIKKKDAMwk4wHJ/KKCAAgoooMAzChy8KJ/THxxD8h6CXeVSYAgF/jtKzN+5j89fPS96hzCuoRRQQAEFFFCgyQQcYDVZQy1HAQUUUECBoRSYtiDH5TjeTnJawCuHMraxFHhC4DtVOH1cO19e3hEVVRRQQAEFFFBAgacScIDlvlBAAQUUUECBpxSovXHw0V7eVoLzgL1lUmCYBGpvIvwyJU7rmcl3fDPhMCkbVgEFFFBAgQYXcIDV4A00fQUUUEABBYZFIDMmL2afElwYMJGNRxb5UWCYBJL1EXyO4Jzu2fGLYVrFsAoooIACCijQwAJ+GW3g5pm6AgoooIACwyVw0NW5Z3+J+cA/BLQO1zrGVWATgYeAy/r7+cSqI+I3yiiggAIKKKCAApsKOMByPyiggAIKKKDAZgJPHNr+/oDjE7aTR4EREwjui+DEtjF8YXlHrBuxdV1IAQUUUEABBepewAFW3bfIBBVQQAEFFBg5gYkLs32HFjqqySXATiO3sisp8LhAwr3VKu8YP46ve6i7u0IBBRRQQAEFnhRwgOVeUEABBRRQQIGNAp2dWfrO7rwhgpuAHWVRYBQFbq+W+buVM+P2UczBpRVQQAEFFFCgjgQcYNVRM0xFAQUUUECB0RQ4ZHHu1pf8EHjuaObh2goQZCZfa6kw/YZ5UTsby48CCiiggAIKFFzAAVbBN4DlK6CAAgooUBOo/XRwQplvA69RRIG6EQg+teZFHL96v+ivm5xMRAEFFFBAAQVGRcAB1qiwu6gCCiiggAL1I/DGZTn2uev4NMHc+snKTBR4XCDgqIdvZ+HqTodY7gkFFFBAAQWKLOAAq8jdt3YFFFBAgcILTLos20o78p4SXFR4DAHqViCrHLDvnXy5szOqdZukiSmggAIKKKDAsAo4wBpWXoMroIACCihQvwIzlmW5dz0HkXQB4+o3UzNTgN8GHNA9m1uJSD0UUEABBRRQoHgCDrCK13MrVkABBRRQADJj2mL+OuDahN0kUaCeBQKqCd+vwqyVc+Kn9ZyruSmggAIKKKDA8Ag4wBoeV6MqoIACCihQxwIZUxezVyQLSPYmKNVxsqamwOMCyfoIrq8mJ6+YG/9PFgUUUEABBRQoloADrGL122oVUEABBRRg+mfz5bRyfgZTgXZJFGgggYcIPlUtcdHKmfFgA+VtqgoooIACCigwSAEHWIME9HYFFFBAAQUaSeDgrnxeX3JiBEcCOzdS7uaqwBMCdyecv7bClavnRa8qCiiggAIKKFAMAQdYxeizVSqggAIKKMC0BTmOsRwNnAC8UBIFGlUg4ecJZ75+Nss6wzcTNmofzVsBBRRQQIGBCDjAGoiW1yqggAIKKNCgArU3Dq5bzzsee39bJ/DyBi3DtBV4UqACfCtLfHjFTL7imwndGAoooIACCjS/gAOs5u+xFSqggAIKFF0gM6YsZv8SnBOwT+Kh7UXfEk1Sf28EKyI4+8ZZ8aMmqckyFFBAAQUUUOBpBBxguTUUUEABBRRocoGpi/MvnnjyajIwpsnLtbxiCTwccAWtXNx9aNxTrNKtVgEFFFBAgWIJOMAqVr+tVgEFFFCgYAJTF+ULIziR5CiCcQUr33KLIVB7G+HZ7e18dnlHrC1GyVapgAIKKKBA8QQcYBWv51asgAIKKFAQgRnLcrv16zgyg3OB8QUp2zKLKfBAwLsevp3rV3dGfzEJrFoBBRRQQIHmFnCA1dz9tToFFFBAgYIKTLwlWybcxVSSpeCTVwXdBoUqO5I7K1XmrDycr3moe6Fab7EKKKCAAgURcIBVkEZbpgIKKKBAgQQy48DF/GUVeoBdClS5pSrw7y3JUdfP5X/gsZPf/CiggAIKKKBA0wg4wGqaVlqIAgoooIACQGZMX8IrM1kC7KuJAkUTiODT5aTz+jnx66LVbr0KKKCAAgo0s4ADrGburrUpoIACChRO4G+vyOePa+cjJHMLV7wFK/AHgfevhytunhOPiKKAAgoooIACzSHgAKs5+mgVCiiggAIKMGNZjl3XywkB58ihQJEFsvYsIvzjuHauW94RlSJbWLsCCiiggALNIuAAq1k6aR0KKKCAAoUWmLEsyxvWM7OaLCo0hMUr8IRAwsPlYOqNszzU3U2hgAIKKKBAMwg4wGqGLlqDAgoooECxBWqHtl/DpEqFLwS0FxvD6hXYTOAnkRzaPTd+qIsCCiiggAIKNLaAA6zG7p/ZK6CAAgoowNRr8o1RYRHJK+RQQIHNBTLprrZw3E0z45faKKCAAgoooEDjCjjAatzembkCCiiggAJMX5yvIrk04W1AWRIFFNhcIKAPuLxU4fQb5sVD+iiggAIKKKBAYwo4wGrMvpm1AgoooIACzLgqd+ktc14Gs/zpoBtCgWcUWAt8tL2dC5Z3xAatFFBAAQUUUKDxBBxgNV7PzFgBBRRQQAGmLchxMZbTSd6dwQ6SKKDAMwsE3Auc3X07l9MZVb0UUEABBRRQoLEEHGA1Vr/MVgEFFFBAAWpvHFy/nvdkcgqwqyQKKLAVAkk1gx9HcmrPXFZC5Fbc5SUKKKCAAgooUCcCDrDqpBGmoYACCiigwFYJZMa0JcwgOTPgTxJKW3WfFymgQE1gQwRfqcJpK2bHdyVRQAEFFFBAgcYRcIDVOL0yUwUUUEABBZi2JP8PyXyStwItkiigwIAF1pH8S/RzeveRcc+A7/YGBRRQQAEFFBgVAQdYo8LuogoooIACCgxcYNoVuTtjOIugA2gbeATvUECBJwQeIfjE+uScm+fEI6oooIACCiigQP0LOMCq/x6ZoQIKKKCAAkxaktu3VDg1gw8EtEqigAKDFniICmet+SWfWN0Z/YOOZgAFFFBAAQUUGFYBB1jDymtwBRRQQAEFBi8w8ZZsmXA376LKRcCYwUc0ggIKPCFwe8AHu2dzPeGh7u4KBRRQQAEF6lnAAVY9d8fcFFBAAQUKL1AbXo3/FQcHXBqwW+FBBFBgiAUCbgn40F638+3OzqgOcXjDKaCAAgoooMAQCTjAGiJIwyiggAIKKDDUAjOWZXntBv5PS5WPAm8c6vjGU0CBJwSSha0tzL/uMO7wSSx3hQIKKKCAAvUp4ACrPvtiVgoooIACBRfo7MzSt3bn5aXgrIB3FJzD8hUYfoHkvP4Kl6w6gvvBnxMOP7grKKCAAgooMDABB1gD8/JqBRRQQAEFRkAg4+AudqkkJ9cObR+BBV1CgcILJPRFckL7WBYu74i1hQcRQAEFFFBAgToTcIBVZw0xHQUUUEABBfbvyvFjkneXggsSSooooMCICdxfSt41Zizdyztiw4it6kIKKKCAAgoo8KwCDrCelcgLFFBAAQUUGDmB2rlXvb0cBnwSmDByK7uSAgrUBCL5fpQ49sZZfNPzsNwTCiiggAIK1I+AA6z66YWZKKCAAgoowPRFuV8GnwX2kEMBBUZHIIIvtpQ45rqZ8cvRycBVFVBAAQUUUGBLAQdY7gkFFFBAAQXqRGDawvyTKHNlwpvqJCXTUKC4AsGS2J53dx8Ya4qLYOUKKKCAAgrUj4ADrPrphZkooIACChRYYNo1+Vz6Nz55dWCBGSxdgfoRCBK4ZLdHOfnyo6OvfhIzEwUUUEABBYop4ACrmH23agUUUECBOhKYuDDbJ7TwcZJ5QLmOUjMVBYouUHsb4Rn73M6lnZ1RLTqG9SuggAIKKDCaAg6wRlPftRVQQAEFCi/wxKHtZwDvA7YvPIgACtSTQO0prOTOLHHCipnc4KHu9dQcc1FAAQUUKJqAA6yiddx6FVBAAQXqRiAz48ClzMkqZwMvrr0ArW6SMxEFFHhSoAJ8N4NjVsyO78qigAIKKKCAAqMj4Bfl0XF3VQUUUEABBThwYb6lWuYSktcRlCRRQIG6FegP+LeWYN51s+Peus3SxBRQQAEFFGhiAQdYTdxcS1NAAQUUqF+BaV25O7AA+BvPvarfPpmZApsIbAA+397OO5d3xDplFFBAAQUUUGBkBRxgjay3qymggAIKKMD0K3NCtrCA4B/BJ6/cEgo0kMAagk+1t3Ha8o6o/bTQjwIKKKCAAgqMkIADrBGCdhkFFFBAAQVqAm+8OMc+ZxfOiuQ9wFhVFFCg4QTuKFU553d3snh1Z/Q3XPYmrIACCiigQIMKOMBq0MaZtgIKKKBA4wlMXJjtE1o5guQ0khc0XgVmrIACTwh8Ezi9vZ1/90ks94QCCiiggAIjI+AAa2ScXUUBBRRQoOACM5blmHW9vC3gLGDfgnNYvgINL5DB9VHmw/v8nJ92dka14QuyAAUUUEABBepcwAFWnTfI9BRQQAEFGl9gxrIsr+9lr8cq6UyY0vgVWYECChBkJp8lmb9iLr+CSFUUUEABBRRQYPgEHGANn62RFVBAAQUUgMw4aBF7VMp8mGSuJAoo0EQCwbqEiyp9fHzVEfGbJqrMUhRQQAEFFKg7AQdYddcSE1JAAQUUaCaB6Vfk82nnhEzeD7Q0U23WooACGwXufuxtomdHH9d2HxlrNFFAAQUUUECB4RFwgDU8rkZVQAEFFFCA6VfmhGor8x77w7YT2EkSBRRoWoEfkHyofSz/trwjNjRtlRamgAIKKKDAKAo4wBpFfJdWQAEFFGhegdqh7b3rmQxiXqgmAAAgAElEQVRcSPKK5q3UyhRQoCaQcAvB+/e9jR95qLt7QgEFFFBAgaEXcIA19KZGVEABBRQoukBmTF3CXpF8Bnh90TmsX4ECCdzYGrzrutlxb4FqtlQFFFBAAQVGRMAB1ogwu4gCCiigQJEEaudeZRv/AkwsUt3WqoACVEgWto/luOUdsU4PBRRQQAEFFBg6AQdYQ2dpJAUUUEABBdj408FePgccCPjnrHtCgeIJPJLJ/J45fCQisnjlW7ECCiiggALDI+AX6+FxNaoCCiigQAEFOjuz9J3dubgUvDuhtYAElqyAAo8L/CZLHL1iVlwviAIKKKCAAgoMjYADrKFxNIoCCiigQNEFHj/36shI/hnYvugc1q9A0QUS7kqYtHJO/FfRLaxfAQUUUECBoRBwgDUUisZQQAEFFCi8wNRF+VcRG8+9emHhMQRQQIHaD4iTKj+nlb/qOSzul0QBBRRQQAEFBifgAGtwft6tgAIKKKAAk5fmS1sq3JzwSjkUUECBTQQqBF/rfw4HrJoc65VRQAEFFFBAgW0XcIC17XbeqYACCiigAAddnztW1tAT8KaEkiQKKKDAFgKPBFzd1s4HlnfEBnUUUEABBRRQYNsEHGBtm5t3KaCAAgoowKQluX1LchnQQTJWEgUUUOCpBALuJTinrY0rHWK5RxRQQAEFFNg2AQdY2+bmXQoooIACBReY3ZXjfwfHJrwf2LXgHJavgALPLvCThA+ufTE3r94v+p/9cq9QQAEFFFBAgU0FHGC5HxRQQAEFFBigwKSbsq38Gw6K4EzgTwd4u5croEBRBZKvU+b9+/yCWzs7o1pUButWQAEFFFBgWwQcYG2LmvcooIACChRWYGJntmy/O28hmJ/wpsJCWLgCCmyLQO1Q9x76+VDP4fw3EbktQbxHAQUUUECBIgo4wCpi161ZAQUUUGDbBDJj6hL+nOTcgMmAf45um6R3KVBYgYC11eTqMWU+ct2suKuwEBaugAIKKKDAAAX84j1AMC9XQAEFFCiqQMaUpexeqnIqySygragS1q2AAoMWuJsql2zo56ovvTN+O+hoBlBAAQUUUKAAAg6wCtBkS1RAAQUUGLzA/l35vDY4huR4gp0HH9EICihQaIHgJ489xXlWexs9yztiXaEtLF4BBRRQQIGtEHCAtRVIXqKAAgooUGyB/btyfGvy9tLjh7bvXmwNq1dAgSEU+FZWOHntL/na6k7fTDiEroZSQAEFFGhCAQdYTdhUS1JAAQUUGDqBoxZk633tvLUafAx4zdBFNpICCigAJP9GK8f3HMpPPNTdHaGAAgoooMDTCzjAcncooIACCijwdAKZMW0Rf0aJhcDrhVJAAQWGWiCgD7i2mpy6Ym7cPdTxjaeAAgoooECzCDjAapZOWocCCiigwJALTF6Yu5ZbuCqSAxJKQ76AARVQQIHHBdYCH40+PtZ9ZKwRRQEFFFBAAQX+WMABlrtCAQUUUECBpxCYcXGOXb8LF2ZyFDBGJAUUUGCYBR7M5F1r7+ALnoc1zNKGV0ABBRRoSAEHWA3ZNpNWQAEFFBhugWmL8mgeP/dq7HCvZXwFFFDgCYGHso+JK46MHyiigAIKKKCAApsLOMByRyiggAIKKLCFwNRF+cYIVvvklVtDAQVGQeDB9nZ2X94RvxuFtV1SAQUUUECBuhVwgFW3rTExBRRQQIHREDhkab50Q4X/CWgdjfVdUwEFFAj4UVs7b1jeEevUUEABBRRQQIHHBRxguRMUUEABBRR4QmD6Ffl82vhqwitFUWArBKo8/ga5/if/M6CatRuToESQtPD4MLQ1oMWXAWyFqpds3EGZXBm9HN9zdDwqiQIKKKCAAgo4wHIPKKCAAgoosFFg2jX5XPq5ApgKG4cOfhR4KoHa0Kr2xrjfAneR/DhL/LwEP6r2c+eGMr8rl+jdUGLs+Ao7ZpU9Ingt8KoqvDpgV2BnYDv/j0Q32LMIPEpySv8uXL5qcqxXSwEFFFBAgaIL+ARW0XeA9SuggAIKMGlJbt+anJjJ8cD2kijwFAIbgPsSbivB16LEtTfOip8MVOqgpblPtUJHwpsS9oxglyee0hpoKK8vhsCvCY5e8yJWrN4vak/6+VFAAQUUUKCwAg6wCtt6C1dAAQUUqAlMXJjtE8rMfOwHX2eTvEAVBTYVqP0kkOAe4D9JvtDWzo1DcS5Rbd9tX2Z2BtNIXs/jT2b5UeCPBZL/ocI/7fP/+I/Ozqg9AehHAQUUUECBQgo4wCpk2y1aAQUUUGDj8KozW8a/jMmlEhfWfuKligKbDa+CtdXk2yVYli18vuewuH+ohQ5Ylju3redw4JCEvUnGDvUaxmt4gQrB1xOOWzGbH0JsPGbNjwIKKKCAAkUTcIBVtI5brwIKKKDA4wKdWZqyJ28uVbmQ4A2eR+TG2ELgf0lWVKp88i9/yQ+H88mXoxZk673jeR1V3gtMBp5jNxTYcpiayeeBs3vmxB3qKKCAAgooUEQBB1hF7Lo1K6CAAoUXyJjSxatLcBYwBWgrPIkAmwrcCSwsV+i6YV7U/nlEPgddnXtWgmMIDgVeOCKLukjjCAT3PfYSgM9kmU8Mx9OAjQNhpgoooIACRRVwgFXUzlu3AgooUGCBSUvyRa3J+zOZB+xUYApL31IguD2qXFYOrr1+Tvx6pIEOWZIv6q/wTkocmcmLRnp916t7gTtJLqCXxT1Hx6N1n60JKqCAAgooMIQCDrCGENNQCiiggAL1LzBjWe7Q27txcHWiT7nUf79GMsOEeyO4tL2NK5Z3xG9Hcu1N15q6KF8YJd5LcgSwy2jl4bp1K/BTgg+veRE3+mbCuu2RiSmggAIKDIOAA6xhQDWkAgoooEB9Cky6LNtad+TgDM4l2aM+szSrURJ4OJIuWpnffVjcN0o5/H7ZqYvyJRHMB/4BGDfa+bh+/QjU3oyZwTer8KGVs/ga4aHu9dMdM1FAAQUUGE4BB1jDqWtsBRRQQIG6EejszNKtL2EiLVwKvKZuEjORehDYQPLlUoVjbjwiflUPCdVymLI09yhXWJCwH1Cul7zMoy4ENgDXU6GzZ178rC4yMgkFFFBAAQWGWcAB1jADG14BBRRQoA4EMmPK4o2Htl9KMpGgVAdZmUJ9CGTAf7WUmXbdzPhlfaT0hyymdOWfloPPZW3omvi9rd4aNLr5PBJwWRkuGY3z2ka3dFdXQAEFFCiigF+Eith1a1ZAAQUKJjB5Ye5abqEzkiMSWgtWvuU+s8D9tPCWnsPq9CmWzJi2kP1oZTHJC2ymAlsIrAXexzqu9VB394YCCiigQLMLOMBq9g5bnwIKKFBwgf27cnwb/FPAhQ6vCr4Ztiw/6M8KU1bM5V/r+RyhzszSdxbznoDzgPF2UYEtBB6tJgeOG8styzuioo4CCiiggALNKuAAq1k7a10KKKCAAsxYluV1fRwQFVbKocAWAhnBWd2z46xGkZnelYsSZoE/gW2Uno1gng+U+vnrG+fx03oexo6gh0spoIACCjShgAOsJmyqJSmggAIK1AQypi/idQnfJGjTRIFNBKoR3Ng9Ow5pNJVpi/ObJG8Az8NqtN4Nd74B36CVGd2Hxj3DvZbxFVBAAQUUGA0BB1ijoe6aCiiggALDLnDgVfniagv/Duw+7Iu5QCMJZMK3xraz3/KOWNdIiddynXhLtkz4Ff8FvKrRcjff4RcIuOLhdj6wuiNqZ2P5UUABBRRQoKkEHGA1VTstRgEFFFCgJjD9mnx+9rGQYJIiCmwh8OP+9fz9qn+KuxpVZvKifGU5uBl4aaPWYN7DJ1CFEx+p8MnV86J3+FYxsgIKKKCAAiMv4ABr5M1dUQEFFFBgGAVmLMsdetdzOsmJw7iMoRtT4PaoMq9tHF9v5MOua2e7re/lkITLgF0bsxVmPZwCCTPX3s6y1Z3RP5zrGFsBBRRQQIGRFHCANZLarqWAAgooMKwChy/M9gfKvCvhvID2YV3M4I0mcB9wxnpYevOceKTRkt8y39rbNduTD2RsHNRu3+j1mP8QCyS/jRIz976Nmzs7ozrE0Q2ngAIKKKDAqAg4wBoVdhdVQAEFFBhqgY1PpWzg0Ew+RvLcoY5vvIYWWJPw6VILF3cfFrVBVlN89u/K57XDWQlHAGOaoiiLGCqB2tDqB1nmmBUz+TZEDlVg4yiggAIKKDBaAg6wRkvedRVQQAEFhk4gM6Yv4YCNw6vHD7f2z7eh023oSAl9AUuBs3vmxB0NXcxTJH/QtfmySh8XAB3u+2br7qDrWU+wIuCU7tnxi0FHM4ACCiiggAKjLOAX/FFugMsroIACCgxeYMrS3KdU4XzgrT6JMnjPJoqQEfRUktNWzonam/ua7tPZmaVvv4y9yiUuSHhb0xVoQYMVeDiShdnK/J7D4v7BBvN+BRRQQAEFRlPAAdZo6ru2AgoooMCgBQ5Zmi/tq/DhJ55AmTDogAZoGoGAb5Cc3jaWrzbyoe3P1pBJN2VbywNMiuTshNc+2/X+9wUTSH5DcCnr+FjP0fFowaq3XAUUUECBJhJwgNVEzbQUBRRQoGgCBy3MHStlTiR5F8HORavfep9BIPkfgvPa2/nc8o5Y1+xWG9++2cu8hJMCdmv2eq1vwAK/TDh3bDtXNfMwd8Aq3qCAAgoo0FACDrAaql0mq4ACCijwpMCky7KtvAPH1M53IdhVGQV+L5A8QPDJaplLVs6MB4siM+mq3KWlzElR4phMtitK3da5VQJVku9FiTO7Z3ET4aHuW6XmRQoooIACdSXgAKuu2mEyCiiggAJbI9CZWfpeFzOqwXyCPUkPbd8atyJck9AbwbWUOamIZ/5MXpi7lsp8JILDSFqK0HNr3GqBDZl8sQSd3XPje1t9lxcqoIACCihQJwIOsOqkEaahgAIKKLCVArU3Di7lTZmcR5W/Injs72N+FNgoUI3g5nIy9/o58euimky6Ovcsl/hkBPs73C3qLnjaunsDrqwm56+YG3ero4ACCiigQCMJOMBqpG6ZqwIKKKAAB12de1aCToJDgbIkCjwpEPC9UpUZNxwetxVaJTOmLWa/gEs81L3QO+Hpit/w2F8AOunjE91HxhqFFFBAAQUUaBQBB1iN0inzVEABBRTggGW585hejn/sSZsz5FBgU4GAu6pVjlxxeNyszOMC05bku6lufEOnZ8S5KbYUWF8KjrrrUa699ejok0cBBRRQQIFGEHCA1QhdMkcFFFBAAaYtyHG0MzuDTweeeeWW2Ezg4dobB3tmx0d02VxgWldeChwBHuru3thcIOEuqhw5dhz/5psJ3R0KKKCAAo0g4ACrEbpkjgoooEDBBWYsyzGPrGNSOVgMTCg4h+VvIhDQl8GSntlRG9L4eQqBqYtyeQTTgTECKbCFwL+3BMf/xW38qLMzquoooIACCihQzwIOsOq5O+amgAIKKMCMZVnu3cDro8rVCa+SRIFNBGrvn/zXntlxgCpPL7B/V45vg5UBb0l86YF7ZXOBTBaWK5x54zzuIiL1UUABBRRQoF4FHGDVa2fMSwEFFFBgo8ATb1S7NGCKJApsIfCt9nb+dnlHrFXmmQWmLcw/ocwXgD/TSoGnEDi7vZ2Ll3fE79RRQAEFFFCgXgUcYNVrZ8xLAQUUUIApS3OncpVzM3mXHApsIfCzSomOm2bFj5TZOoEpi3N6OflMwm5bd4dXFUigSvLeNS/h8tX7RX+B6rZUBRRQQIEGEnCA1UDNMlUFFFCgSAITF2b79i2cksmZRarbWrdCILgnkw+ObedzHj69FV6bXDKtK99HcjbhWXIDk2v+qyP4XfZzeM8v6cbzsJq/4VaogAIKNKCAA6wGbJopK6CAAs0usPHcq3UcTVB7g1pLs9drfQMSWENwLo/y8Z6j49EB3enFTLwlWyb8is6EkwJaJVFgC4GfZXLEirnxTWUUUEABBRSoNwEHWPXWEfNRQAEFii6QGdO6mE6JT5G8oOgc1r+ZQD/JJRv6OP9L74zfarNtAm9bljuMXc9HgKOoHYPvR4FNBZKbo8Sx3bPjF8IooIACCihQTwJ+aamnbpiLAgoooABTl+ZfRpVLSf4S35jmjviDQO3taItK/Zxx4xHxK2EGIZAZU6/h5VHhYmDqICJ5a3MK9BP8S0uV910/Nx5ozhKtSgEFFFCgEQUcYDVi18xZAQUUaFKBg67Nl1X6uKT28kFgTJOWaVnbIJDJlzI5bdw4vu+5V9sAuMUtRy3I1nvH8hbgImCvwUc0QpMJ1H6e+9nnVDj56nnR22S1WY4CCiigQIMKOMBq0MaZtgIKKNBsAjOW5Q7rerk44B3AuGarz3oGIZD8mBKn9z/IqlXHxfpBRPLWTQRmLMuxvb28PeAjvpnQrfEUAr8JuKitnX92aOz+UEABBRSoBwEHWPXQBXNQQAEFCi4wY1mO6e3lLOAYYMeCc1j+pgLBfQHze5OFN8+JR8QZWoEZy3K73l7e+djLEuYD44c2utEaXKBK8vMIzrhxNp+PiNrPeP0ooIACCigwagIOsEaN3oUVUEABBWoCnZ1ZunV3jiE4heBFHirtvthEYF0GF41t48LlHbFWmeERmLI0d4oKHww4CSgPzypGbUiBoPbihK9nctKKufGthqzBpBVQQAEFmkbAAVbTtNJCFFBAgUYUyJjSxf4lmB+wd3poeyM2cbhyrgZc2dbOB5d3xO+GaxHjPi4weWm+tKXC2RnMdojsrthMoDbEgutagxOumxV3qaOAAgoooMBoCTjAGi1511VAAQUU4MAl+WfV5IKNb0JL/DPJPfG4QJAkq4D39MyJO2QZGYEpi/MtJTif5M0js6KrNJBAleAzsYFTuo+MNQ2Ut6kqoIACCjSRgH9ZaKJmWooCCijQSAIHLM7dWpOzAv6pkfI212EXyAh+UA1OXjErbh721VxgM4FpXTk74MwM9nCo7ObYVCCCtSTnPVzhY6t9M6GbQwEFFFBgFAQcYI0CuksqoIACRReY8qncKSbw/khO9cydou+GzerPxwaad2dyfs/c+JQyoyNw4KI8pRp8ANhldDJw1ToWuJ3Y+EbQ63wjaB13ydQUUECBJhVwgNWkjbUsBRRQoF4F9u/K8WOg9pTHucDO9ZqneY2KwEMEn+qZHaeNyuouulGg9mKF7+7BhZkcRTBBFgU2FYjgq5mcsebFfH31flE7H8uPAgoooIACIyLgAGtEmF1EAQUUUKAmMOmybCvvyP6l4IJM/kwVBTYR6CVZss8cju6MqCozugK1pyRL2/EJ4BCgfXSzcfW6E0iWlcqctdcv+Flnp/97rbv+mJACCijQpAIOsJq0sZalgAIK1JvAjGVZXt/LXgnnAX9Xb/mZz6gKVICbqmXmrpwZD45qJi7+e4Hpi/LPM7iM4M0kLdIosKlAwCf7SlywaiZ3E5HqKKCAAgooMNwCDrCGW9j4CiiggAKQGQddzUurZeYnzJREgS0EvhfJ4d1z44fK1JfA9MU5JeFjjz0d9/KN74f0o8ATAgF9BOeU+vn4DfPiIWEUUEABBRQYbgG/iAy3sPEVUEABBThoYe5YLdGZwfFyKLCZQHBPJsesmBM9ytSnwPRFeUQGFwE71WeGZjWKAvdnlZMqz+OaVZNj/Sjm4dIKKKCAAgUQcIBVgCZbogIKKDCaAkctyNZ72jkhgjM9S2c0O1GXa6+NEsd3z4qr6jI7k/q9wNTF+YGAj/hTQjfFUwj8JJL3dM9htT8ldH8ooIACCgyngAOs4dQ1tgIKKFBwgcyMAxfz9mTjYdDPKziH5W8qENTeXvahfWZxsYe21//WmLEsx6xfz/xMTvSnhPXfr1HI8GsRzOueHb8YhbVdUgEFFFCgIAIOsArSaMtUQAEFRkPgwK58QxUWAn86Guu7Zt0KZJS4+NExnPPljvhd3WZpYpsJHHxdPq9/LQsIDiQ9D8vtsblAwJdKFd7heVjuDAUUUECB4RJwgDVcssZVQAEFCi5wyNJ86YYKnwt4Q8EpLH9TgSCzSk+pxAnds7jNnxw10PbIjOldvC6DK4G9GihzUx0ZgYxgaVsbRy7viA0js6SrKKCAAgoUScABVpG6ba0KKKDACAlMWpLbtyTLSd4GlEZoWZdpDIEflIL3/u42vrm6M2o/I/TTQAIzlmV53aNMjBJLgF0bKHVTHRmBRzL56NixzF/eEZWRWdJVFFBAAQWKIuAAqyidtk4FFFBghAQ2Hto+ls8EHOah7SOE3jjL3Bfw7rZ2VviERuM0bctMa+dhbdjAlGqVpcDYxq3EzIdcIEhy45tFT1gxh2U+YTnkwgZUQAEFCi3gAKvQ7bd4BRRQYGgFOjuz9N09ODHhg8Bzhza60RpaIFhH8t72dhY7vGroTm5Mfv+uHD8mmRfBpT5l2fj9HOIKEvhptcyclTPj1iGObTgFFFBAgQILOMAqcPMtXQEFFBhagYxpi5hC8DHg5UMb22iNLBBQBc5sW8Mly4+NtY1ci7n/QWD6tfkC+jg14d2+mdCdsZlA7ay75Fu08w8rOuJudRRQQAEFFBgKAQdYQ6FoDAUUUKDoAplx0DX8RbXCZ9JD24u+G7asv3YOzuLWMp3XzYxfitNcAlOvyr0pc2EEf+MQq7l6OwTVVEhWlKsc7psJh0DTEAoooIACvgLZPaCAAgooMEiB2vDqX3hppY9PApMHGc3bm0ugQvD1qPDh7sPjq81VmtU8KTC1KycHfBT4U4dY7ostBNZEcEVbG2cu7/DpS3eHAgoooMDgBHwCa3B+3q2AAgoUXmD6Nfn87OfcgDkJrYUHEWCjQO1ngwk/LyWdN86Nz8nS3ALTl+SsrHIuwYtJ/w/S5u72AKtL7nzshR4XtI+la3lHrBvg3V6ugAIKKKDA7wUcYLkZFFBAAQW2WWDK0twpKhwbcLyHtm8zY/Pd+OSbyOD8FXOi9mSenyYXmHhLtmx/F8dllVMIdmnyci1v4ALfKcGZY9r5si9xGDiedyiggAIKPC7gAMudoIACCiiwTQK1t5C1VTiEEqcS/Mk2BfGmphTI5LcRfOKedcy/9ejoa8oiLeqPBCZdlbuUy5wWwTxge4kU2FQg4EvVMmeMbeXW5R1ROxvPjwIKKKCAAgMScIA1IC4vVkABBRSoCczozDHrXs5bIjmL5M2qKLCJwCOZfK4yllNWdcRvlCmWwMFd+Zr+4BySv3/sZ2Ptxareap9FIBM+Vwo6u2fxcyJSMQUUUEABBQYi4ABrIFpeq4ACCihAZ2bp+9fw5/1V5kcyRRIFnhQI6KvCv5eSE7rnxg+VKabAtK6svZHwAmBvoFxMBat+SoFgXSSfoo+Lu4+Me1RSQAEFFFBgIAIOsAai5bUKKKBA4QUyDlrIS6tlzkqYBZQKTyLAkwK1pyl+Vk2OWzk3vixLsQWmLsqDI7gI2N0jK4q9F7asPuDeapULxo5j0fKO+J06CiiggAIKbK2AA6ytlfI6BRRQQAFmLMudN6zjhGpsPLR9vCQKPCkQ8EAG7+yZHTeoogCZMWUp80pVPgrsrIgCWwj8jOSU/l344qrJsV4dBRRQQAEFtkbAAdbWKHmNAgoooAATF2b7hDIzgXOB50uiwCYCFcq8s2cmi8BzbdwZjwvMWJZje3s5BTgZaNNFgS0EbqXCu9rH810PdXdvKKCAAgpsjYADrK1R8hoFFFCg4AKdnVm6dQ8mJlwesGfBOSx/c4HM4KzKc7jAJyncGlsKHNyVz+sr8YmoMkMdBbYUCPiP6GfmjUfEr9RRQAEFFFDg2QQcYD2bkP+9AgoooACHXJV79JVZSfAnciiwhcAXWpKjr58bDyijwFMJTOvK3RO6A16jkAJbCFQyuT52Zm7PtHhUHQUUUEABBZ5JwAGW+0MBBRRQ4BkF9u/K8W3wH8BeUimwmUDwg4C3d8+OXyijwDMJTLo692wp8U1gF6UU2EwgWR8lLtj7Ns7u7IyqOgoooIACCjydgAMs94YCCiigwNMKHLUgW+8dy7KA6ekbB90pmwv8JpIDuufwfcJzr9wczy4wuSv3LcPXgTHPfrVXFEzgEYK5PbPjCwWr23IVUEABBQYg4ABrAFheqoACChRJoHbu1Xf34NQqnBHQWqTarfWZBSLpC5g8Ziy3ePiyu2VrBWoD8bvH8g8lWIoD8a1lK9J1j5TL/NUNM+P7RSraWhVQQAEFtl7AAdbWW3mlAgooUByBzJi2hAOzytUR7FCcwq30WQWCfpKToo/Pdh8Za571ei9QYBOBgxbmjtXg9CzxPqAsjgJbCNzXX2LfVbPiLmUUUEABBRTYUsABlntCAQUUUGAzgdqTV9/ag9eXYRnwEnkU2ESgQvL5/uS0VYfHbcoosC0CBy3Ml1XKfBI4wCHWtgg28T1JldpZaWUO6jks7m/iSi1NAQUUUGAbBBxgbQOatyiggAJNK1B78upqXpUlro0Sf0HinxNN2+wBF5YBt1aC41fOjm8M+G5vUGATgalX5d7RwhUBr/N8PbfGFgKPRNBV2o5Tbzg4HlJHAQUUUECBJwX8i4l7QQEFFFDgCYGMqYt4cQSXAZM8aNmNsYXAL8vB+26YHTcoo8DgBTKmdbEf8CmCVzosH7xok0W4jyofWV/i8pvnxCNNVpvlKKCAAgpso4ADrG2E8zYFFFCg2QQmXZW7tJQ5ieBIYKdmq896BiXwIMlHop9Pee7VoBy9eROBSZdl25id+MdMzk14kTgKbCoQ8HPg9L6H6F51XKxXRwEFFFBAAQdY7gEFFFBAAaZfmROqrcwJOBF4mSQKbCKwPoLrs8xZPYfFz5RRYCgFDu7K5/XDsQHHJjxnKGMbqwkEkluzzMljx7DaN542QT8tQQEFFBikgAOsQQJ6uwIKKNDoArWnIMo7MI3gjIDXNno95j+kApnwrVKZD3XPjFuGNLLBFHhCYPrifBXJqZm8nWCcMApsIlAB/rVa5fSVc/kuEamOAgoooEBxBRxgFbf3Vq6AAgowY1mWH13HX8/Ln/EAACAASURBVEcwP+BNkiiwqUDAndXg7BWzuNq/OLo3hlNg2sJ8fZQ5B/ibhNbhXMvYDSfwCMm11RbOXzkzbm+47E1YAQUUUGDIBBxgDRmlgRRQQIEGE8iM6dfy2uznLGCar7NvsP4Nf7qPECxpqXLa9XPjgeFfzhWKLjB1cU6M5MKAfXwzYdF3wx/Vfx/w8f5+Ll91RPxGHQUUUECBYgo4wCpm361aAQUU4MBr88XVvo1nXh0BbCeJAr8XSKoZ/GcpeVf33PihMgqMhEDtidD1vRyScB7w8pFY0zUaSuCOKHFWb5XP+2bChuqbySqggAJDJuAAa8goDaSAAgo0jsBBC3PHSjCPEqc89hr75zVO5mY6QgJ3UOLYnlmxaoTWcxkFNgrs35XjxyTvjeAE4LmyKLCZQPKzKPH+h1/El1fvF/3qKKCAAgoUS8ABVrH6bbUKKKAAk27KtpYHmBrJJb663g3xRwLJowSX9z/EKb663v0xGgKTrspdWlq4EHgH0D4aObhmXQt8K1o5pvsdfN+z+eq6TyangAIKDLmAA6whJzWgAgooUL8CnZ1Z+tYevL6cLCN4Sf1mamajJFB7w9cPW2D/6+fEr0cpB5dVgEMW5259tX9PJW8iKEmiwO8Fgv4Iro8yJ9x4aPxKGQUUUECB4gg4wCpOr61UAQUUYPLSfGmpSk8kr5VDgT8SSB4K+JvuufE9dRQYbYHp1+Tzs59vgcP20e5FHa6/nuSfY0cu6D4w1tRhfqakgAIKKDAMAg6whgHVkAoooEA9Csz4ZG63fgeWZJXpgP/+r8cmjXJOmXxixRyO82c5o9wIl/+9wJSluUepyk9JxsiiwKYCCX0E89bexudWd3oelrtDAQUUKIKAf4EpQpetUQEFFMgsTe/ijAzOFEOBpxIIuKt7TrxYHQXqTWDqkjyYZFkkLfWWm/mMvkAmb1gxN2pP6vlRQAEFFGhyAQdYTd5gy1NAAQU2eTX9MjUUeCqBhN5S8Nru2fELhRSoR4Hpi/JCgvcltNZjfuY0egIBazdUeO0X58Wdo5eFKyuggAIKjISAA6yRUHYNBRRQYJQEaoe2f/dl/FWW+ApQHqU0XLaOBQKqCQt75sQ76zhNUyu4wLSeHMdDLAWm4pNYBd8Nf1x+JN9vKTH5utlxrzgKKKCAAs0r4ACreXtrZQooUHSBzJi6hD8nWRHwoqJzWP/TCCQ/jn7e2H2kByG7R+pboHaoe7Wf5SV4c+KbCeu7WyOeXZJc3QIfvH5uPDDiq7ugAgoooMCICDjAGhFmF1FAAQVGXuCgq3PPSonLgbf69NXI+zfIimuiyqFt4/ji8o6oNEjOpllUgcyYsphXl6CL4HWkL6Mo6lZ4mrrXPfZ03vz2sVy2vCPWaqOAAgoo0HwCDrCar6dWpIACCjB5Ye5aKnNGwBxgvCQKPIVAZrIwWzhx5cx4UCEFGkFgxrIc07uB/aPKJQl7NkLO5jiiAvdHcnLf71i66rhYP6Iru5gCCiigwLALOMAadmIXUEABBUZW4G0Lcoex7RxL8H7guSO7uqs1jEDwk2ry9pVz4qcNk7OJKgBMWZo7laocSfJB4HmiKLCZQHA7VT7QPpYVPlnq3lBAAQWaS8ABVnP102oUUKDgApNuyraW+5kLnAa8pOAclv90Asl6glOijys9+8pt0ogCB16VL662cCJwpE+ZNmIHhzXnSsL/LVU5qXsu3yAih3U1gyuggAIKjJiAA6wRo3YhBRRQYHgFZizLct96plWS+QR/5vkww+vdsNGD2mHH15ernHTD4XFbw9Zh4oUXOHhRvrI/ODNhRkBr4UEE+INA8ihwI1XO7pkXP5NGAQUUUKA5BBxgNUcfrUIBBYoukBnTF/GmLHMWufHQ9paik1j/0wr8OuA9u67jhsuPjj6dFGhkgamLc2+qnBfB/uCh7o3cyyHPPfltBJ+lhYu7D4v7hjy+ARVQQAEFRlzAAdaIk7ugAgooMPQCU5fmK6LKh0g6/DnN0Ps2UcQqycUtwUevnxO/bqK6LKWgAhNvyZbt7+KAhLNJ9i4og2U/vcD/BlzU1s4C30zoNlFAAQUaX8ABVuP30AoUUKDgApOuyl3KZd4bwXuAnQrOYfnPIJBwKxVOXDEvVgulQLMI7N+V49uSIyhxIunZf83S16GqI+DOhDPuWce/3OpTp0PFahwFFFBgVAQcYI0Ku4sqoIACQyMwrSfHxUPMzeQc4DlDE9UoTSqwIeGcWMfFPUdH7XwYPwo0jcBBC3PH/hY6I5kHbN80hVnIUAgkwfdKVU7e6w6+0tkZ1aEIagwFFFBAgZEXcIA18uauqIACCgyJwMTObJmwO1My+HTAbkMS1CBNK5BJd7nMh26cFT9p2iItrNACtSFWtYUrMpkOjCk0hsVvLhD0AyuocHrP4fFjeRRQQAEFGlPAAVZj9s2sFVCg6AKZMbWL10dwlW8cLPpm2Kr6H37sLW3n7n07F/n0wVZ5eVGDCkxZmjuVKqwMeMNj52KVGrQM0x4OgaA/kktp4aMe6j4cwMZUQAEFhl/AAdbwG7uCAgooMOQCUxflSyL4GHDIkAc3YLMJJLAo+jiu+8hY02zFWY8CWwpMXpSvLAergD3UUWBLgVKJY9dVWXTznHhEHQUUUECBxhJwgNVY/TJbBRRQgNoTBlHhpIBT5FBgKwR+VTv7asWcuGIrrvUSBZpCYNriPDSSj6dnAzZFP4e4iEopmTFmLCuXd8SGIY5tOAUUUECBYRRwgDWMuIZWQAEFhlrg8IXZ/tsyhyd8eqhjG6/5BBL6Arr2uZ2j/Olg8/XXip5ZYFpXzgdOANq1UmALgfur/Rw4bjv+7/KOqKijgAIKKNAYAg6wGqNPZqmAAgrQ2Zml7+7J1ITrSMqSKLAVAv9NhVN65sUNW3GtlyjQdALTFuU1BDOAlqYrzoIGJRDwjWqZw1fMjP8ZVCBvVkABBRQYMQEHWCNG7UIKKKDAIAQyY/Ji/rKc9BDsMohI3locgUdrT191z4l3FadkK1Vgc4HMjOlLWEny94Dfe90gWwospoUP9BwW90ujgAIKKFD/Av5BXv89MkMFFFCAaQvzTyixmGBfORTYCoEk+Qll5vXMim9vxfVeokDTCky/Nl+QG/gCJd5AOsRq2kZva2HBee1tnL+8I9b+f/buPD6uut7/+OtzJmmSlpZNZRFlV6+4sLihouXKBdsmaYskAm2SFpSyCcgqYGEKFJBVEdAiEJq0IIlKm0lbRe+l9wr3qoj4c8WFyiKLoqylSZrM+fw6oWhbis0yy5lz3vnj3sdDzvl+P+/n90Amn5n5fkc6hO6TgAQkIIHiCKiBVRxnzSIBCUhgxAK5P77Cfq4wmDHiQXRj0gRypw3ekGm2c5MWXHklsKlA2j14oJ2JGDfivF1CEthIwMg1/E+vruZGbequZ0MCEpBAtAXUwIr2+qg6CUgg4QKTFvmEiixzMT4HVCWcQ/GHJuBm/DYYYMqS2fbI0G7RVRKIt0BDh9f09tBMwDycHeKdVumGK+DwrIWcfEALd6bNwuHer+slIAEJSKA4AmpgFcdZs0hAAhIYtsCk67yqchtOxTjPna2HPYBuSKrAGoyLMk32paQCKLcENicwrdW3yaY4xeFsg3FSksCrAgahw69SxqlLmvhvMJeOBCQgAQlET0ANrOitiSqSgAQkQEOHp/rWMtNDLgLeos2H9VAMVcDh4ewAB644xp4Z6j26TgJJEZjc6jumUpwDnKyTCZOy6kPOudbh+6mAs5fOtN8M+S5dKAEJSEACRRNQA6to1JpIAhKQwFAF3KYu5BOhMR9jf1zHvw9VTteRtYDjumbarbKQgAQ2I+Butbezl4WDXyU8Um8O6CnZROBlhzvDLOcvn21PS0cCEpCABKIloAZWtNZD1UhAAhKg7jbfx1Jc7M4koFokEhiqgDmPv7iad648SadpDdVM1yVPYOI9XjH+cT5icLHDQckTUOJ/JeDOC0HATVs789qb7WVpSUACEpBAdATUwIrOWqgSCUhAAgx+vaWCNM5MtEeLnojhCYQ4tZkWWzG823S1BJInMLHVq7euoDF0LgT2SJ6AEm9B4GlzrnzxrVy38mAbkJYEJCABCURDQA2saKyDqpCABCTAoW0+boxxjjmfB7YSiQSGJeA8tlMve900x/qHdZ8ulkBCBeoyPpbnBv97eyawTUIZFHvzAp7b1B3nwu4/sZS0TibUgyIBCUggCgJqYEVhFVSDBCSQeIHBr7T8mWNxLgbemHgQAQxLIHeCVuh8vLvF7h3WjbpYAgkXaOjwmr5eLnU4AahKOIfibyyQNfgBlXyx6yj7qXAkIAEJSKD0AmpglX4NVIEEJJB0AXerW8wnLeQqh3cmnUP5RyTwWPVL7NOpva9GhKebki0wsdW32SrFTQafAoJkayj9RgKGm3NrRUD6OzPtz9KRgAQkIIHSCqiBVVp/zS4BCSRdIHci1iLek9tMGKcu6RzKP3wBc8Ig5BP7Psr/pPU1l+ED6g4JANPb/b0DITdgHKgmlh6J1wgYl67t4+rvfcaelY4EJCABCZROQA2s0tlrZglIIOkCueZVG28JjHMdjk86h/KPUMD5dTbkEB35PkI/3SaB9QK1C/3TFgy+mbAXoNfIejL+IeDQi3HWWqf1bp1MqCdDAhKQQMkE9Mu5ZPSaWAISSLrA9IW+fT+cbEY66RbKPzIBg/4QPvVUD999QJu3jwxRd0lgA4G6dj/HQ86wgDfgamLp4dhI4DF3Tsu+wPIVp1ifbCQgAQlIoPgCamAV31wzSkACEhg8cbDKmYnxFW0crAdiFAL3hwMcuewYWzWKMXSrBCSwgUBtu19tzhxgnGAksKGAwQ89y9kvPcpPV6ZtQDoSkIAEJFBcATWwiuut2SQgAQkweOLgY3zSAr7mzi4ikcBIBHKfviLgmBf7+dbK2dY7kjF0jwQk8FqB4xZ45VNjuRXnKCAlIwlsInBnKuT8JS2swsylIwEJSEACxRNQA6t41ppJAhKQwKBAbbvvb69sFvwhkUhgxALG/aFzzLJm+9WIx9CNEpDAZgXq7/Cd6WeRw8EiksCmAmZcnwpJ39Vif5eOBCQgAQkUT0ANrOJZayYJSEAC1C70N+de+ALTxCGBUQgMmHFmVRW3dDba6lGMo1slIIHXEahb5B8i5Dbg7UKSwIYCBiFOesdeLr9J+w/q4ZCABCRQNAE1sIpGrYkkIIGkC0xa5BMqwsE9r2Yl3UL5Rydgzs895ITMbPvR6EbS3RKQwL8SqLvNG8m96WC8UVIS2KiJZbwQwinve5hF6bSF0pGABCQggcILqIFVeGPNIAEJSICGDh/T08vFAZzpEIhEAqMQyJozr6qG6zob7YVRjKNbJSCBLQg0dHiqr5fPunM1xliBSWBDAYeHDY7LNHGP9sPSsyEBCUig8AJqYBXeWDNIQAIJF0i7Bw+2c0IIFwPbJpxD8UcrYPzOjVO6Z9rdox1K90tAAlsWGDw1Fk7DSONUbPkOXZEkAYP/9QqOzRxtDyUpt7JKQAISKIWAGlilUNecEpBAcgTcra6NT5pxrcPbYN2fQPqRwMgFQoerPMXly2bYcyMfRndKQAJDFnC32jZ2Xvcf7zTGsfrv+JDlknJhFufuPmPW3c3216SEVk4JSEACpRDQH1KlUNecEpBAYgSmtPm7Avja4ImDeuc+MetewKB/deOs7iZrK+AcGloCEthEIPdVwjVr2DdIcQW5kwldb0boIdlAwOnzgDtrqji+s9F6ZCMBCUhAAoURUAOrMK4aVQISkEBu36sde3v5hsNhBpUikcCoBAw352b6mNv1WfvLqMbSzRKQwLAFDljglTvV8B/G4GEcew17AN0Qd4Fngeurq7mos9GycQ+rfBKQgARKIaAGVinUNacEJBB7gbqMj+U5bsA5CqMq9oEVsBgCLxtc1NXEldosuBjcmkMCrxU4boFXPlXDkev2M8w1sbSnoR6SDQXcYRVwQaaJO8zMxSMBCUhAAvkVUAMrv54aTQISkAAT7/GK8Y9zHnAqsJ1IJJAPAXe6goAzuprsj/kYT2NIQAIjExhsYlVxMgGXA2NGNoruiqWA4Tj3E3BqZqb9KJYZFUoCEpBACQXUwCohvqaWgATiJ7D+yPWGdcnSDm+PX0IlKomA04dxbabZzi3J/JpUAhLYSGD6Qt8+C3MxTnR9RVxPxyYCBsv6Q05dMSv3iSx9EksPiAQkIIF8CaiBlS9JjSMBCSReINe86unhQDMuAT6eeBAB5FPg/mzImctn2f/kc1CNJQEJjFxgcqvvm0pxMfBJoGLkI+nOGAqEhLRlnXOXz+YvamLFcIUVSQISKImAGlglYdekEpBA3ATSaQ8e3It3uDPPnSPilk95Sidg0O/Qmmm2OaWrQjNLQAKbE6ht8zpz5mG8B0hJSQIbCLwEXBuu5svLTrTnJCMBCUhAAqMXUANr9IYaQQISSLqAu01tZRevIPf1rjkOQdJJlD+vAo9ZwLyumXZrXkfVYBKQQF4E6tr8WOB8YDdAr63zohqTQYxVDpesdTrubraXY5JKMSQgAQmUTEC/ZEtGr4klIIG4CAzuhWKc4PAFYFxccilH6QUMQmD51jtwZPth+uOn9CuiCiSweYHahX6WBZyBs4OMJLCRgPEjNy6sGcPKzkZbKx0JSEACEhi5gBpYI7fTnRKQgAQ4tM3HVTpHBMZFwFtFIoE8Czxrzpe7Wiy3z45+JCCBiArULfCx1HAJzmcwxke0TJVVIgGHZRgX1FTx/zobLVuiMjStBCQggbIXUAOr7JdQASQggVIJ5I5Sf3IcH7Nw8Cj195WqDs0bWwEHHhwIaVwxyx6ObUoFk0BMBD7Z6rtVprgaqAXGxCSWYuRLwFiEc0GmiUcwnUyYL1aNIwEJJEtADaxkrbfSSkACeRLIbdp+/x68MwXXOhySp2E1jAQ2FOjFuCPTZMeIRQISKA+BqW3+wRBuAPbXfljlsWbFqtKdfoOvVMDld7XY34s1r+aRgAQkECcBNbDitJrKIgEJFE1gcqvvmEoN/pFyeNEm1URJE3jMnRndLXZv0oIrrwTKWaC+3T/pIbdg7FzOOVR7QQT+7nDhG7Lcctts6y3IDBpUAhKQQIwF1MCK8eIqmgQkUBiBScu9qvJvXO3GHJyKwsyiUZMskNu83Y2fVFfxUe2XkuQnQdnLVWDqQp/uxmKHmnLNoLoLJrCKgJMzM/iuvkpYMGMNLAEJxFRADayYLqxiSUAChRHIfXXwwT04OTQuxplQmFk0atIFzFjtIedlWuyrSbdQfgmUo8Dg18z3ZE7g5P4dTpVjBtVcUIFfkaUhM9seKugsGlwCEpBAzATUwIrZgiqOBCRQWIEp7T4lcG4GdizsTBo94QKPhyneu2yGPZdwB8WXQNkK1N/i46niMg85Ufthle0yFq5w42cV4zj0rsO1H1bhkDWyBCQQNwE1sOK2osojAQkUTGByq787lWIpsHvBJtHAiRfIfX0whBXdzZY7yUw/EpBAGQscvth37c9yK/DvZRxDpRdGwDFWDDzH4StOsb7CTKFRJSABCcRLQA2seK2n0khAAgUSmN7mbxqA/wT20TvpBULWsK8K9I5J8Z5vz7A/iEQCEihzAXerb+PdbtwF7FHmaVR+/gVyp81+pbqK87XfYf5xNaIEJBA/ATWw4remSiQBCeRZoOEar+ndjqWkOFibtucZV8NtTuCJTDNvAXPxSEACMRBwtymLODBwlgHbxCCRIuRTwHnWAk7pauJ2/Xc/n7AaSwISiKOAGlhxXFVlkoAE8ibQ0OFjenv5EvAZYKu8DayBJPA6AgGcurTZrhOQBCQQH4HjFnjl0zVMW/cV9IU6mTA+65rHJI9ayIyuFv5XJxPmUVVDSUACsRNQAyt2S6pAEpBAvgRyzas1Pcw0Y57BLvkaV+NI4PUEHHq7mxirP2D0jEggfgLTF/r22YCT3TkHqIlfQiUajYA5P88aRy9r4iH9DhiNpO6VgATiLKAGVpxXV9kkIIERC0y8xyu2epR/t4ArgfeMeCDdKIHhCBg/yjTZgcO5RddKQALlI1DX6u+wFBc6HA6MKZ/KVWkRBLI4dwdZ5iw9hj/r64RFENcUEpBA2QmogVV2S6aCJSCBQguk0x48sCsHWAVXufOxQs+n8SWwXiAE/iPTbP8lEQlIIL4CU9v9IHfmu3Gg9lWM7zqPMNmLua+ZVldzcWejPTPCMXSbBCQggdgKqIEV26VVMAlIYEQC7jb9TvbO9jPfnelAakTj6CYJDFfAeaa6hl07G61nuLfqeglIoLwEalu9zgIuMeNdDkF5Va9qCyzwmBnXjDdaF8+0XENLPxKQgAQksF5ADSw9ChKQgAQ2EKi/w3f2fs5cv2n7eOFIoFgCBjdVVfO5zkZbW6w5NY8EJFAagYYOT/X1MNONCzB2x9Fr8tIsRVRn/YXBJdtlydw223qjWqTqkoAEJFBsAf2yLLa45pOABCIrMGWxb2tZmgzOAN4a2UJVWOwEzFibgg/cNZNfaPPe2C2vAklgswL1t/h4KjjNjZOBN4lJAhsJOPcZzH3xrfxw5cE2IB0JSEACEkDv9ughkIAEJJATaOjwmp4epphxIfAuqUigmAIGv0nBwXc121+LOa/mkoAESisw7Q7fLTvABTgNwFalrUazR0zAgW435nY/zC9JW26fRP1IQAISSLSAPoGV6OVXeAlIICcwMe0VE3bjw6FxhRkflIoEii5gnFVdxQ3a/6ro8ppQAiUXmLbY982GrxwaYlBZ8oJUQJQEejBas31csfwzPKaTCaO0NKpFAhIohYAaWKVQ15wSkEB0BF7ZtP0d/Wu51uBQ9MnU6KxNcirpNefDXc38XF8fTM6iK6kENhSY0u4fTjlfB/bRpu56NjYReMacK7MV3Lxshj0nHQlIQAJJFlADK8mrr+wSkACTW33HVMClGDOAMSKRQAkE7s+maFg+wx4twdyaUgISiIhA7SI/lJDbDHaKSEkqIyoCxqNkOfslp2ulNnWPyqqoDglIoAQCamCVAF1TSkAC0RA4tM3HjXE+t24D7fMAnTgYjWVJWhWOc0J1DW36+mDSll55JbCxwMR7vGLcYzQH8FWMsfKRwIYC5jycDWgeW8WPOxstKx0JSEACSRRQAyuJq67MEpAA6bQHP9uDaQ43AduLRAIlEuhx59DuFu7T3iYlWgFNK4EICdRlfKw/y5fMOElfaY/QwkSnlF+lstQtmW2PRKckVSIBCUigeAJqYBXPWjNJQAIREpjW6vtmU/wXsG2EylIpSRMw/sfguK4m+13SoiuvBCSweYFJi3xCZUiXw8dlJIENBQxCN36wjXN4e7O9LB0JSEACSRNQAytpK668EpAA0xf69gPwe4ztxCGBEgp4Cloqq7mzs9HWlrAOTS0BCURMIPdJLJ7j18BuEStN5ZReIDS4av9VnJtOW1j6clSBBCQggeIJqIFVPGvNJAEJRECgboGP9Rp+aLB/BMpRCUkWcNZYwKe6muy7SWZQdglIYPMC6w8Z+S3GNjKSwKYCZszsmsntOr1Wz4YEJJAkATWwkrTayiqBhAusb15dlfvKFpBKOIfil17gJ6kUJy6ZYQ+UvhRVIAEJRE2gocNTvav5OBXcBUyIWn2qp+QCuU/uHnrAKn6oT2KVfC1UgAQkUCQBNbCKBK1pJCCB0gpMWu5Vqb/xGYPLdOJgaddCsw8KuDnnbG3cqH1M9ERIQAKvJ1B/i4/3MZwIfBFnK0lJYCOBkL+YcWhXM7/UJ7H0bEhAAkkQUAMrCausjBJIuMABC7xyl3HUesgNDjslnEPxoyGwxp1julvszmiUoyokIIGoCtTf4Tv7Wi4BjsaoimqdqqskAlmHn/gAM5cdY6tKUoEmlYAEJFBEATWwioitqSQggeILpNMePLAHBwFfB95R/Ao0owQ2K/ALN07tbrKV8pGABCSwJYEpbf5vgXM1xn8AFVu6Xv88QQLOGuD26hrmdjba0wlKrqgSkEACBdTASuCiK7IEEiPgbpNv471BwDUWcBCuF/2JWftoB3Wcqyvg8rta7O/RLlXVSUACURGoXewfsCxXAx8GgqjUpToiIfDMus3+v5wa4MYls+35SFSkIiQgAQkUQEANrAKgakgJSCAaAnVtvjvOXIwG0N4h0VgVVQH0Ony+u9lynwrUjwQkIIEhCUy8xyu2epxJBpdi7IOj1/FDkkvIRc4jGJdUV3N7Z6P1JCS1YkpAAgkT0C++hC244kogKQJ1t/sbGBjc+PaEdV8f3DEpuZWzDASMPxByVqbFlpZBtSpRAhKIkMAhC3zrsdXMwjjTYZcIlaZSIiBgxi8dLnjpYbpXpm0gAiWpBAlIQAJ5FVADK6+cGkwCEoiCwKFtPq4KZmCcg7NHFGpSDRJ4VcCgLXTmdrfYY1KRgAQkMFyBqbf6W8IKTgdmAdsM935dH2uBLPBDd+ZmmrnPzDzWaRVOAhJInIAaWIlbcgWWQLwFcicOvrmGOoeLgH3inVbpylAg9474xdXVzO9stNwfGvqRgAQkMGyByQv9bSnjIpxpOplw2Hxxv6HHjE7g0q4m+13cwyqfBCSQLAE1sJK13korgXgLpD2o34sDPeRygw+va2Jpk9t4r3g5pnvOjAu6muz6cixeNUtAAtERmLrI3x1muRZj4rrGeCo6lamSkgs4z5pxIxVc33W0/aXk9agACUhAAnkSUAMrT5AaRgISKLWA2/SF7L3u4y1pjE+te+dxTKkr0vwS2IzAfwdwztJm+7F0JCABCYxKwN2mLOKjgXM9xru1qfuoNON481/W/aGXrqpmUWejrY5jQGWSgASSJ6AGVvLWXIklEEuBSbf6GysqONWMU9114mAsF7n8Q4UGX+t/A2esmGx95R9HCSQggVILHLfAK58cy0yDS3B2LnU9mj9iAs6TBJz05BqWPTDH+iNWncqRgAQkwyGDHAAAIABJREFUMGwBNbCGTaYbJCCBqAnULfCx1HAUcC0wPmr1qR4JrBfoM7imq9nOk4gEJCCBfAk0dHhNTy8XGxwPjMvXuBonHgIOv8WZlWnmfm3qHo81VQoJJFlADawkr76ySyAGAhPTXjFhTw52ZwkwNgaRFCGmAg4PE3BB90y7PaYRFUsCEiiRwMRWr94qxbcNDtN+WCVahOhOmzuJcJk7J+n02+gukiqTgASGJqAG1tCcdJUEJBBJgfX7Xhn3AW+IZIkqSgL/FFhifRzf9VltqKuHQgISKICAu9W180udwFsA2xgMaXB1f8BFK2baizGIowgSkEBCBdTASujCK7YE4iDwiW/4DuOqWeLOh+KQRxliLZB1uLW72Y6LdUqFk4AESiowrdW3yaZ4CNihpIVo8kgKGBzX/zxtK07RPoyRXCAVJQEJbFFADawtEukCCUggigITO3yrCb1c7aCGQBQXSDVtKvCyww3dzXaOaCQgAQkUUmBSq3+oIkU3sH0h59HYZSngYUjd+x9hRTptYVkmUNESkECiBdTASvTyK7wEylNgcMPaHk4244ryTKCqEyjwkBnndDVZVwKzK7IEJFBkgfp2z53IexEwochTa7roC7xo8ImuJh7ALLc/ln4kIAEJlI2AGlhls1QqVAISyAnkjgx/qoYjgVZtVKtnoiwEDMf5XirLUUtm2/NlUbOKlIAEylog90ZPXw9XuPEZoLqsw6j4vAsY/CLlNNzVYr/P++AaUAISkEABBdTAKiCuhpaABPIrkE578MBeHEZImzZtz6+tRiuggDHgzre6m+2oAs6ioSUgAQlsJDB9oW8/AF/FaAAqxCOBVwUMQodvunN2d4s9IRkJSEAC5SKgBla5rJTqlEDSBdytto33m3EjsB8QJJ1E+ctGIHfi042ZZju3bCpWoRKQQAwE3Kbcyu5BBTc4HGag1/0xWNW8RTB6CLkuFXK5Ph2cN1UNJAEJFFhAv8gKDKzhJSCB/AjUtvrepJhvUKevQ+THVKMUR8Dh9zbACZlj7L+KM6NmkYAEJPCKwMR7vGL843wEuArjAFxNLD0bGwk8ZzB/uyw33DbbemUjAQlIIOoCamBFfYVUnwQkQP03fAev4gvuzDZja5FIoGwEXtn/6r7qaiZ1NtrqsqlbhUpAArERaOjwrXr6aDDnAmC32ARTkPwIOI8HAV8cU8XizkbL5mdQjSIBCUigMAJqYBXGVaNKQAJ5Emi4wbfqHc+pwCnrvob1pjwNq2EkUCyB3B8D388026RiTah5JCABCWwqMOlWf2NFBScApwHbSkgCGwjkfk/9LBVw7pIZ/JdOJtSzIQEJRFlADawor45qk0DCBQ5Y4JU71TALON9g14RzKH55CvQA7Zlmm1Oe5atqCUggLgL1d/jO3s85ZnzWnZq45FKO0QuY0ePOiiAgvXSm/XL0I2oECUhAAoURUAOrMK4aVQISGK3AuhMH63ZnMsY8YF9t2j5aUN1fCgGDp9z4XKbJvl2K+TWnBCQggQ0FDl/se/RnuRj4NJCSjgQ2EHjJoI1+Lu061p6UjAQkIIEoCqiBFcVVUU0SkADTFvu+2SxpIPfVqzEikUCZCvx6QsCHF8+03EmE+pGABCRQUoF02oMH9+D9IVwOfBydTFjS9Yjg5M+78+VgG67pmmovRbA+lSQBCSRcQA2shD8Aii+BKApMWuS7pEK+YHCsThyM4gqppiEKuBk/6WqyDw3xel0mAQlIoOACua/n71zFEWak3XhbwSfUBGUlYPBXh7k79dB60xzrL6viVawEJBB7ATWwYr/ECiiB8hKYtMgnVIac5HAhUFVe1ataCWwgYAwAP8g0aQN3PRcSkEC0BI5b4JVP1XDu+gNSto9WdaqmpAKvnJ77uwDO2G8V302nLSxpPZpcAhKQwEYvr8UhAQlIICICDR0+Zm0fR7pzs0NlRMpSGRIYqcBLbpzX3WTXj3QA3ScBCUigkAK1bX6LwdH6tHMhlct0bGNFMMA5S2fzKzAv0xQqWwISiJmAPoEVswVVHAmUq8DEtFeM252JKaPVYZdyzaG6JbCBwF+yKT64fIY9KhUJSEACURTI/e4dvzt3mXGY3jiK4gqVuCbnxoEUl62YyRNqYpV4LTS9BCQwKKAGlh4ECUig5AK5TWV/tjvvcuO69ZvKlrwmFSCBPAisyjTbnnkYR0NIQAISKJjA5FbfMQhYasb7dOJvwZjLd2Dj/DDga8tm2HPlG0KVS0ACcRFQAysuK6kcEihXAXc7fDFv7g8Hj/WeVa4xVLcENhFwh191N9t7JCMBCUgg6gJ1bf7vwM3A7lGvVfUVXWAgdOaMreGOzkbrKfrsmlACEpDABgJqYOlxkIAESipwSIdvXdPLWcD5JS1Ek0sgvwK5TW8zmWablt9hNZoEJCCBwgjULfQTHS41Y+vCzKBRy1jgr0GK5hf+wH+uTFvugBL9SEACEiiJgBpYJWHXpBKQQE4gd5T3TmOZg3Od6SvNeijiJbDWjc92N1lbvGIpjQQkEGeB+kV+KSGnOdTEOaeyDV/A4ScYx3U32f8b/t26QwISkEB+BNTAyo+jRpGABIYrsG7fq/o9mOZwGzB+uLfreglEXODl6ix7dc62pyNep8qTgAQksJFA/W3+NU/xGZwK0UhgE4HvuHNKd4s9IRkJSEACpRBQA6sU6ppTAhJgSrt/OMg1r5y9xSGBGAr8LdNsb4xhLkWSgARiLnDYzb7dmDF8A5iuA59ivtgjiecsqK7hnM5Ge2Ekt+seCUhAAqMRUANrNHq6VwISGJHA9G/62wb6+SrOoSMaQDdJIPoCj2SaTZshR3+dVKEEJLCJwPqTgd/rcCPGhwQkgU0E3GB+//NcsuIU65OOBCQggWIKqIFVTG3NJQEJkDuuO1XBle58et0LoEqRSCCmAsszzTYlptkUSwISiLlAQ4eP6elhihlXAXvEPK7iDV/gOZxzD/gT30inLXdoiX4kIAEJFEVADayiMGsSCUggJ3Bom4+rgsuAY4BxUpFAXAWCkJOXzrIb4ppPuSQggfgL5H5nj4Emc+ZjbBf/xEo4VAGD0I2HCDkz08x3MfOh3qvrJCABCYxGQA2s0ejpXglIYMgCE9NeMX5PzsA5A9DeQEOW04VlJ2B4aoA9lsy2R8qudhUsAQlIYAOBaa2+zUDA8WZcCFQLRwKvChj0h3Avxud1MqGeCwlIoFgCamAVS1rzSCDBAu5uU9s5wmGewdsdggRzKHr8BdZWVzO2s9Gy8Y+qhBKQQNwFDm/3ndaGnGPGyUAq7nmVbxgCTp8HZAg5TScTDsNNl0pAAiMWUANrxHS6UQISGKpA3SL/ED741cGP6ljuoarpujIWeD7TbNuWcf0qXQISkMA/BHKbuv98V96TTXERRi2O/n7Q87GhwBqc9uoazuxstNWikYAEJFBIAf0CKqSuxpaABKhr890dvmSvHMddIRIJxF3AnMe6WmzXuOdUPglIIDkCDR2e6ullssElwHuSk1xJhyjwrDlffvFPXLYybQNDvEeXSUACEhi2gBpYwybTDRKQwFAFBvfOSHGpwRz0tcGhsum6MhcwuLWr2Y4t8xgqXwISkMDGAu42ZRHHB3Ahzg7ikcCGAu78Hrigu5kObequZ0MCEiiUgBpYhZLVuBJIuEBDh9f09vB5jC8CNQnnUPwECXjA4d0z7a4ERVZUCUggQQL17T7XnTOBCQmKrahDEHC4B+f87j/xY9IWDuEWXSIBCUhgWAJqYA2LSxdLQAJDEZh0nVdVbkeDh8wH3jqUe3SNBGIhYHjfana8+wT7ayzyKIQEJCCBTQRmtXr1symucpgNjBWQBDYSMO7IhqSXN/MHfRJLz4YEJJBvATWw8i2q8SSQcIEDFnjlTmP4iAVcgvGRhHMofvIE+qqrmdDZaGuTF12JJSCBpAhMXuy7BgNcZ8YngTFJya2cQxa4zvr5UtexPAXmQ75LF0pAAhLYgoAaWHpEJCCBvAnkNnntHeAdPsCFBg15G1gDSaB8BF6sruaNamCVz4KpUglIYGQCUxb6IQFcjrEvkBrZKLorlgJGDzAvfImblp1oz8Uyo0JJQAIlEVADqyTsmlQCMRRwt6mt7JKt4DyD42OYUJEksEUBh6d27mHXm+ZY/xYv1gUSkIAEylygfqG3YKQdciev6u+KMl/PPJf/mIecZ33clZlja/I8toaTgAQSKqBfNAldeMWWQL4FcicOhgGn+Subtuud2HwDa7zyEHDue+mtTFx5sI4RL48FU5USkMBoBera/PPAXGDb0Y6l+2Mn8BM3znlqDfc9oDd2Yre4CiSBUgiogVUKdc0pgZgJ5DZtr9iGmcCVegEbs8VVnGEJOFxWU83czkbLDutGXSwBCUigXAXcra6NS9w4y6CyXGOo7sIIOCzPDnDWBx/jobROJiwMskaVQIIE1MBK0GIrqgQKI+BW384hONc7vK0wc2hUCZSJgDM508x3dfJSmayXypSABPIicMgC37qmmq9hHKmvEuaFNF6DOHdUGKfd1awTeuO1sEojgeILqIFVfHPNKIFYCdS1+jtIcStwYKyCKYwEhilgEAZZ9lwy2x4Z5q26XAISkEDZC0xf6G/rN24z40O49sMq+wXNb4CsGdfvuIaztEdkfmE1mgSSJqAGVtJWXHklkEeB6W3+piwsdjgkj8NqKAmUp4DTV2G8Ve8wl+fyqWoJSGD0AvW3+cfcWIix2+hH0wgxE1htzrn7/4kb9VXCmK2s4kigiAJqYBURW1NJIE4CDR1e09PLrcbg1wX0IwEJwEsVsJcaWHoUJCCBpAo0dHiqp5fJBrcB2yXVQblfV+AJM+Z0NbEczOUkAQlIYLgCamANV0zXS0ACrH+BerE5p2KMFYkEJAA4zw5keceKY+wZeUhAAhJIqkDuYJfKrTnSjQVAVVIdlPt1BX5tztFdLfYLGUlAAhIYroAaWMMV0/USSLqAu01uZ2bKuZyAnbTPRdIfCOX/h4DzOJXsnzna/iYVCUhAAkkWmLLYtw2yfG5da/9CIEiyhbK/RiA0uL+qmmmdjfa0fCQgAQkMR0ANrOFo6VoJSID6Rf4RDwffVX2nThrSAyGBjQS+n8rSuGS2PS8XCUhAAokWcLf6RezpIfMxGvR6IdFPw2vCG/Q7fJcejszMsTXSkYAEJDBUATWwhiql6yQgAQ5f7Hv0D7AY44N6MaoHQgIbC7hzzVrjgrub7WXZSEACEki8gLvVLeaDhNwI7Jd4DwFsKvAizk3VNXyhs9Gy4pGABCQwFAE1sIaipGskIAGmL/TtB4zWdR/7nuL6OoCeCAm8RiALs8dVc3tno60VjwQkIAEJvCJQt8hrPeRrBrvIRAKbCDzmIemasbSpiaVnQwISGIqAGlhDUdI1Eki4QP0tPp4xXOzOZ4BxCedQfAlsXiDgA5kZ/BTTyUp6RCQgAQn8QyD3Sax2Wta9frgSeINkJLCJwIPmnFFVw/+oiaVnQwIS2JKAGlhbEtI/l0DCBeoW+FgbyzHunA28JeEcii+B1xPImrFPV5P9TkQSkIAEJLCxQEOHb9Xby+nAGcAE+UhgIwHnPz3gjPc9zC/TaQulIwEJSOD1BNTA0rMhAQm8rsDgUdgTOMyDwVOE9heVBCTwugJ9Fc577mqx38tIAhKQgAReKzDtNt8za8xdv6n7WBlJ4B8CTmhGRzbF+cuO5k/6JLOeDQlIQA0sPQMSkMCwBCamvWLcnnzAnHkGhwzrZl0sgaQJOGuysN9yNbCStvLKKwEJDEOgdqF/1Ix5GB/FGTOMW3VpzAXMWA18jRRXdx1tf4l5XMWTgARGKKBPYI0QTrdJINYC7jalnXcEThqjMdZZFU4C+RF40VO8r3uG/SE/w2kUCUhAAvEUqFvoU8k1seBdQCqeKZVqRALGo4Rc0dPL4h/MsRdGNIZukoAEYi2gBlasl1fhJDAygdqF/mazwT2v5gBVIxtFd0kgUQLPmvHBrib7Y6JSK6wEJCCBEQjUtXkTDDaxdlv3//X3yAgMY3zLgzjzXgr53srZ1hvjnIomAQmMQEC/MEaAplskEGeBaa2+TVgxuGn7uTotKM4rrWx5FXCeHHA+tmKWPZzXcTWYBCQggRgKHLDAK3eq5jQzzgG2j2FERRqNgPE/HvKF1X/i/pVpGxjNULpXAhKIl4AaWPFaT6WRwKgEJrZ69VYBtRZwKc7eoxpMN0sgWQI/c2d6d4s9lqzYSisBCUhgZALTF/r2WeMSd2ZhVI9sFN0VY4FM1jlzeTN/0KbuMV5lRZPAMAXUwBommC6XQFwFGjo81TPAB+jnRjP2jWtO5ZJAgQSWZrMcv3y2PV2g8TWsBCQggdgJ1Lb63pbi6wYTHYLYBVSgEQs49AO3ZAe4YMUx9syIB9KNEpBArATUwIrVciqMBEYuMPlm3zU1hjuAA0c+iu6UQEIFjAUVIeff1WJ/T6iAYktAAhIYkcC0xb7vwADfMmPPEQ2gm+Is8Lw7l/69huv/r9F64hxU2SQggaEJqIE1NCddJYFYCzR0eE1vL3cCtdpMNdZLrXCFEjAura7iis5GnZpUKGKNKwEJxFdgymI/IDXAf7qxdXxTKtkIBZ7GOCEzk6X6KuEIBXWbBGIkoAZWjBZTUSQwEoG0e/BAO1cDJwJjRjKG7pFA0gXcOaNmNTd1nmSrk26h/BKQgASGL+BWt5BPmrHUoXL49+uOmAs8EQRMWjrTfhnznIonAQlsQUANLD0iEki0gFtdGy3AjUBNoikUXgKjEPCQY1Y7d+jI71Eg6lYJSCDRAg0dPqanh9MN5mPaDyvRD8Nmwhv82SvYL3O0/U02EpBAcgXUwEru2iu5BJi+0D+aDeh210f29ThIYFQCKaY9uZrlD8yx3Kaz+pGABCQggREIHHazbzdmDDdiNOLo75QRGMb5FoP/7X+ef19xivXFOaeySUACry+gXwx6OiSQUIEpt/oeqQruddgpoQSKLYG8CQTGx5bO5F7tz5E3Ug0kAQkkVGD9oTLfwdhPTayEPgSvH3sA+NqTPZyhN4z0bEggmQJqYCVz3ZU64QKTW33HVIougwN0bHXCHwbFz4dASMBHMjPtR/kYTGNIQAISSLpA/UJ/jxvfJncyoT6JlfTHYaP87rwQhJz1xFpuUxNLj4YEkiegBlby1lyJEy7QcLNv11vFNTiN2vcq4Q+D4udHwBhggIMys9XAyg+oRpGABJIu0NDhqZ61fMJCbgXenHQP5X+NwOMOx69exd0r05b7VJZ+JCCBhAiogZWQhVZMCeQEJi3yCZUhJwGnObxJKhKQwOgF3OlPGQctbbYfj340jSABCUhAAjmB+lt8vFXRHIbMA7aXigQ2FHD4VQo+s98q7k+nLZSOBCSQDAE1sJKxzkopARo6vKavh0+5cSGwl0gkIIE8CTh9gfFxNbDy5KlhJCABCawXqF3obzXjTGA2sJVgJPAPgdynn517Qjh1WRMPaQ9KPRsSSIaAGljJWGelTLjAxHu8Yvxj/AfGJcD+CedQfAnkW6DXnY93t9hP8j2wxpOABCSQdIHJrb5vRQUXuDMZqEq6h/JvJPCiwe02wKVLj7HHZSMBCcRfQA2s+K+xEiZcwN1tehvvD435Dp8AHUud8EdC8fMv0OPORDWw8g+rESUgAQnkBKa0+0GBczHwUSAlFQn8Q8B50uGr/TXc9L1Ge1YyEpBAvAXUwIr3+ipd4gXcahezl4Wcj/NpoDrxJAKQQP4F1rhzsBpY+YfViBKQgAQGBdytro0p6z9J/h69GafnYkMBh98HzqXeS2dmjq2RjgQkEF8BNbDiu7ZKJgHqv+E7UM0JDifhvEEkEpBAQQTUwCoIqwaVgAQk8E+BWa1e/WyKWQ5fAHaVjQQ2EXjQjLlPrOHuB+ZYv3QkIIF4CqiBFc91VSoJDJ7eE1ZypMH5eqGnB0ICBRVQA6ugvBpcAhKQwCsCk271N1akOBvjWGBbuUjgVQGD0I17MM7NzOCn2tRdz4YE4imgBlY811WpEi7Q0OFjeno5zJyrMfZOOIfiS6DQAi8TcHBmpt1f6Ik0vgQkIIGkC0xr9d2yKa7KbY2lrRGS/jRskt/pw7gjFXLJkln2sHQkIIH4CaiBFb81VaKEC6TTHvx8b/bLZrkFeG/CORRfAgUXcHjZ1MAquLMmkIAEJPCqQG2r720BbRjv16buei42FDDjBXeuqXBuuKvF/i4dCUggXgJqYMVrPZVGAky9w98SDrAA5zAgEIkEJFBYATWwCuur0SUgAQlsTmDSIn9nRUg3xm64TljWU7KRwN/dOL2mis7ORuuRjQQkEB8BNbDis5ZKIgEmXecTKrfmIjdOAMaIRAISKIqAvkJYFGZNIgEJSGADAXerX8QhDt/B2Uo2EthQwJ1nwwqmj6vkvs5Gy0pHAhKIh4AaWPFYR6WQAA0dnlrTy7EG1xtUikQCEiiagDZxLxq1JpKABCTwT4HB1z59nBk4l4E+haVnYxMB58mwgoOWzbBVspGABOIhoAZWPNZRKSTAtFafmE1xjygkIIGiC/S4M7G7xX5S9Jk1oQQkIAEJUN/mHW4coa8S6mHYVMCMH/a+iUl3H2YvS0cCEih/ATWwyn8NlSDxAm51rbydFL8EKhLPIQAJFF9ADazim2tGCUhAAv8QyH0Sq6+Pe935oD6JpQdjMwLXDbyBs1dMtj7pSEAC5S2gBlZ5r5+ql8Dgpu3Zfu4x2FMcEpBASQR6Uyk+vmSGPoFVEn1NKgEJSABouNm36xnDfxvsoyaWHolNBdz5XE0NN3U22lrpSEAC5SugBlb5rp0qlwD13/AdvIobcaZhOnFQj4QESiSwNoCPLW22H5dofk0rAQlIIPEC6bQHP92Tfc35FrB74kEEsKnAWoOjXlxF18q0DYhHAhIoTwE1sMpz3VS1BHJ7Xm2TDTgL4zRgrEgkIIHSCBj0GxykBlZp/DWrBCQggVcFGjq8pqePI+2VTd13kIwENhH4C/DpzCp+SNpC6UhAAuUnoAZW+a2ZKpZA7sTBmt4eZmPMA94gEglIoIQCxgADHJSZbT8qYRWaWgISkIAEgEm3+hsrKjgdOBGYIBQJbCCQdfhpUMFxXUfxS8xcOhKQQHkJqIFVXuulaiXAxHu8YqvH+FRgXO6wm0gkIIHSChiEHvCRzEw1sEq7EppdAhKQwCsC0+7w3bIDXIBzFFAtFwlsINCD8e1UBXOXHGWPSEYCEigvATWwymu9VG3CBdzdpt7ORM9yBbA/aN+rhD8Sih8RgdD42LKZ3Kt3cyOyICpDAhJIvMDURf5Ody5xpx5IJR5EAP8QcOdZjAVWwTWZo+1vopGABMpHQA2s8lkrVZp4Abepi3iXZ5nnxiS9o5j4B0IAERJwmLJ6FXdrY9gILYpKkYAEEi0wuKn77nzYYD7GQTqZMNGPw2vDG096yNW2HV/P1Nka6UhAAuUhoAZWeayTqpQAU+/wt4T9nAk0A9uIRAISiJBAluaBl+hYcYr1RagqlSIBCUgg0QITW716QsARbnwReHuiMRR+c02sPzjMW/0wd+oNKD0gEigPATWwymOdVGXCBaYs9m1TWY5341Rcp+ok/HFQ/AgKWMiZVS+zoPMkWx3B8lSSBCQggcQKNHT4dn09nOTGycCbEguh4JsTyJrxI3cuyDRxj7YB0EMigegLqIEV/TVShQkXmHSdV6UmcDQBFxnsknAOxZdANAWcq1Ih85fMtuejWaCqkoAEJJBcgcPbfad+uBBnJjAuuRJKvhmBXoP2gRTzl8+wRyUkAQlEW0ANrGivj6pLuMDg/g17cYiFXI2xD47+nU34M6H4ERVwFg3UcPqKRnsmohWqLAlIQAKJFqhd6G8243qDKQ6VicZQ+E0FnnOYm32em7UVgB4OCURbQH8MR3t9VF3CBdafoHOZO1N0gk7CHwbFj7SAwQ+opKXrKHsy0oWqOAlIQAIJFqht9b0txULgQ9rUPcEPwuaj/9YDTuuewff1VUI9GxKIroAaWNFdG1WWcIFJt/obKyo4HQY3bq9IOIfiSyDqAg+lskxaMtseiXqhqk8CEpBAYgXcbUo7hwbwNWD3xDoo+GsEDEKHZeEYzll2pP1WRBKQQDQF1MCK5rqoqoQLNHR4TU8fM8z5RsIpFF8C5SLwNzMO7GqyP5ZLwapTAhKQQFIFahf6WUHA+e5snVQD5d68gBlX9vdz5YpjtCWAnhEJRFFADaworopqSrRAQ4enetYy0UIyQE2iMRReAuUj8JwZH1ADq3wWTJVKQALJFqht81sMZgBVyZZQ+k0FzDix12m7u9lelo4EJBAtATWworUeqibpAq98tP0dAXwb+Lekcyi/BMpI4CVPcUD3DPtDGdWsUiUgAQkkWqCu3Zebc5hDkGgIhd9UoMdCGp7o4+4H5li/eCQggegIqIEVnbVQJRLg0DZ/UzV8xeFIcUhAAuUj4E5vCO9d3mK/L5+qVakEJCCBZAvktmzo7eGHGPtrU/dkPwubSf8rN2Z2z+QX2tRdz4YEoiOgBlZ01kKVJFxg8EVUL18ALkg4heJLoBwFBsjy7sxse6gci1fNEpCABJIqMPkmf1tFNRmHtyXVQLk3L+DGt4IKTtUJw3pCJBAdATWworMWqiTBAmn34KcLabGAWxPMoOgSKGcBN3J7YPGA3qkt52VU7RKQQBIFprR5Q+qVT8DvlMT8yvz6Am5caWtIZ+as+7/6kYAESi6gBlbJl0AFSMCtdiEfMeM7wBvlIQEJlKeAw4yde+i8SftllOcCqmoJSCCxApOWe1Xqb5xuDH4SfkJiIRT8NQIOHsCc/VdxSzptoYgkIIHSCqiBVVp/zS4B6m/2vRjDjQ6HaP8FPRASKGMB51J6ma93act4DVW6BCSQWIGGDt+6p5e5BicB1YmFUPDNCTwNHJlptv8WjwQkUFoBNbBK66/ZEy4w5UbfNhjPZYTMwnSMc8IfB8V1YRpfAAAgAElEQVQvcwGHZTXVzOhstBfKPIrKl4AEJJBIgfpbfGev4BKMZiCVSASF3pyA4/yXBRzf1WR/FJEEJFA6ATWwSmevmRMuMPEer9jqUc6ygLOBbRLOofgSKHsBg4dTzgfvarG/l30YBZCABCSQQIF02oOf7Mp7ghSXGxyqT8Yn8CF4/ch9BouDLGcsmW3PS0YCEiiNgBpYpXHXrIkXcJvSTl3gXMErp97o38XEPxMCKHcBh2ezA7xjxTH2TLlnUf0SkIAEkiowsdWrxwcc5gEXm/PupDoo92sF3HkB46qaai7rbLSsjCQggeIL6I/m4ptrRglQd5vvQ4orcT4BjBGJBCQQC4HVFbDnXc3211ikUQgJSEACCRWov8XHh5U0B3C+TiZM6EOw+diO8XtCzsm00AXm0pGABIoroAZWcb01mwSYvtC3zxqX5U4sA8aKRAISiIeAQX8KdlEDKx7rqRQSkECyBaa1+jZhwGlunA6MT7aG0r8qkPtd77AyhNOXNduvJCMBCRRXQA2s4nprtoQLTEx7xfg9OQPnLGD7hHMovgTiJWB41njv8pn8Su/KxmtplUYCEkimQEOHb9fXxzycOQ6VyVRQ6s0I9GF8Mwz4/LIZ9pyEJCCB4gmogVU8a80kAWpv80ODgPluHEDuQ8j6kYAEYiXgWU5436PclE5bGKtgCiMBCUggoQKHL/Y9+rNcA9Rrz9KEPgSbj/2swVVV1Vyh/bD0XEigeAL6A7p41pop4QLTWn23bMClBByp5lXCHwbFj7PA7S+tomVl2gbiHFLZJCABCSRJoHaRf8JCrgT2S1JuZd2iwE9D59xlLfaDLV6pCyQggbwIqIGVF0YNIoF/LZDbDJQqzibkPIdAXhKQQEwFnMd26mWvm+ZYf0wTKpYEJCCBRArUt/sJOOe58Wa9EZnIR+D1Qt9ZmeK878ywVVKRgAQKL6AGVuGNNUPCBY5b4JVPjeUIfPCduzcnnEPxJRB3geerq9mhs9HWxj2o8klAAhJImsDUdp8fOicA2yYtu/K+rkAW40vVVYNfJXxBThKQQGEF1MAqrK9GT7hA2j24/3b2syzzDQ5LOIfiSyAJAr3V1WytBlYSlloZJSCBpAm4u01dxNfdmamTpJO2+v8y76MY5w48x3dWnGJ9kpGABAonoAZW4Ww1cuIF3GoXsnNgnOtwUuI5BPBPAcP19YPYPhCezbLz8tn2dGwTKpgEJCCBBAtMWuQTKkIWAZOAigRTKPqGAsbdGF+sHsPPtKm7Hg0JFE5ADazC2WrkhAsc2ubjqo1m98GTa6oTzqH4/xTIfbXs19oINsaPRJbmzGxrj3FCRZOABCSQaIHaW/y9Vkkrxr56QyrRj8LG4Y0FlcYl35nJE2AuGQlIIP8CamDl31QjSoCJaa8YtycHBiFfw9hHJBLICRiE7txuAd91H3z3Vj/xFFiSabbp8YymVBKQgAQkkBOob/XDPcV12t9Uz8MGAmtwznppNW0rT7LVkpGABPIvoAZW/k01YuIF1n91EK5z4/DEcwjgHwIGPxjI0lRZwR6hc59oYirgPJlpMR3YENPlVSwJSEACrwrUtfschy+Zs7VUJLBe4BdhlpNffpT/W5m2AalIQAL5FVADK7+eGk0CTLrOqyq24UyDixwCkUhgvcBvQuOzy5rsf6e2+rvDFL+QTDwFDF7qarYJ8UynVBKQgAQksKFAXbufQ8g8jCrJSGC9wFKr5MSuo+xJiUhAAvkVUAMrv54aTQLUtvpEC1iMsbM4JLBe4OkQPv/yW/jWyoNtYPJi3zWV5RHpxFYga/1s23WsvRTbhAomAQlIQAKDAk1tPu4FYz7O5/TGpR6K9QJZg7n9z3ONTiXUMyGB/AqogZVfT42WcIG62/0N9LMM4wMJp1D89QJm5PZAOLuqits6G60n9z8PPicDrALGCyqmAiFHZGbZt2OaTrEkIAEJSOBVAXebcju72wDXmlH3ypaX+pFAbiN3ZmSa7b9lIQEJ5E9A/4HNn6VGSrhAOu3BA3tyI86chFMo/qsCxkDgXGxZrlsy255/9X9efwT3D4D3Cyu2At2ZZsv9IaMfCUhAAhKIucA/Du9xvgq8N+ZxFW+IAu78vKaGT3Q22rNDvEWXSUACWxBQA0uPiATyJFDX7tNw2vSpmjyBlv8wjtEW9nPRstn8Cfvnccp1C3ys1XCtw3HlH1MJXkfg0Uyz7SYdCUhAAhJIhsDgHqjbUmu5Q3xc20gkY9WHkNK46YCHOSGdtnAIV+sSCUhADSw9AxIovMCh3/Ddq6v4rsPbCj+bZigLAeNHAZw9por/7Wy07IY1N3T4mJ5ePmtwfVlkUZHDFzCeyzTZdsO/UXdIQAISkEC5Csxq9epnA4524yvAVuWaQ3XnTyC3lYRDU6bJluRvVI0kgeQK6BNYyV17Jc+TQO5j4+P3oBOoBSryNKyGKWcB41FzznrxLdyV27R90yi5Z2brPZgUQlc5x1Tt/0LA6Bno530rjrHfyEkCEpCABJIjUL/Ux/MCJ6/bC2ueQ2VykivpvxB4zJ0Pd7dYbl8s/UhAAqMQUANrFHi6VQI5gSmL/cggy3XAGyUiAeB5jC8c8DDfeL2Pi6fdg5/fxseyKe6RWGwFBgi4NDPTLoxtQgWTgAQkIIHNCky7w3fLZrmQkBZt6q6HxKAfWLJ/E0emTV8l1BMhgdEIqIE1Gj3dm3iB+nbfy53cR4L3STyGAHDotZArqscyv7PR1r4uibvVt3OAw/1ii61Abg+0BzNNdkBsEyqYBCQgAQm8rsCUdj8ogMvMOdAhEFXiBZ5x58TuZr694b6oiVcRgASGKaAG1jDBdLkEXhWoy/hYnmcBzhFAtWQSL7DW4Jv9AeevmGl/3pLGJ9v97ZXOr/S10y1Jle8/N/jj/qt4uzZuLd81VOUSkIAERiMwdaF/OjTm8coeqfq7azSY8bj3N55lWvds+0M84iiFBIovoP+QFt9cM8ZAYOI9XjHhCY70kIuA3WMQSRFGJ5Db5+o+d77Y3WL3DmWowxf5Lv0h39Wn94aiVabXGH9JVfChJUfZI2WaQGVLQAISkMAoBeoW+YmEnAeDJxPqb69Repb57WuAO6yfz3cday+VeRaVL4GSCOg/oiVh16TlLjCt1ffNBlyP8ZFyz6L6Ry2QOxb5dwYXdTXbN4c62vSFvv1AwNX44P4Y+omnwMvuXNXdYul4xlMqCUhAAhLYkkDuTc+t/sz5hJxihk6n3RJY/P/5n8y54Ile7nxgjuX2xtKPBCQwDAE1sIaBpUslkBNo6PDt+vqY5yHHYIyVSqIFHHgyt8fF0ma7YTgSh7b5uCr4LHDtcO7TtWUk4IQE3Jtpso+XUdUqVQISkIAE8iyQe9MqC1e48WlgXJ6H13DlJmDcZyGf62qxB8utdNUrgVILqIFV6hXQ/GUl0NDhY/p6aMSY66/sZ6CfZAs8b85Xuv607quk6eGdKtOQ9jE9u1NvRmeyCWOc3nBzfv5EDx/Uu6wxXmdFk4AEJDAEgfqFvp/DlWZ8zKFyCLfokvgKvGTGramQi+9qsb/HN6aSSSD/Ampg5d9UI8ZYoP4O349+LnM4LMYxFW1oAn1mfDMb8PllM+y5od3yz6saOjy1poeDA+P7w71X15eVwCNZaFjebD8tq6pVrAQkIAEJ5F2gbpFPIuRK4N/QyYR59y2rAZ0/eMC8p9bQoTe5ymrlVGyJBdTAKvECaPryEZiy2LdNDXCqG58HJpRP5aq0AAK5rw7eR8jxmVn265GN7zZlMfsHWX4AbDOyMXRXGQisxvh6psnOKoNaVaIEJCABCRRYoHaRf5qQaw12KvBUGj7iAg7LA+fcrhb7RcRLVXkSiIyAGliRWQoVEmWBiWmvmLAnk925fP27ZlEuV7UVXuDR0Jm9rMXuGc1U077pe4ZraXU4aDTj6N5IC2TN+H5Xk02KdJUqTgISkIAEiiZQ1+bHAV8Bqos2qSaKosBzBFydGscNS6bb81EsUDVJIGoCamBFbUVUTyQFalt9b0txMUYjriOQI7lIRSrKnBdC4+juZls+2inXn0R4Fs45ox1L90dUwHCcnwaVfGrpUfZ4RKtUWRKQgAQkUESBScu9quIZ5rlxtqHXlUWkj+JUDzmcXVPN8s5Gy0axQNUkgSgJqIEVpdVQLZEUaOjwrXp7aAbmY/qqVyQXqUhFGfRbyGeWzrK2fEzZ0OE1Pb3MNLgpH+NpjMgKPG3G/K4muz6yFaowCUhAAhIoqsD0Nn/TACzAmKo3R4tKH7XJQozbU1nSS2bZw1ErTvVIIGoCamBFbUVUT7QE3K22jQ/lTgoB3hGt4lRNMQUcPID5vXD53c32cj7mzm3k3rOWegv5Tj7G0xiRFVgL3J5pttmRrVCFSUACEpBA0QXq2/3tDnfivLfok2vCKAk8j/GFPmdRvl5jRimcapFAPgXUwMqnpsaKncD6d8e+CJyk02Jit7xDD2S4Qcb6OXnpMfwZLLeJe15+6m/zj3mKDpwd8jKgBomigJuR2fHfOOKm91l/FAtUTRKQgAQkUAIBd6u7jfd5iqXa1L0E/hGa0uD3nqUlM4sfY/l7nRmhiCpFAnkRUAMrL4waJI4Cxy3wyr+OZUrWWQyMjWNGZRqigPNrD5jxvof5ZTpt4RDvGtJlkxf62wLjKoO6Id2gi8pV4Lc4Z2darLtcA6huCUhAAhLIv0Du09j9a5mYzdKF6fVm/oXLZsTQnC97JZdljra/lU3VKlQCRRZQA6vI4JqufASm3uFvCfv5LvDO8qlalRZA4C/uHNHdzH2FeEesocO37uvlcw4XF6B2DRkVAacPY0Gm2U6NSkmqQwISkIAEoiGQ2xOzt5ejye2JBaloVKUqSiAwYMa0F3fheysPtoESzK8pJRB5ATWwIr9EKrAUApOu86rKbTjZ4apSzK85IyPwMkZLdRVLCnUyzMRWrx4fcAzGDZFJrUIKIZD7Gmr7i6s4dmVaL0oLAawxJSABCZSzwOHtvlM/fNFCjncjKOcsqn0UAsaPvIojuhvtiVGMolslEFsBNbBiu7QKNhqBKW3+rsB4EKdiNOPo3jIWMHpw5oeruXHZifZcoZLkvjrQ18eR7izUu66FUo7MuL9wOLe72ZZHpiIVIgEJSEACkRGYusjfHYZcDfy7XhNEZlmKXog7p2Vf4OsrTrG+ok+uCSUQcQE1sCK+QCqv+ALrP8bdDnyq+LNrxogI9JnxrXUvHi/uarLfFbqm2kX+CQu5Cdij0HNp/BIKOH1uXNPdbOeVsApNLQEJSEACERaY1u4TQ+caZ/BkQn0SK8JrVbDSnDVBivcvnWm/KdgcGlgCZSqgBlaZLpzKLpSAW30bn3a4o1AzaNzICwxg3Osp5nYfbfcWo9rpC/1t/cYlBg3FmE9zlEbAGTzN8hvWz5ldx9pLpalCs0pAAhKQQNQFahf6dIMvYewF6O+1qC9YIepz2qtrmNPZaD2FGF5jSqBcBfQfxHJdOdVdEIFJi3yXimxus27eWpAJNGjUBUIzfuHG3MzM4p0WN63VtxkION2MuVEHUn2jFngwhHOXNdv3Rj2SBpCABCQggVgK5PZirdiOY3HOx9k5liEVaosC7jR0t/BtMN/ixbpAAgkRUAMrIQutmFsWaOjwMT09XGbG6Vu+WlfETsBwnEfWfVz/oswq2khbWKyMg4cGbMtJ7oP7XugnzgK5rxFCuruFL+kFaZwXWtkkIAEJjE5gcqvvGFRwljnHANuMbjTdXZYCzkPVcEhnizZ0L8v1U9EFEVADqyCsGrQcBeraPLdh5hJgfDnWr5pHLfAMcL31c23Rv97lbnXtzDTnq25sPeokGiDKArlG6S1rAy74XpM9FeVCVZsEJCABCZRWYGqrv9sruMCdKUBNaavR7CURMK46YBfOTR+sE4xL4q9JIyegBlbklkQFlUKg7nZ/g2e5zZxP6tSXUqxAyed82eDbQZYLl8y23Kewiv5Tu9A/asYVwIFFn1wTFlvgjzhnZlpsabEn1nwSkIAEJFBeArnXB4Fxqb/y+kCnY5fX8o2+Wud5h7ruluLsyzr6gjWCBAoroAZWYX01elkIuNUv5JQQ5pk+/VIWK5bPIg36Q7gX48zuJvtZPscezliD+685aZxjh3Ofri1LgQEzzqyq4vrORsuWZQIVLQEJSEACRROoXeSHWsg1Bv/mOpmwaO6RmMgYwFmWyjJryWx7PhI1qQgJlFBADawS4mvqaAjULva9gyzt7rwf03HF0ViV4lRhEDo8ZAHHdc20+4oz6+ZnObTNx42B8w3OLWUdmrtoAt8myxczs+2hos2oiSQgAQlIoCwF0mkPfroHRwZwlcNOZRlCRY9G4Dk3zu5usptHM4julUAcBNTAisMqKsOIBSbe4xXjH+dK4DPAViMeSDeWq8BfHWZ3N9vyUgdIuwf3t/N5g0sMqktdj+YvsIDzDAHHZZost++efiQgAQlIQAL/UqBugY+linMIOAMYJ65ECeQ+rf1/QHOm2f6UqOQKK4FNBNTA0iORaIH6xf6xMMv1ZrwLR/8+JOtpWBsapz29hpsfmGP9UYg+pd2nmHO5wbuiUI9qKKhA6M4XVq/m/7N3J+B1VeX+x7/vPkmTAGVSUBFUBgcUVMDhKg7Fq0LbJG3BRoYmaZkKMijIPBlABAEVqqAtlDZDARulbU7aCqIgOKCAoiiKCggIOIAMBTKe/f67A17/euE2wxn28DvPc5/n3ufutdbv/axNk6yz91pfv/koe7akI6lzCUhAAhJIhcCsDt96GBYAn9CeramY0tEX4ayzgG/sPodT2qx8J2WPPqCulEB5BPQHe3mcNUoMBaYu8E2rNudrQBNQE8OIilQqAcOBq2pr+Ex3U3wWD2Yu8TcUclwAfLJUpavfWAnc486hva0WfauqjwQkIAEJSGCDAvXt/loz8sBuG7xYF6RJIPqq/Re5kCNXttrP0lSYapHAWAS0gDUWLV2bIoGRjdsPcuNsYIcUFaZSRifws1yBveO2GWbjYp8cVvNFgyNHV4auSrKAwxAF9uudRy9YtKiqjwQkIAEJSGCDAtOW+KtzAb/E2HqDF+uCNAkMAt+srWV+d5P1pakw1SKB0QpoAWu0UrouVQIzrvHtwiEuAWaBXh1M1eRuuJhHwhy7rj7IntzwpeW94sVNWqM9sE7SqwHlta/YaM7yQhUnrTnIHqxYBg0sAQlIQAKJE2js9De780u9RZC4qZto4HsxTs8327cn2pHaSyCJAlrASuKsKfOEBKJFgp+/gRPcOBVj8wl1psZJE3i+Ct61ooXfxfWJl/p2n4VxXnRUdtJwlXccAs7zDh/Va4TjsFMTCUhAAhkWmL3cc33PcVgQcJnrFO2s3QnfHuzjmOvn22NZK1z1SkALWLoHMicwo8t3DZ0LcKZlrvgMF+zQj/GpwpNcvfZYG4grxYyrfLuwamSD1plxzahcxRVwONq2YEm+wZ4vbs/qTQISkIAE0iwwtcs3zRX4utnI3pm5NNeq2v5N4C9mnFdTw9e7myw6oVAfCWRGQAtYmZlqFRoJzF7udQMDnOTOacAkqWRGYBBjCTnOyB9oj8e56tmX+Sb9k7kcaI5zTmUrnoDBY8POlDWt9vvi9aqeJCABCUggCwIj22IMcg3G+4AgCzWrxhGBfBBwyqo5do88JJAlAS1gZWm2s16rj2zc/n4Cznf4YNY5MlR/weC7GMf0NNsf41+3W30HFxgcDWwU/7xKOGEBJwRmrHsd37l5LxuecH/qQAISkIAEMiTgNm0J78jlWAa8NUOFZ73UZ90575Wv45Kle1l/1jFUf3YEtICVnbnOfKXTl/kWVuBEg1O0cXtmbofoZLc7o1P9elrsjqRU3dDlUwm5ENglKZmVc2ICZtzmORri/oTgxKpUawlIQAISKIXAlCVeu2mOmQ5fAV5dijHUZywFvu85Tu09kNsxnWYcyxlSqKILaAGr6KTqMI4C0UaXAwN8xJ2LgbfHMaMylUDAedhznFg3iRXdTRYdPZyIz76d/pphZ4nD3okIrJATFnAYcuO/V9/Hj2iz6IksfSQgAQlIQAKjFti7019T43zG4VPAJqNuqAuTLDDszuf7+7nkxvn2dJILUXYJjFZAC1ijldJ1iRaIfqhPck4Fjkl0IQo/agFznnbj64PGguubk3VKyzFrvOZPj9MOfEKbso56yhN/oRkramrYP0mLrYlHVwESkIAEUiQwtcvfmgtpCxh5Gqs6RaWplJcRcLiTAie8ay63tJm+ANONkn4BLWClf44zX+HhC736sVr2xrgMeF3mQbIBMGCwIgfnrGix3yax5PouP8VCPgu8Mon5lXlcAv25Seyycn+7b1yt1UgCEpCABDIvUN/uHzDjfIw9cfS3XgbuCDMuGqrhorVN9vcMlKsSMy6gf9QyfgNkofypXb5tlXMhzgFZqFc1Eu179YPopMneVvtJUj0auvzdhFwBvCOpNSj32AUMruhpscPH3lItJCABCUhAAhDth7VJFXPMOQN4vUzSL2BwXxjwqWdfy/d1GEz65zvrFWoBK+t3QMrrn73cJz3fT30Ai4HNU16uyosEnD8YnPPM67g2yT/EZy7xzQtVrML5kCY2QwLO87V1bNPdpL0sMjTrKlUCEpBAUQWivTSHfOTQonnA5KJ2rs7iKWBcOQhnJW3bjHhiKlWcBbSAFefZUbYJC7z4AzzaS+hjE+5MHcRewIyn3bmqtpbPdzfZP2If+P8IGB080N/HNzAOAuqSXIuyj1lgUb7F5o+5lRpIQAISkIAEXhSoX+JvtNzIicb1QJVgUi/wd5zWR/u58c75NpT6alVgZgW0gJXZqU9/4Xss9OptNqIRpwuoTX/F2a7QYAhjbRhyTG+rPZQGjYZ2r8f4ml4BSMNsjqmGJ9mCbfMN9vyYWuliCUhAAhKQwP8nMKPTPxg6lwK7CSb9Ag7dg3D0DS32t/RXqwqzKqAFrKzOfAbqnr3ct+zv50b90M7AZBuOczcBh+bn2O1pqbi+3V9rxneAXdJSk+oYlUDB4CrthTUqK10kAQlIQAIvIxBtpdHXz2cNjgO2ElTqBZ5zaHr2fm64uc2GU1+tCsykgBawMjntGSja3Rq62B+nE8hloOJsl2g8jnPeuvv5Wpp+YEevEQ70cxOwp0OQ7UnOXPUP1tbypu4mG8xc5SpYAhKQgASKJtC42CeH1Sw2aARqitaxOoqrwM3rCsy6eZ49FdeAyiWBiQhoAWsiemobW4G5S7z2iYAHMF4d25AKViyBQYyVtTU0p/GP/emdfmTgnAdsUSww9ZMAAWcAWJpvtSMSkFYRJSABCUggxgJTr/KtcjluMBs52Vh//8V4rooQrYAzM9/Casyik7n1kUCqBPQPWKqmU8X8U6Cx3Q92Gzl5UJ90C0Q/mO+preUd3U1WSGOps9v9df3GrcDr0lifavo/BJzfvKaf3RZpM1bdJhKQgAQkMEGBhqW+nwUsdHjFBLtS8/gL3Hvf/bz9njY9xR3/qVLCsQpoAWusYro+9gKzl/tm/f08ppPbYj9VEw5oztOFgGmrm+3HE+4sph28uH/FXWa8Bde3pjGdplLF6sNYlm/mcNC3qKVCVr8SkIAEsiJQ3+GLgLkG1VmpOat1GhzQ02LXZrV+1Z1eAS1gpXduM1lZW5sHv9iek0Lj/EwCZKloY9jgsp5m+0zay57e4WcHzsmY9q5I+1z/Z30GdzDEjJ5D7NGs1a56JSABCUig+AL1HX6bwXuL37N6jJOAw1+DId7Yc4iti1MuZZHARAW0gDVRQbWPlcC+Xb7tUMhvgE1jFUxhii7gxs29zbZX0TuOYYf7LPY3T5rET93ZLIbxFKm0An0GXbvfzxFtbRaWdij1LgEJSEACaReY1envGA75PsaWaa818/U5R+Vb+bqe4s78nZAqAC1gpWo6s11MdGJbfz9nAacAk7KtkfLqnUdsiCk9h9ofU17pSHkNC30j6vg1sH0W6lWN/y7g8NNcgcNWzbO7ZSMBCUhAAhKYqEBju5/pxuk6lXCikjFv7zxSW2C37oPt7zFPqngSGLWAFrBGTaUL4y7QeKXvFE7iJoNt455V+cYvYMazwBm738dXs/RESn2Hf9HgpPHLqWViBZwBN5Zs08ex2tA9sbOo4BKQgARiI/Dil77LMWZpf83YTEspggwanNbTzJd1ImEpeNVnJQS0gFUJdY1ZdIGRH8R9fB7jGGDjog+gDuMiEBosrqnl+O4mixayMvNpWOpvIyB6Akf/bmdm1v+t0Nst5ISeuXZLNstX1RKQgAQkUDwBtxld7Bw6q3B2Kl6/6ilmAtFp3fcOD/CxtYfZn2OWTXEkMC4B/SE0LjY1ipvA9Gt952CQFcCb45ZNeYon4M5dQcD+PXP4fda+SXrxNcL7gFcXT1Q9JUXAYMhhSW0tJ3U32dNJya2cEpCABCQQT4Gpa7ym6h8cQsgFwOR4plSqIgg8Gzrnr26NDrjSicZF8FQXFRbQAlaFJ0DDT1xgSptXbboD5zkcoc3bJ+4Z4x6eNOeEmjqu6W6yvhjnLFm0xg7/gsOpJRtAHcdd4LeBc/qqVosW6/WRgAQkIAEJTEhg9nLfsn+Ac3GO1BPeE6KMbWOD0J1fMsh++cPsgdgGVTAJjFJAC1ijhNJl8RWY3uG7BNCOsZve44/vPE0omRNawCVDNVywtim7G1FO7/CdA7hnQpZqnFwBJ8RYVp3jzOsOsgeTW4iSS0ACEpBAHATa2jy4cyf2MGexO7vGIZMylETgKTO+3NPM5/UUVkl81WkZBbSAVUZsDVV8AT19VXzTmPb4MwKOzv+RO2mzMKYZSx5r6gKvqdqce4HXl3wwDRBPAePRaDP/njlcnbXXaOM5IUolAQlIINkCH+/wjWucORgX6k2GZM/l/5E+dLitKqRl5VyLtqPQRwKJFdACVmKnTsEjgfpOfwfO5Wa8T09fpfaeeGDWy10AACAASURBVMLgVN+CZfkGez61VY6ysMZ2P9Ff+CVTn2wKOMZah9N6m+2X2SRQ1RKQgAQkUEyBxsW+jVdxOgFH6vfpYsrGqq9/AJfmWzhXT2HFal4UZowCWsAaI5guj4/A7Nme62vgXIOjtflkfOalyEkK0SPPQ0NctPbg7L46+P+bzujyXcOQXxXZWd0lS+A5c46qqaOru8kKyYqutBKQgAQkEDeB6DTvgQE+4s5XgLfFLZ/yTFzgxb2wbso58/UU1sQ91UPlBLSAVTl7jTxBgVkdvvMwXIrxUX1bNEHMuDY3bg8DTl59IDfrdakXJmnmEt88rOIW7VUR15u2PLkMfl8wDl3dbLeWZ0SNIgEJSEACaRaYssRrJwcchnGevhhO6Uw7f3e4qLeFi/V7dUrnOANlaQErA5OczhLdGjs4xeEUva+fzhkGog0n257Zlstu3suGU1vlGAubcpNXbfwI+wchnWNsqsvTJRC9SnhGbpjLV86zp9JVmqqRgAQkIIFKCMy4xrcLhzgHmFuJ8TVmyQXcjXwYcOwaHQZTcmwNUBoBLWCVxlW9llhg5lLfcdi4yIxZJR5K3VdCwIjOW1s6XOBkvTr4HxPgI4u3u7pxl468rsTNGZ8xzegrwN56Cis+c6IkEpCABJIu0Njh+zt8Adg+6bUo//8WcHgMOKe3xb4hHwkkUUALWEmctaxnXn/kb8NOHGEh5zi8Iuscaaw/ej0qdM7qbbVvprG+idY09SrfqqqKpcC0ifal9okX+G5hkMPWHGoPJr4SFSABCUhAAjEQcGts53NunATUxSCQIhRZwOHawgAnrj3M/lzkrtWdBEouoAWskhNrgGILNHT49gbnOhxU7L7VXywEnnHj0t5mOysWaWIY4vCFXv2XOhocvh3DeIpUXoEwgJlPb8davWpbXniNJgEJSCCtAtOW+TuDAhcZfGT90zpBWuvMcF0PmHHm7vdxTVubhRl2UOkJFNACVgInLcuRXzwlZX93vgi8NssWKa09OlHtu8MhR6+da/eltMaJl+Vu9V3sRsh3zdhy4h2qhyQLGDxhw3xo1Tx+q01ZkzyTyi4BCUggPgKNXX4EzunubBufVEpSNAHjShvkcz2H2KNF61MdSaAMAlrAKgOyhiiewIyrfLswx1kYhxavV/UUC4Fo3yt4yOHs3mZbEotMMQ4RvUZYXT3yi+WnYxxT0colEHLJ8NacsnaaDZRrSI0jAQlIQALpFZi93Ov6+/lq9MaDQW16K81sZfdinFJbQ767yaIvkPWRQCIEtICViGlSyEhgSptXbboj0xwuwbWxZArvij6MZevu48ib23Tq4IbmNzqNcPKfqTdnuUP1hq7X/z/dAgZDGJ/oabaedFeq6iQgAQlIoFwCDR3+EXO+5Mbb9SphudTLOs4lVXD+ihb7W1lH1WASmICAFrAmgKem5RWY1eFbDzknm3F8eUfWaGUQiN6//7U7R/S22k/KMF4qhmhs97e7cQXwnlQUpCImKvBIFeyuX0Qnyqj2EpCABCTwT4GGTj8N57OgLQvSdle4cbc5n8k3c5O2IEjb7Ka3Hi1gpXduU1VZW5sHt+/InoGzENg5VcWpGMx5OoyO9G21L4tj9AJTu3zTXIFPmXH+6FvpyjQLWMCXeuZwItF/VfpIQAISkIAEJigwtcu3rQrpBD4I5CbYnZrHS8Adzqqr5avdTfZ0vKIpjQReWkALWLozEiEQ/aFeVeBIjAsSEVghxyIQPX11a20t+3Y32T/G0jDr10aHGvT3MdWNRQavybqH6h8RGMCYl2+2a+QhAQlIQAISKIbAjC6fFRb4BsbWxehPfcRHwOCnofGp3mb7eXxSKYkEXl5AC1i6OxIh0LDU30ZAB7B7IgIr5FgE/hE4n1zVajeOpZGufUFg2jJ/fS7kczjzZCKBFwV+NTzMR9cebH+XiAQkIAEJSGCiAtG+m5s+zFKHTwJVE+1P7eMjEO2h6c4x9NOZn2/PxyeZkkjgpQW0gKU7I/YCs7/sdX1bsb/BIlw/NGM/YWMM6MbXe+dwlN69HyPci5cffodX/+W3zHfnUm2wOj7DFLYaMLhyVTPHmOlVwhTOr0qSgAQkUHaB6R2+SwCrgdeVfXANWGqB79ogn+o51P5Y6oHUvwQmKqAFrIkKqn3JBT5+lW9XUzXy7v2HSz6YBii3wCOFHHuuOcgeLPfAaRpveqe/P4ALcfZMU12qZUICT5hzbk+rRQub+khAAhKQgAQmLFDf6UcbLMDR35AT1oxVB89htNbWkO9ussFYJVMYCfyHgP7x0S0Ra4GRR5YfZJobyzFqYh1W4cYq4BRozc+zaHFSnwkIzFzimxcCTsc4YQLdqGm6BKK95e7wAnN659kf0lWaqpGABCQggUoIRHvSTnJ+FDq7VGJ8jVlSgW9aFZ/uOdD+WtJR1LkEJiigBawJAqp5aQVmL/fNBgZY4s6s0o6k3sstYM5d3s+eet++CPLuVt/JAcbIaYR6tL8IpCnpoh+4do/7OaStzaIFLX0kIAEJSEACExJobPfd3LhdJxJOiDF+jZ3nrYqpNdX8qLvJCvELqEQSeEFAC1i6E+Ir4G7TOnlPDm4BJsU3qJKNVcBhKFdgj1Xz7O6xttX1Ly0wbYm/OpcbWcCaKyMJ/H8CT7nx1d5mO0sqEpCABCQggYkKjJyA3E8vsM9E+1L72AksqF3H6d1H2bOxS6ZAEnhRQAtYuhViKzClzasm7ziyr89xsQ2pYOMV+GZtLYd2N+kH5HgB/7NdW5sHd2xPmxmn6oSgYqmmox+DHwOf7mmxO9JRkaqQgAQkIIFKCsy6zrcuPMsfHSZXMofGLq5A9AWzwZvzLfZAcXtWbxIonoAWsIpnqZ6KLDD1Kt+qqppHdfJgkWEr3Z3x19ww/7Vynv2p0lHSNv6MLt/VnS+587G01aZ6JiTgDksG4dgbWuy5CfWkxhKQgAQkkHmB2cu9rn+Az+GcpDd6UnY7OMfW1nG5XiNM2bymqBwtYKVoMtNWSuMyP9ILXJ62ujJeTyEIOGPSJL6mp6+KfydMWeK1k6v4Es7hegqr+L5J7tFgKISv1NXS1t1kfUmuRdklIAEJSKDyAjOu8u3CHDdgvKXyaZSgiAIP2RC79Bxi64rYp7qSQNEEtIBVNEp1VEyBhoW+kddxj8Hri9mv+qq4wC+qnP1XtNrvK54kpQHqO7zhxc3c35bSElXW+AUeAs5Ytx3X3LyXDY+/G7WUgAQkIIGsC4x8aZZjf2Ch9qpN193gzr69rbYiXVWpmrQIaAErLTOZsjoaOn0mjv7hTNe89plzdE0d1+gJkNJNbHTEdVXIIuATOiGodM5J7dmcFZbjjFVz7J6k1qDcEpCABCQQD4GGDt8euBL4SDwSKUUxBBxuKjzF1LXH2kAx+lMfEiimgBawiqmpvooiMHWN11Q9QR7t41MUzxh18h0KHJefZ7+LUaZURmns9CPdOR14bSoLVFHjF3BCjAWDxoXXN9tj4+9ILSUgAQlIIOsChy/06r/U0RDtswhsmnWPVNUf8J78HLs9VTWpmFQIaAErFdOYriIalvi7yXELUJuuyjJdzZPuHPlYP9fdOd+GMi1RhuKnLvetcv1802CKNlctA3jyhug3OCco8PWV8+yp5MVXYglIQAISiIvA9Kt8h6CKLwBN+p0jLrNShBzOkvwDHEqbhUXoTV1IoGgCWsAqGqU6KoqAuzV08HVs/T+YkCtKn+qk0gLREx9X5wq0rZxr91U6TCbGb/OgYQfOAD4DbJGJmlXk2ASM+905pq6WG7ubbHBsjXW1BCQgAQlI4AWBtjYP7tiB6QEsdHiNXFIj8AzwznyLPZCailRIKgS0gJWKaUxPEQ1X+PZM4gcY26WnqsxX8pDBcT3NrMDMM69RJoDoG1GrYqXBrmUaUsMkTMDh+qqQo1bO5X7Qf5sJmz7FlYAEJBAbgX27fNvBkNPMOAynKjbBFGTcAtHpxR5wdn6OnTfuTtRQAiUQ0AJWCVDV5fgF6tv9eDPOBjYZfy9qGSOBYTeuIOS83lZ7JEa5Uh9lyk1eNflhLgIOAzZOfcEqcDwCbtHTkSGfXtFqT4ynA7WRgAQkIAEJRAKNnT4d58sOb5JIKgSiL53vrnI+ot8RUjGfqSlCC1ipmcrkFzJ9mW+RK7DK4f16fTD58xlVYPB7Czhl1RwdxVuJGa3v9HeYkwc90VgJ/0SMaQzjXL6uwMk3z7P+RGRWSAlIQAISiJ3A1Kt8q1w1p0QnTgOTYhdQgcYj8KQHHNKr3+PHY6c2JRLQAlaJYNXt2AVmdPjeDleu/59tx95aLWIoMOjOompo0zc3lZmd6HSgx+pY7LC/wfqp0EcCLyHgrCNgfr7ZrpGPBCQgAQlIYLwC0VNY7lwA7DLePtQuVgLDwNp197PvzW0W/e/6SKDiAlrAqvgUKEAkEG0A+fMdafeQ2Rg1Ukm+gMHdIZze22LRE0D6VEhg+jLfIyhwI7B5hSJo2AQIGPzJhvnQqoPt4QTEVUQJSEACEoihwNQu37Q65CyPnsLS7/MxnKGxRzK4LzT26222X469tVpIoPgCWsAqvql6HIfA9A7fOWdc7c47x9FcTeInEL2KdMUAnHpDiz0Xv3jZSfTiXlhrgI/qeOvszPt4KnX47TZ9vGPRfBsaT3u1kYAEJCABCTR2+j6EnO+m3+lTcjdEpxF+Nd9i0enW+kig4gJawKr4FChAJFDf6SeacxLwSokkX8Ccu8IcJ/TOse8lv5rkVzBtib8zl+MO7S2X/LksaQWGE/Lz/AO8hzYLSzqWOpeABCQggVQKzF7uk/oHRl4jPAKnLpVFZquoaDP326yKWT0H2l+zVbqqjaOAFrDiOCsZyzR7uW/ZP0C098rH8Gjfb30SLtCHs2SPBzimTX8Ex2Mq3a2+k3sM3hKPQEoRWwFj2OH63marj21GBZOABCQggVgLNHT4h4EvA7vHOqjCjVbgQYMTe1qse7QNdJ0ESiWgxYJSyarfUQs0dPlUQi4G3jrqRrowtgIOd7tx1OpmuzW2ITMYrOFqfwvD3KPXCDM4+WMveZ0ZX9r9Ps7VIvTY8dRCAhKQgASgsdMvcecwYCN5JF4gdGPVY8/zyTu1zUDiJzPpBWgBK+kzmPD8bTd51Z0Pc5nDPJ2SlvDJfCF+H0ZHvtmOSEU1aSrC3Ro6uBvjbWkqS7WUTOBPHjL/XX/iRi1ilcxYHUtAAhJIrUBjl+/pIZdhvF1vWKRimu8g4FP5OXZ7KqpREYkV0AJWYqcuHcGnd/guBgsM9kpHRZmuInpH/l4LObRnrv0o0xIxLb6xw9/lcJv2worpBMUv1h2EzM3PjZ7cs+i/b30kIAEJSEACoxZo6PTLop8jmJ7CGjVafC98wuCSmlrO726yQnxjKlnaBbSAlfYZjnN9bR407MhhBme4s22coyrbhgUcopMHO3tb7PANX60rKiHQ3OEbPwXfh/WbdOsjgQ0LRLsSfr8Q8qk1rfb7DV+uKyQgAQlIQAL/Epi61PesCriCF/bg1N+dyb858tXG/Oua7bHkl6IKkiqgf0iSOnMpyD19mW8RFEY2eJybgnKyXUJ0ehk8UHAOXNNiP802Rnyrb2vz4K4d+VDB+S5QFd+kShYjgeg0wtVVzgkrtIgVo2lRFAlIQALJEGjo9IVAs04kTMZ8bSDlrx1O622xfCqqURGJFNACViKnLR2hp3f6BwPni8D70lFRdqtwGApgaY+evor9TTB7uW/VP8AynI/FPqwCxkJg5L9vY3lQ4HMr59p9sQilEBKQgAQkkAiB+nZ/nwV0AdtrL6xETNnLhzT6CLmsto6zupusL+HVKH5CBbSAldCJS3rs2ct9Ut8AnwZON2ezpNeT9fwGj4VGfW+z/TzrFnGvf0qbV22yEx+xkOjbs0lxz6t8sRFYByyuDvjSdXPsz7FJpSASkIAEJBB7gYYOv9KhRQc2xX6qNhzQWYtzYn6u/WbDF+sKCRRfQAtYxTdVj6MQmLbMXx8UOM/goFFcrktiLmBGV0+zNcc8puK9KFDf7q+1gEtx9hOKBEYr4PCYGV8eHOCq6w+1f4y2na6TgAQkIIFsC8xc6nsUAlYDr8q2RPKrN/hzGHJWbytLMR3wkvwZTV4FWsBK3pylInF9hzcYXAS8ORUFZbkI41mHD+vpq+TcBFNu8qrNHmZqCNeCTgZKzszFIum9Zpzb76y8ocWei0UihZCABCQggdgLNHT6N3GaYh9UATck4O5cVlfH57qb9GXWhrD0/y++gBawim+qHjcg0LjYJ3s1x42cPgjVAku2gBk9Pc02I9lVZC/9vl2+7XDI2Q4HZ696VTwRAYe7zTm5to7vdTfZ4ET6UlsJSEACEsiGQH2n727OD4G6bFSc6ip/aCGn9My1H6W6ShUXSwEtYMVyWtIdanqH7xLAF4CGdFea/uoc+nMB71k1x+5Of7XpqnD2cs89/xwzLOAqM+1Dl67ZLX01Dr/EObyujju7m6xQ+hE1ggQkIAEJJF2gvt2/a8ZHk16H8rMO5/TaOhbqiyzdDeUW0AJWucWzPp67NXbyCYfoSN0tss6R9Prd+F5vs+kXkYROZONi3yas4lQzjk5oCYpdSQHnVxawX08z94H2wajkVGhsCUhAAkkQaGz3t7txJ1CVhLzK+H8KLHLnnN5We0ROEiingBawyqmtsdj7St+yuobPRK8P6ijdxN8Qw4UC714zz+5KfCUZLaCtzYOfv579PGABxqszyqCyJyZwz2AtH7xe+2BMTFGtJSABCWRBwN0aOoleO3tfFspNeY2/NufYnla7KeV1qryYCWgBK2YTkvY40TcvIVxixl5przXt9ZlxW00NH+tusmfTXmua65vV7q8YNk4HjktznaqtRAKG4/xp3f286eY2Gy7RKOpWAhKQgARSIrBPl797UshtDkFKSspmGcYwIcfXPsGV3cdbXzYRVHUlBLSAVQn1jI4Z7bkz2Mes0EZOPstllCEtZbsbH3nXfdzS1mZhWorKZh0jr/U2uPNF4C3ZNFDVRRB4fI/7eZX+PSiCpLqQgAQkkGKB6DAnJnGLO+9McZlZKW3xi68RPpSVglVn5QW0gFX5OchMguhJjxCOD43TMlN0Sgt1+PUk4+PXNdtjKS0xU2U15H0jf5JzDI4H9HMhU7NfvGId/nJ/La+/RycTFg9VPUlAAhJImUD0hXb/ADOBbm0nkvjJfcRyNPccpNcIEz+TCSpAf6gkaLKSHnVGl+8aOktxdk96LRnPHz1xdfi6Astunmf9GbdITfn1nT4lcC5weG9qilIh5RUw3J17Pcf7Vx9kT5Z3cI0mAQlIQAJJEYgOkfFqvg+8OSmZlfOlBRw+PQiLb2ix52QkgXIIaAGrHMoag8MXevWjtcwwo1sciRf4nRkze5rt3sRXogL+R2DqAq+p3oJz3UdOJKwTjQTGKRA63IGzr04mGqegmklAAhJIucDHO3zjmuj3DeM8bSuS8Ml2lheqOGnNQfZgwitR/IQIaAErIROV9JgvbhR9BvCZpNeS8fwFN86tGubSlfPsqYxbpK78GVf5W8Mqvgp8JHXFqaDyCUQbuzq3AIfmW+yB8g2skSQgAQlIICkC0zt858BYi/P6pGRWzpcUiP4emLnH/dyqfTB1h5RDQAtY5VDO+hjuNmMZO7uzyp2dss6R8PofyjmzV7bazxJeh+K/hEC0L8XAAKe5jyw0bykkCYxbwBjEuYECJ+bn2e/G3Y8aSkACEpBAKgUarvZX2hBnYByjEwmTPcVmfLamhkU6mTzZ85iU9FrASspMJThn9PrgI3XMDGB5gstQdMOBRR5yrl4NSu/tMKvDtx6GJcDeeqw/vfNcpsoG3flOGHLGmnl2d5nG1DASkIAEJJAIAbf6dvY0YwXwykREVsiXFDD4blXAwdfNsT+LSAKlFtACVqmF1T9Tu3zTKucinMPFkWiBJy1kbs+f6KXNoo3c9UmpQEOHH4JzDsY2KS1RZZVJwGEIZ20Y8rk18+yuMg2rYSQgAQlIIAECM5f4G8Ic5zvsn4C4ivjyAn2B8dHd7uM2vUao26TUAlrAKrWw+qehw7c3uMVhW3EkV8CMnpxzyooW+21yq1Dy0QjMvsw36d+ERcC+GDWjaaNrJPByAgZDDt8Zdj63ttV+ISkJSEACEpBAJDB7uU/q6+cTBt8AJksl0QLH1daysLvJ+hJdhcLHXkALWLGfomQHbGvz4PYdqQ+cVcmuJPPpn3M4+ZUFFi+dZ/2Z18gAQEOHf9igSwvPGZjscpT4wsbuN7hxWm+z/bIcQ2oMCUhAAhKIv0Bju+/mxleAD8c/rRL+H19W3RTtk7ui1Z6QkgRKKaAFrFLqqu+Rb1b6B7gM51BxJFjA+VkYcsLqeXZrgqtQ9DEIRHvX/WVjzvKQzwJ1Y2iqSyXwcgIFgxujeyo/134jJglIQAISkEDjYp/sk/gUztmgp74Te0c4z6//Gf+BnhbuwizaN1cfCZREQAtYJWFVp/8UmHqVb1WV4zcYW0klmQLRHjYGF/b1cdGN8+3pZFah1OMRqF/ur7V+fgJsN572aiOBlxAoAD/0HIf1HmR/kJAEJCABCUigsdP3CZ1LDd4kjeQKuHPMsw/wjZvbbDi5VSh53AW0gBX3GUp4vukdvncA30l4GVmP/yd3TulttW9mHSJz9btbQzuzCVgGVGWufhVcKoHom9nbCzma1hxkD5ZqEPUrAQlIQALJEGi42l/pBc4wOHb9k1j6+zQZ0/a/Uzo/Gt6K/147zQaSWoJyx19A/0DEf44SnbCxwxc7HJzoIrIe3mi3Kk7rOcAezTpFFuufusZrqh7neu1NkcXZL2HNhuPcY0N8vOcQ/dtSQml1LQEJSCD+Au42vYN5gXE+sHX8AyvhywgMDBnv+E6z3SshCZRKQAtYpZJVvzTkfSOe5G/AxuJIqIDzlMG5uz/AJToWN6FzWITYjZ3+Znd+V4Su1IUE/lPgIa/l/b1N9ohoJCABCUgguwLTO3yXgJEFrPrsKiS/8oJzxJpWW5j8SlRBXAW0gBXXmUlBrunL/KNBge+moJTsluD8KAg4aVWz/Ti7CKocd2vs4lh3LpGGBEog8IwZe/Q02x9L0Le6lIAEJCCBBAhEJ5ffuQOnAqfr8JgETNjLRTRuzzfbexJcgaLHXEALWDGfoCTHa+jybxAyP8k1ZDm7O0MYC3pb7IQsO6j2FwQaV/lkf5roNdJNZCKBYguY0VeAj66ew090elGxddWfBCQggWQINHb4vu6ch/GWZCRWypcSCKp53aoD7GHpSKAUAlrAKoWq+mT2cp/U38/fgU3FkViBh4Bz8i22OLEVKHjxBNxtZgfvLhi3ApOK17F6ksCLAs46CzizpoZF3U3WJxcJSEACEsiWwJQlXjs5N3Ia4aEOQbaqT0+1HjKnd65FBwDpI4GiC2gBq+ik6jASaOzyPcOQmwyqJZI8AYMwNFZVhxy2otWeSF4FSlwKgaldvml1gQVutJaif/UpAWAdsJg+zsvPt8clIgEJSEAC2RJo7PRPO5yK86psVZ6iao21+fvW72XWZmGKqlIpMRHQAlZMJiJtMRq7/FwPR95jz6WttozU86Q7l/a22tkZqVdljkbA3WZ18rZhWA28bjRNdI0ExiHQ53Adzmm9rRY9CaqPBCQgAQlkRGBWh+9SgAUOUwD9rZrMeR8crmXbtU0WvY2jjwSKKqB/FIrKqc4igblLvPaJHD/F2BXXD54k3hXu3OUFjlp9sDZvT+L8lTJz9Hj/plXs586VQG0px1Lf2RUwGHJYU3BOWtNqv8+uhCqXgAQkkD2Bhg7/CnA4sFH2qk9+xdHP8MBoWtlsK5NfjSqIm4AWsOI2IynIM22JvzOX40bgFSkoJ3MlOAyZ8618KweBeeYAVPAGBWYu9R3DgEsdpm/wYl0ggfELhA6rHU5b3cxvtLn7+CHVUgISkECSBBo6vcmcLzjsmKTcyvo/AqFBV0+LacsJ3RRFF9ACVtFJ1WHDUj+OgHOBjaWRQAHjr+6c29tilyUwvSKXQWD2cs/19/Ph9YvUXwXeWoYhNUR2BTx6EsuNL4Sv4M6102wguxSqXAISkEA2BPa+0recNIlOYG9tR5LYOX8ozPHO1QfZk4mtQMFjKaAFrFhOS3JDTV3gNbnN6TXYSz9wkjeP0ebtDne4M1t7zyRv/sqZ+KMLfbO6jTiCkLMxaso5tsbKpMAPHBZ5jrX6ZTiT86+iJSCBjAlM7/DPm3O0GZtlrPS0lPtU4Mxe1WrRWzn6SKBoAlrAKhqlOooEprX7m3JwPcYbJJJIgX6Hq3tb7JBEplfosgrMWOK7hjm+AOtPmtFHAqUXuNecZTlj4YoW+1vph9MIEpCABCRQKYHGDn+XQwewc6UyaNzxCzj0A5f1ttgJ4+9FLSXwvwW0gKW7oqgCje3e6sZF6//B2qqoHauz8gg4fwmMuata7PryDKhRkiww5SavmvwQ0zE+D+yS5FqUPTECf3enN6jm1J4D7a+JSa2gEpCABCQwJoFou4K+Pq4LjKkO1WNqrIsrLvDiWx132hD/3XOIrat4IAVIjYAWsFIzlfEopLHDuxw+AXqlKB4zMqYUoRu32fN8LD/fnh9TS12cWYHpy3yLXIHTgWP1C2Zmb4NyFz5ocEMhR4teJyw3vcaTgAQkUD6BGR1+VAjnAFuWb1SNVESBh8yZ2dNqvyhin+oq4wJawMr4DVDM8huv9ld5gTzwLhzdW8XELU9f0euDC3pb7OTyDKdR0iIwo8vfWnAuNNephGmZ0wTUEZ2Qekt1wJzr5tifE5BXESUgAQlIYIwCszp86yG42eAtoL8txshX8cvd+QfGWToYquJTkaoAWmRI1XRWtpiGDv8wxhU4b6xsEo0+LgHnHxbw3p5m++O42qtRZgVGTiUcoAEfOX1UrxJm9k6oSOG/JuQL+bl2TUVG16ASkIAEJFBSjvCC3AAAIABJREFUgYYO/xYwA6gq6UDqvBQCw26s6Z3DTMyiL570kcCEBbSANWFCdfBPgentfmZgfEaP+Sbynoh+qNy2x/18oK3NwkRWoNAVFWhY6BtRxwKHFtNeFRWdi8wN7vzdjeW9LXZ05mpXwRKQgARSLtDQ6fvhLAEmp7zUVJbnzl3RAqRON0/l9FakKC1gVYQ9fYNOXeM1VY9zHTBVj/gmcH6dkIDT8s32xQSmV+SYCDRe49uEQ3QZ7BWTSIqRFQFnwIxbe1rsY1kpWXVKQAISyILA4Qu9+i91/NZhxyzUm7oajfvdOaa3xdakrjYVVBEBLWBVhD19g0Z74HjIVQ7vTV916a/IjL6hV7DF2mk2kP5qVWEpBRo6/CMOXzd4UynHUd8SeAmBaPfFH2++NXt37m3PSUgCEpCABNIh0Njp3e7spy/JEzmfzxh8o0d77CZy8uIYWgtYcZyVBGZqWOoHEPB5YIcExs98ZIdbe1vsQ5mHEMCEBdzdZnSwxI1PArUT7lAdSGCsAsbPzTi2ZhK3dzfZ4Fib63oJSEACEoiXwIxO/6A739Npx/Gal9GmcbgxGGLfnkNs3Wjb6DoJvJyAFrB0b0xYoM09uKOLSwM4xJ26CXeoDsotEO1/1Zpvsc5yD6zx0ikwtcs3rQpZjfN+jCCdVaqqmAv8zeCrQYGvrZxnT8U8q+JJQAISkMAGBBo6/H5ge0ElUuDOMGT+6rl2ZyLTK3SsBLSAFavpSGaYvTv9NdXOFQbTk1lB5lM/s0czW7SZNm/P/J1QRIDGa3w3H+LbGG8gerFLHwmUW8AYBhbZIOfVTOav3U1WKHcEjScBCUhAAsURqO/wRQaHFac39VJOAYM/O5ybb7FF5RxXY6VTQH9UpHNey1pVY5fv6SFfBt5T1oE1WLEEvpNvsWjzfX0kUFSB6GTSnHGmHvkvKqs6G4uAER1Rca05l/UH3HVDi/bGGgufrpWABCQQF4H6Tn9H4Nyu3yniMiNjyjG4/gvNpY8+z9F3zrehMbXUxRL4DwEtYOmWmLBAY6cf6XAGzjYT7kwdlFvAPeCA3jn2zXIPrPHSLzB1gddUb8ZyNxrTX60qjLOAwS/cuXKwjmuvb7J/xDmrsklAAhKQwEsLNLb7H910GmFC74817hze22qPJDS/YsdEQAtYMZmIpMaYssRrNwm4yIwjgKqk1pHh3E8MB+ywdo49k2EDlV5Cgcar/VVe4Hqcd5RwGHUtgdEIPIuzwAZZ0HMYfwOL9v/TRwISkIAEEiLQ2OFfczgqIXEV898F7gBOyLfYDwQjgYkIaAFrInpqy7Rl/vpcYeT1wX3FkUiB3nUFZt88z/oTmV6hEyHQ0O4zMK4BHfKQiAlLd0g347JgmG9Xb8yt2hcr3ZOt6iQggXQJNHb4uxx+BExKV2WZqOYvZpzX02xfy0S1KrJkAlrAKhltNjqe3u57BcYF2v8qgfNtuBsH1E3iW/ojLoHzl6DIeyz06m3qOAc4JUGxFTXNAs5tZqzoabEL01ymapOABCSQJoGGhb4RdfwS2ClNdWWklmGDhTW1nNjdZH0ZqVlllkBAC1glQM1Sl/UdfpTB2cArslR3Smr9mzvv7m21h1JSj8qIscDsq3yrviouNmiJcUxFy5KAsw5jSW0tp3c32bNZKl21SkACEkiiwOzlPqm/n4uBY5KYP+uZoy+O3PlsvsUeyLqF6h+/gBawxm+X+Zazl/sm/f0jT1V8GggyD5I0AGNtVUjzilZ7ImnRlTd5Am1tHtyxI+8Elpqza/IqUOKUChQcunOwdFWLXZ/SGlWWBCQggXQIuFvDUt5LjmgfJb1GmLxZvSMXcMrKOfa95EVX4rgIaAErLjORwBwzl/qOBeMLGE0JjJ/5yIFx8OAruHrtNBvIPIYAyiIQHfowGfb3gEXr90GoLsugGkQCGxYoAL8Frsu32Oc2fLmukIAEJCCBSglMW+KvDnL8yGCHSmXQuOMWeHL96SltvS22YNw9qGHmBbSAlflbYPwAM9r9o6HxRWD38feilhURcP7hAR/pncOvMJ3EVZE5yOig05f5FrlhjnYbeXpTHwnERSA6kfApjOWFYdrWzLO/xCWYckhAAhKQwL8EZi7xzQvGVwiYK5dkCRiEDgtsiLN6DrF1yUqvtHER0AJWXGYigTmmL/UjA+NijI0SGD/Tkc25zY0D9Q56pm+DyhTvbtOu5nVBgdMNDqtMCI0qgZcViDaWvSuEBatb7Fo5SUACEpBAvARmL/dc3/P8twV8B9DfsvGang2nMZbbAKf3HGp/3PDFukIC/1tA/9HrrhiXwNQu37TKORnntHF1oEYVFXDn1EKOy9fOsWcqGkSDZ1Ig2g/rzh2YAnwZeEcmEVR0fAWc0ALWhc7Fj/XxxTvn21B8wyqZBCQggewJNFztb2GYG4HXZq/6xFd8B3ByvsW+n/hKVEBFBLSAVRH25A86c4m/IayizZ3W5FeTuQqec2ef3lb7YeYqV8GxEYi+QR0Y4HD3kUWs2tgEUxAJ/EugYLA2KHDmynl2l2AkIAEJSCAeAvt2+bZDBRZhTI1HIqUYg8AzBif0tNgVY2ijSyXwPwJawNLNMC6Bxi7f052Lcf5rXB2oUSUFfuVGS2+z/bKSITS2BGYv97q+AU4151SgSiISiKnAOncO3qafVYvmMwzaNzCm86RYEpBARgTmLvHafwQc6MaVeo0weZNuxrk1z3Bh91H2bPLSK3GlBbSAVekZSOL40RG27exPwOXA5kksIcuZ3bk0GOT8nsPsr1l2UO3xEIhOE8pVcW70NKehkwnjMStK8Z8CDm7GGeEQ1260CQ92N1l0cqE+EpCABCRQIYGGJf5f5MgDr6xQBA07XgFjSSHg7DUH2YPj7ULtsiugBazszv24K/94h29cYxyNc8G4O1HDyggYg6FzwOr7WUmbhZUJoVEl8O8C9e3+gSDgCx6yJ0YgHwnEWOABDzmsbiN+3N1k0Ybv+khAAhKQQAUEZnT5W8Nw5Ams91VgeA05AQGDW73ASfl5dtsEulHTjApoASujEz+Rsuvb/bXYyAliR06kH7WtiMADwLx8i/2gIqNrUAm8pIBbQ8fIiYRnANsJSQIxFwgJOdKM23pa7Vcxz6p4EpCABFIpMKvdXzFsHAecnsoC013U3w2O6mnmW5hey0/3VBe/Oi1gFd809T3Wd/o7cL5isFfqi01fgb3BMCevOtjuSV9pqijJArPbfFL/DiO/hB4NbJnkWpQ9GwJu3GUhpw1vxffXTrOBbFStKiUgAQnERMDdGttp8IBrgbqYpFKMUQpEG7nX1HK5nmYeJZgu+x8BLWDpZhibQLT/VQf7AO0YW42tsa6usEBh5Mm5QS7vOcTWVTiLhpfA/xKYvdw36Rvg8+YcDEwWkQQSIPAsASdbyM96Wiw6GlwfCUhAAhIok8D0Tv9gzrnS4U1lGlLDFE/gq9XG+dc122PF61I9ZUFAC1hZmOUi1jhliddOztECLCxit+qqPAJPuHNEb6t9qzzDaRQJjF2gvt1fFwR81X1koXzS2HtQCwmUXWDQ4EduXDb8JL1rj9XTWGWfAQ0oAQlkUqB+ib/RAj6P0ZRJgCQXbdwQGCesmmN3J7kMZS+/gBawym+e6BEbFvorrY7jnZFj7/VJlsAdgXH8qma7NVmxlTZrAjM6/YP+wjeqb9Tx2Fmb/YTWazjOnxyuIscNvQfZzxJaiWJLQAISSIzA7OVe19/PfIMLXScZJ2beXgz6FzNaeprtu0kLrryVFdACVmX9Ezf69GW+Q1DgS8DMxIXPeGCDb1DNuT0H2KMZp1D5cReI9rXo5JMOi4GN4h5X+STw/wk8B9zuzjcG/0bvDSda9H/rIwEJSEACJRJo7PB9Hb4ObF2iIdRtCQQMwoJz8GvfxtWL3mVDJRhCXaZUQAtYKZ3YUpXV2OHvcli+fg+s7Us1hvotvoAZfaFzyrP3c/nNbTZc/BHUowSKKzClzas23YF5DouK27N6k0CJBaKnsUL+CHzfjCu1N1aJvdW9BCSQaYEZnf7+0LkYeF+mIRJYvMGZQYGvrZxnTyUwviJXSEALWBWCT+Kws5d7bmCAfUJnhekx3WRNofMoASfkm+2aZAVX2iwLTF3gNbnNOMps5KlPfSSQNIF+4NdBwBfD51iTn2/PJ60A5ZWABCQQd4Fpy/3VVf2c4XBU3LMq378LmNFuVZy56gB7WDYSGK2AFrBGK6XraMj7RjzNXEIuE0eyBAxuLRinrG62HycrudJmXWBql29aHfJFhyOybqH6Eyvw4PrX7u8Cjsu32AOJrULBJSABCcRQIPqCva9/ZPHqiwa1MYyoSC8v8Atz5va02q+EJIHRCmgBa7RSuo5Z7f6KYeP06JdwcSRLwI2vVQ1zph7RTda8Ke0LAjOX+BsKOb4JvEcmEkiigMOQGX8KnEsn1XJFd5MNJrEOZZaABCQQR4GGTj+AkIsxtoljPmV6GQFngALT8vO4CTOXkwRGI6AFrNEo6Zp//REZ0I7xIZEkSuA5d87ubYl+sOuHQ6JmTmFHBNraPLj9DewWGGsxthKLBBIs8Oz611z+/lgfu9ypVwoTPI2KLgEJxEkg2gfL4QJ3PhinXMoyKoF56wpce/M8i16710cCGxTQAtYGiXTBPwVmdfguw/BTnQqWrHvC4M8OZ+ZbbGmykiutBP4lEL0iMNjHXqFxPRDIRgJJFjDow1ja02yfSnIdyi4BCUggDgIzl/jmw1Wca87RccijDGMSOCdX4Ct6S2RMZpm+WAtYmZ7+0Rc/5Sav2uRPTLUcPaNvpSvjIOBwUwAn6SSsOMyGMkxEYI+FXv3aOmYCy1wHSUyEUm3jI/AQBfZ+zSD3LZqvY8TjMy1KIgEJJE2gvt1PNONzwMZJy57lvOasCuGo3lZ7JMsOqn30AlrAGr1Vpq+cvdzrnh9kfhDylUxDJK94X78fwKJ12/KZm/fSo7nJmz4l/k+B5g7f+GlnnhsX6JdU3R9pEHCIXpv49uBzHJ8b4um1x9pAGupSDRKQgATKKdDY7q1unAtsV85xNdbEBPyFN0U+vrrFfjuxntQ6KwJawMrKTE+wzujR3DDgS24cPMGu1Ly8As+acXFPs51d3mE1mgRKJzCrw7cehmPN+LQ7m5RuJPUsgTIJGI7zO3MuHghY+777+Gtbm4VlGl3DSEACEki8QH27vy+wkVOLtQ9W8mZzyh7N3Npm+rmXvKkrf2ItYJXfPJEjNl7trwqH+I4Z70xkARkN/eL+V+fmW2xRRglUdkoFGjv9ze4jp6LORsdmp3SWM1iWE1rAdQVYMCnknhWt9kQGFVSyBCQggTELTF/mWwQhX8KZC+hv3DELVq5B6MwNn+ZaPYFcuTlI0sj6jztJs1XBrI2dvpOH/BqjpoIxNPQYBRx+GoR8tmeu/WiMTXW5BGIvUN/uHzAjerowOhm1KvaBFVACoxUwHnfnCoxv1tXw++4m6xttU10nAQlIIKsCjV1+roccrwOnknUHRK9+1tVwYXeTPZus5EpbCQEtYFVCPWFjRkfY37kDU4DvJSx61uOGGN/KDTNfJ3tk/VZIaf3uVt9JPcY5gfN21+mEKZ3ozJblBj8M4VvBEN/qOZjHMPPMaqhwCUhAAhsQqO/wowI43eE1wkqOgBs91SEH66nj5MxZJZNqAauS+gkZOzqBcOOHOTiAhQmJrJgvCETf2C/Mt9hxApFAWgXa3IM7u/jk+tcFzsZ5Y1rrVF2ZFihgLAzgp08Ps/zmeTqQI9N3g4qXgAReVmBGu380NC4EdhNTcgSijdxx/ksnESZnziqZVAtYldRPyNhTF3hNbjMuNuPohERWzEjA+KvDhb3N9mWBSCDNAnss9Opt6jhofY1twOvTXKtqy7TA48CVAdy8qsWuz7SEipeABCTwEgJTr/KtqqqI9n2doX2wEnWLuBu79c7hV3rSOFHzVpGwWsCqCHuyBm1Y6BtRx83Au5OVPPNpfxPtA9A7127IvIQAUi/w4kJ7c2Cco1cHUj/dWS4weoXwLuD66gEuu+4w+3OWMVS7BCQggX8XcKvv4KvmHKp9e5N1b3jAvnWT6OluskKykittuQW0gFVu8QSON3W5b5Xr5wGDjRMYP7uRje/xPPvn51v0rb0+Eki9wMhiey1zMT4PbJH6glVglgUGzfiOGz979DkuvHO+DWUZQ7VLQAIS+KdAY7uf6cZngC2lkhwBd07dpp8vLdLPs+RMWoWSagGrQvBJGnbmMt+jUOCOJGXOelaHIYPufDNz9Chu1u+GbNXfuNgn+yTm45wL1GarelWbKQHDPeRJg+tDo2d1i12bqfpVrAQkIIGXEKhv909inGewo4ASJGAsXzdMq/Z5TNCcVSiqFrAqBJ+kYad3+P4BXJOkzMrKOjOu6Gm2z8pCAlkTmLnENy8YJxBwetZqV72ZFBgm2gDXWBMM841V8+zuTCqoaAlIQAJA/RJ/Y5BjqcP7BZIogYcG4K03tNhziUqtsGUX0AJW2cmTN2BDp5+Hc1rykmc4sfHo+sPW23pa7IoMK6j0DAvsfaVvWTOJ8x0OzzCDSs+SgPM88IgZCxliUc8hti5L5atWCUhAApFAdHr6Jg+x3IxGICeVxAgUgmG2X3WwPZyYxApaEQEtYFWEPVmD1nf4dwz2TlbqzKf9jTkH9rTarzIvIYDMCnx0oW9WV8fVwLTMIqjwLAqsc3gwME7smcP1eo08i7eAapZAtgXqO/1yc1qBjbItkazq3flgb6v9MFmplbbcAlrAKrd4AsdraPcnMG2EmKCpi06pumWPZj7SZhYmKLeiSqDoAg1X+ysZYiXGnkXvXB1KIL4CjtFv8N2gwPEr59p98Y2qZBKQgASKK9DQ4ae7c7zp75fiwpa4Nwto7pljXSUeRt0nXEALWAmfwFLHn9XhWw/DX0s9jvovqsAgxrfzzXZgUXtVZxJIqMC+3/Zth55nNbAr0Z/1+kggQwIG0QmFpw4FXLF2Dutg/Qvm+khAAhJIsUBjp3/MncuBnVJcZupK85ALe+fayakrTAUVVUC/yBeVM32dNSzx/yLHT9JXWaoretZhYW+LnZDqKlWcBEYt4Daji53DkG8ZvNkhGHVTXSiB9Ag8a86ehSoeXn2QPZmeslSJBCQggX8XGDnMJcf1wHtkkyiB7+db7L8TlVhhyy6gBayykydrwMZOP8gdPcqZrGn7WxBw3Ko5Fu39o48EJBAJuNuMTt4TwhLgzWgRS/dFNgXc4Gc5p8VD/rZynj2VTQZVLQEJpF2gscN73dgbpyrttaaovidqa3lVd5MVUlSTSimygBawigyatu4aO/xih8+mra6U13O/F9ind579IeV1qjwJjE2gzYPpb+TDQYGvGuysJ7HGxqerUyUQPal7uVXRUVvFH7qbbDBV1akYCUgg8wINnX6lOwcZ1GYeI0EAg31sc/18eyxBkRW1zAJawCozeNKGq+/wWww+mLTcGc4b7W3yi3wz79LJUxm+C1T6ywq0tXlw507sTciFwNtAe2LpdsmsQPTz4nfunF0Nv1jRyh+0P1Zm7wUVLoHUCTR2+Bmhc4IZm6WuuBQXZCEf6JlrP0pxiSptggJawJogYJqbz17uk/r6+YvBFmmuM2W1DTtc39ti9SmrS+VIoGgCs5d7rv85GshxLsbbtLF70WjVUTIF+tz5rhuXT4oWslrsb8ksQ6klIAEJ/EugsdP38ZDFGNvIJVEC8/IttjRRiRW2rAJawCord7IGm3GNbxcOc7/eHU/UvPXjXJVvtaMSlVphJVBmgSltXjV5R2asX7w6G+OtWsQq8wRouHgJGNHTWA/grKLANa8Z5K5F8y06vVAfCUhAAokUePEk9Vte3PcykTVkMbTBJT0tdlwWa1fNoxPQAtbonDJ5VWOX7+khPwBymQRIYtHOOofje1vtyiTGV2YJlFMgWsTaZCdmWrSIBTtrEauc+horlgJOSMBN5qwNCnx75Tz7UyxzKpQEJCCBUQg0dPoPcd6ng1tGgRWXS5xb8q324bjEUY74CWgBK35zEptEDZ1+AE6nFrBiMyWjCfJ4CB9a3WK/Hc3FukYCWReYcpNXbfowjSGcb/CmrHuofgm8KPAMsNaMq31zbsw32POSkYAEJJA0gcZO78aZ4VCdtOwZzvt4bS2v1kmEGb4DNlC6FrB0b7ysQGO7t7lxpr61SNBNYtw//CRvXXusDSQotaJKoKIC0SLW5IeYjvEVYPuKhtHgEoiPQPRa4W9wbi8McfaaQ3lIm7zHZ3KURAIS2LBAQ7tfhBFtq1G34at1RSwEjOHhIbZZe7D9PRZ5FCJ2AlrAit2UxCdQ9K2FO/vplK74zMkGkrjDz3pb7L8Sk1hBJRATgZE9sXbiY9GGrwaviUksxZBAHAQKwA8C47aVczjDzKKFLX0kIAEJxF6gsdMPcudyYNPYh1XAfwoUzHl3T6v9QiQSeCkBLWDpvnhZgYZ2/y3GW0SUGIEQyOdbbGZiEiuoBGIkEJ1O2DfAB835FvCKGEVTFAlUXMCcp0Pjtpxxzqpm+3HFAymABCQggQ0ITGv3N+WMHwJbCSsxAgWcmflW601MYgUtq4AWsMrKnZzBZi/3zfr7+SPwyuSkznzS6B/8i/OtdkrmJQQggXEKtLV58PMd2N2dH2BsNM5u1EwCaRUIHR4wuPXRPg6/UycVpnWeVZcEUiGwx0Kv3qaOe7U9QKKmM/pC/rP5FrskUakVtmwCWsAqG3WyBmq42t/CMD8BNk9W8uymdRjKBXxy1RxbkV0FVS6BIgi42z5dvGmS83NHi1hFEFUX6RPoB36FcUm+mWu1N1b6JlgVSSAtAg2d/hOc92pLlMTMqOMszrfaYYlJrKBlFdACVlm5kzPY9HbfKzBW6p3x5MwZzkB1P9tfN98eS1BqRZVATAXcZi5lhzDgFw6TYxpSsSRQMQGD6GmsPqC7to/PdM+3pysWRgNLQAISeBmBGZ2+InQadShVQm4RI9pn8af5ZntfQhIrZpkFtIBVZvCkDFff6S32wqaHGyclc+ZzGn/NN9urM+8gAAkUUWD6Mt8hKHCb9s8oIqq6Sp2AOQ+vL6pt9wdY2tZm0esf+khAAhKIhcCLJxEeB+RiEUghNixgPL7HHF7TZja84Yt1RdYEtICVtRkfZb0NHX4+8BmgdpRNdFmFBRx+2dti76xwDA0vgZQJuM3oYmcvsMJhJ4wgZQWqHAkUSyA6rXBpCF/aqJb7uptssFgdqx8JSEAC4xVo6PT93LnGoHq8fahd2QWedOedva32UNlH1oCxF9ACVuynqDIBGzu9253oNLuqyiTQqGMVcLi+t8X2GWs7XS8BCWxAwN3qu3h74CwMYXf9Eqw7RgL/p8BTFnASAT01VTze3WTRwpY+EpCABCoiMP0q3yHIcQ9GTUUCaNAxC7jztOX4WH6O3T7mxmqQegEtYKV+isdeYHQK15078FNgD214OHa/irVwLs+32lEVG18DSyDVAm71nexmcD7Onnq9OtWTreImLhBawEor8PUtQn64dJ5Fm77rIwEJSKD8Au7W0ME/1h86oYOpyq8/3hHX4RyYb7Xe8XagdukV0AJWeud23JU1LvbJVI9sXLzjuDtRw0oIzMu32NJKDKwxJZAVgWldvmsu5ERgOrBlVupWnRIYj4BBn4ccA9yWn2u/GU8faiMBCUhgogL1HX6vwZsm2o/al03gOYzP5pttYdlG1ECJEdACVmKmqnxBGzp8e+Am4PXlG1UjTVigil3yB+oPhAk7qgMJbECgfpm/0Qp8CjgAeJXAJCCBlxdwcIt+pwi5vHYj8tobS3eLBCRQboGGDr8V+EC5x9V44xRwBgwW9LTaSePsQc1SLKAFrBRP7nhLa+jydxOyAnjtePtQu7ILDNTWsqn+MCi7uwbMqMCMq3w7z3GIw2EY22SUQWVLYCwC/e6cAvyst9V+MpaGulYCEpDARAQa2/1qt5EvnfRJhkB0+uCqfIt9IhlxlbKcAlrAKqd2Qsaa0eHTQrhKTxYkZMKimM6j+VbTgmOCpkxRky8wq8O3Hg5psYBPO2yb/IpUgQRKK+AwFL1OiHGlPc+38vPt+dKOqN4lIAEJQH27n2JGdMK6PskQcIef997Pe2izMBmRlbJcAlrAKpd0gsZp7PLDvMAFmPZ3SdC0/SLfYrsnKK+iSiAVArMX+mYDdRzgzpl6EisVU6oiSi1gOCGPAUsd1va22g9LPaT6l4AEsi1Q3+X/bSE3ZlshWdUb3DcUsPvaOfZMspIrbakFtIBVauEE9t/Q6efhI5uuTk5g/ExGNri+p8X2yWTxKloCFRZoWOgbUcd+wMXA1hWOo+ElkBSB57GRA2MW19XQ3d1kzyYluHJKQAL/j707j6+rKvc//nn2SZqklFFEcUDmi8NFBMQJtCACbXPSFkmBtknaglTmQfEyiEQEQRBQHLBMJSdtkdQLbU7aCor0iggig+C9CsoMCsggUmiSNuc8v56I/EQLbZIzrb2/5z9f7r3W93mv1XK6zt5rhSWQnuObewN/MdC/fcMZuseAvbOt9kg4kZW0HAL6Q1wO5cD6aMr4PIfCO8d1gUVPbFyD73W32jGJBVDhEqiwQHOXj+rvozFfeDXK2bTCcdS9BEIRKGzwXvhHyk/MuHpxC7eBeSjhlVMCEghEwN3SnRSe5BkTSGLFhD8RMTk73X4tDAn8s4AWsDQfXifQ3u7R3duy3P9+UofmRyDzw+HInlb7QSBxFVMCsRQY2+41G+zA2CjHAuCtsSxSRUmgNAK9azZYfsBynF8/mkULp1hvabpRqxKQQFIF0p3+KK4T1gMa/2cimLW41ZYGlFlRyyCgBYoyIIfUxbhLfKOaTbgZ0H5KAQ2cO3tpH5GABkxRYytQ+BHgjh3YuSbPXHd2iW2hKkwCxRfwwoEkZiwfcM5a2mZ/KH4XalECEkiqQLrT78L175uAxv954L8ErU5XAAAgAElEQVSyrXZlQJkVtQwCWsAqA3JIXRSOhs/VsMTgP0PKnfCsvqqezW+YYi8k3EHlS6BKBNzGz2erVI6vAS1VEkoxJBCGgNNvxpM5Y+boOn65cIrlwgiulBKQQDULNHZ44VXlfas5o7K9TuAlc77Z3WaF71L6SOA1AS1gaTK8TmBCxj8QQRfwXtGEIWDG3+rq2FKvXIQxXkqZFAG3cVexeU2KEzBOS0rVqlMCRREwCntjveRwXb9z7I2t9kpR2lUjEpBAYgUaM/59gyMTCxBe4b2ep6NnhmnMwhu7kibWAlZJecNrvGmef8KduTg7hJc+oYmdR1fkee/ymdaXUAGVLYGqFUhnfbQ9T5tHfL9qQyqYBKpZwFlBH9tmZ9tz1RxT2SQggeoWmJjxo/Pw3epOqXT/EDBYnXeW9bTZRKlI4J8FtICl+fA6gaZOn+A++Jf71qIJRuDugRf5+LLjrD+YxAoqgQQJjFvqdbXPcogblwINCSpdpUqgWAI5c85mgAu7D+NlnVRYLFa1I4HkCIyf759M5fif5FQcg0qN27MP8QnaLR+DalRCkQS0gFUkyLg00zTPZ+XznG2wZVxqin0dxk31dYxfOMVWxb5WFSiBQAWOmOO1T9dzsBsXGmzuEAVaimJLoFICDvzOjEm+kj9nZ9vKSgVRvxKQQHgCTQv8bT7AUzplPaixuyeVY59FM+3FoFIrbEkFtIBVUt7wGm/K+Kl554tmbBZe+mQmdqfzHX0cdtlsW51MAVUtgTAEmrs81beSz5LiTJztgLowkiulBKpIwPiz5TnfRnHd4kN5Uk9jVdHYKIoEqlig+SJv6Nucwsl2ehK6isfpn6M5/Da/ivTSw+2xQCIrZhkEtIBVBuSQukhn/NvAYcAGIeVOclZz2l/ainOW720DSXZQ7RIIQsDdGuezD3lONNgL2CiI3AopgeoSKJxUeEM0wJkvwv3aA7K6BkdpJFCNAmPnev2GKR4F3laN+ZRpLQLO/QYHd7fZffKRwD8EtIClufA6gXSHX2vGZIda0YQh4HnaGkYzX0eNhzFeSimBgsDEef6+nHOkwSE4m0tFAhIYsoA7/Brje6nV3Lx4lj0x5BZ0gwQkkBiBwgLWRinuddgxMUWHX+iDkTFrcYvdEn4pqqBYAlrAKpZkDNrZbY7XvmM0PTj7xaCcxJTgzl49rdyKrXkWSx8JSCAYgckZ32IAPo9zzJp/hL81mOAKKoHqEnjWjR/VOt+vqef3+jGnugZHaSRQLQLjLvG6mk34BbB7tWRSjnUKPIZzfLbNFq/zSl2QGAEtYCVmqNdd6IT5vmmU5zqcseu+WldUiUAun2LHJdPs4SrJoxgSkMAQBNJzfDR1zPaIkwzeqc1lh4CnSyXw/wVya/5R2mOQiXL8TBv+ampIQAL/KtDc5aP6+snqh/pw5obBUw5nZFvtynBSK2mpBbSAVWrhgNpv7PJ3Wj/X4muOK9UnDAFnRS7Pjktn2tNhBFZKCUjgXwXG3uw1Yx5jahRxLLCrTijUHJHAMAQMJ88DbizJRXxr2XT+pA3eh+GoWyQQU4HCacBP1TMHY2ZMS4xjWc8bnN/daufHsTjVNDwBLWANzy2Wd43v8B0jI2PwkVgWGMeiCqcx9bFr9+fsmTiWp5okkBgBd0t3sjfO4RiHJqZuFSqB4gv04XTnjIs2qOdOvVJYfGC1KIEQBca2e81G23CqG2eFmD+hmV/CuDTbYqcktH6VvRYBLWBpWrwmMGm+75LLUXhEc1exBCJg/HGgjk8sm2LPBpJYMSUggTcRaOr07YHp7pwpKAlIYNgCeZw7POKGl9/F2Tqld9iOulECsRFo7vJU70paLeKq2BQV/0J6DeZ1t9oR8S9VFa6vgBaw1lcqAdc1zfNPeJ7vAzsnoNy4lHgvNeybnWrPxaUg1SGBpAvsf4VvNmoUB8Hg38eppHuofgmMQOCv7txSk6dN+2KNQFG3SiAGAu3tHv1me/bN5bkhBuUkpYTC/oaLs6322aQUrDrXLaAFrHUbJeaK9DwfR56LgJ0SU3T4hd5W46Svb7Pnwy9FFUhAAv8QKGzu7vWMN7gAY2vJSEACwxYo/APoDpxv6CSrYRvqRgmEL+BuE+fzgXye+8IvJkEVGDduuZLGy2bb6gRVrVLfREALWJoerwk0ZnyqwdnANmIJRmBpPsX0JdPsr8EkVlAJSGC9BAonJq3q40N542Qc/fq4Xmq6SAL/LmCQd3jKjOvr6jhB+2JplkggmQKvHlj1KE5NMgWCrHp5fT2TFk6xvwWZXqGLLqAFrKKThttgusOPIuJ0nHeEW0XCkjtzB1KcsGy6vZSwylWuBBIhUHjl4c5t2BLjaINTE1G0ipRA6QT6gBtWrWLWDYfbC6XrRi1LQALVKDC+y9+e6uMPwIbVmE+Z1irwi1pjynUt9pR8JFAQ0AKW5sFrAumMnw6cCLxFLGEIRMbXe52v39hqr4SRWCklIIHhCDRf5A29b+GYyDjHoXY4begeCUhgUCAP/M6M07tbrFsmEpBAcgSaFvjbfIB7gbclp+rAKzVuN2jpbrEHA69E8YskoAWsIkHGoZl0p19g8Hl3xsShnkTU4By3Is/ly2da4VdlfSQggRgLDJ6g1M80nK8Yg/tiaYP3GI+3Siu5wAqHb1sv52aPoBczL3mP6kACEqiowOSMbzFg3IazbUWDqPOhCNxlNczqnmrau2woajG+VgtYMR7coZbWlPHLgDaHUUO9V9dXRsCdQ97Rx3Xa2LAy/upVApUQmJjxj+ThK8A+QH0lMqhPCcRCwBgArkzluKB2NE8snGKrYlGXipCABNYqMO4qf2tNipsx3i+iYATudefInja7LZjEClpSAS1glZQ3oMbdLZ1hPsYherU0nHEzY7+6On6mDWnDGTMllUAxBAqvQeQH+LrBQa/u5aH/nhcDVm0kT8Bwcwr/MLqQ1fyk+zBbkTwEVSyBZAikF/jmDPBjYLdkVByDKp3/Mzi2u81ujkE1KqEIAvrCWwTEODRROO2qv5/57oP/GNInFIEce2RncKdefQhlwJRTAsUTmDHX659PcabBgQ7b6ZXC4tmqpeQJGLxoKc6Kcsy/voVn9d/V5M0BVRx/gckd/paBiMU4n4h/tbGp8IG88YUlLbYkNhWpkBEJaAFrRHzxubnpSt/Qa8kAk+JTVewryUUROy+ebr+LfaUqUAISWKtA4ZTCu7ajCedzwP5axNJEkcAIBIwBdy7Kp7hm5R/53+XtVnjFUB8JSCAmAhPm+6ZRnh/i7BeTkpJQxsPunNbTZtcmoVjVuG4BLWCt2ygRV7z6SO1coDERBcejyJV52H1Jq/0+HuWoCglIYLgCE6/xd+cH+Cp5pmLUDbcd3ScBCeAWcaM7V614iOu0iKUZIYH4CDR3+cZ9fcwBDo5PVbGv5Ik129t8NdtqV8a+UhW4XgJawFovpvhf1Njh7zTjCuCA+FcbkwqNvxp8rLvFHohJRSpDAhIYgUBzlzf09nGG/f1J2veOoCndKgEJOH/G+ebWW/D974y3foFIQALhCxTeOKGW8x0+H341iangaXPO626zbyemYhX6pgJawNIEGRSYMN+3TeWY47CvSIIReDrnfGppm/0hmMQKKgEJlFSguctTfSuZ5BEHGzSXtDM1LoH4C/RH8E3LM3fRDHso/uWqQgnEW2C/jG8wCk43ODXelcaquueBi7Otdk6sqlIxwxbQAtaw6eJ1Y3qB78QAlwJj41VZrKt53IxPd7fYg7GuUsVJQAJDEmhu9lTfeHbwiKMxZhvUDqkBXSwBCbwmYLAaY7EZCxZPt+tFIwEJhCsw+KRyL8eYcX64VSQu+UsW8b3u6XZa4ipXwWsV0AKWJsagwORO/+CA811gT5EEI/BgKs8B+lU4mPFSUAmUT8DdDpzH21fnacWYCfxH+TpXTxKInUAO534irl7xLr61fG9t7h67EVZBiRAYt9Trap6jDQb3wdInDIFe4Ipsqx0XRlylLLWAFrBKLRxI+5Pm+x65PN/G+WggkRXTuT9fw4Ql0+xhYUhAAhJYm8C+c3zjugY+mjIOd+cgKUlAAsMWcOAZjKtIcXF2qj037JZ0owQkUBGB5i4f1buSZouYV5EA6nToAkbhNNjObIvNGvrNuiOOAlrAiuOoDqOmpvn+SXJc6LD7MG7XLZUQcP4Xoynbao9Uonv1KQEJhCEw9mav2ehJtsY5wRl8Gmt0GMmVUgJVKfCiGT25HN9aMsPuqsqECiUBCaxVYLc5XvuOUUwghV4HDmWOGO7OtT0PM412y4cSWzlLJ6AFrNLZBtVyU6d/xp0LgA8GFTzBYQ3uiXIcuGimPZpgBpUuAQmsj4C7Tb6ezfKvMMHhi+785/rcpmskIIG1CvRh/Bb4RnY612FWeDpLHwlIoMoFCged9K7k0xZxQ5VHVbx/EnDjRw11TFs4xVYJRgJawNIcGBRId3gjxrnAB0QSjMCvcymal06zx4JJrKASkEBFBQqvT/T3s1XeubRwCASOvgdUdETUecACOeBZc06va6Bj4RQr/G99JCCBKhZob/fozm34+Jr//t1SxTEV7d8FrqOXluxsWykcCeiLq+bAoEBTxg905xyMnUQSjMBt7hzS02aPB5NYQSUggSoQcNsvw+h64zx3ZgBjqiCUIkggVIHCBsOn9cPlN7baK6EWodwSSISAuzX9kF18NXcnot64FOksHkjRumy6vRSXklTH8AW0gDV8u1jd2ZTxQxy+Bmwfq8JiXIzBzTZA2+JZ9kSMy1RpEpBAqQQKX+QXsJfnyABbgZ7GKhW12o23gINHMGdgFectPYzH9UphvMdb1YUtMHGevy+fH3wFOAq7kkSlz65axYwbDrcXElW1il2rgBawNDEGBSZ2emveaQe2EUkgAsZSz3NET5v9KZDEiikBCVShwKS5vkkuxU+BHYCNqjCiIkkgCAGDX3mOY+s34G69UhjEkClkAgUGF7Cce3BGJbD8IEt2Y0mtM+v6VvtLkAUodFEFtIBVVM5wG2vM+OfMOQPj3eFWkazk5lxfE3H0dS32VLIqV7USkECxBQob2/b3c0Te+YLBdsVuX+1JIDECxnNuHJJ7gV8sO876E1O3CpVAIAITMv7eFNzl0BBIZMU0llkNh3cfan8WhgS0gKU5MCjQmPGjgdMNthRJGAJm/GigjmOXTrGnw0islBKQQLULNHX69nlnnsF/AJtUe17lk0BVCjj9ZsyoW8WNC/XKS1UOkUIlV6CwgBU5d2KMTq5CYJUbN3qez2nf38DGrURxtYBVItjQmk1n/ETgFGCL0LInOO+1uRwnLJ2pBawEzwGVLoGiC6QX+Oas5kSMRmDnonegBiWQDIF84XAcN65Z0mq/T0bJqlIC1S+QXuA72QC/dh1gUv2D9Y+Ezk0DzuxlM+yhcEIraakEtIBVKtnA2m3s8FPMOBnYLLDoSY67wGo4qXuqPZNkBNUuAQkUX6C5y0f19/IJjzgd5yM6qbD4xmoxEQJ5YAlwYbaFn2tz90SMuYqscoHCAhYD3LHmz+WGVR5V8V4VcLg5Ws2R3YfZA0KRgBawNAcGBdIZ/wrwBW3gG9SE6KyBL2pDw6DGTGElEI5Au0fjtmenmhwzMcYD7wsnvJJKoGoEcmb8Nud8bXQ9i7W5e9WMi4IkVCA913cixa/0b56gJsD/kOfo7Az7v6BSK2xJBLSAVRLW8Bpt7PSzzCm8RjgmvPSJTXx1DfyXFrASO/4qXAJlEdh3jm/cMJp9cY4BPgbUlaVjdSKB+AgUnsR6GDiHXrqys21lfEpTJRIIS6Cp0//Dndu1z2M44+ZwSyri6MXT7bfhpFbSUgloAatUsoG1m+7wc4ATtKFhUAN35cAApy6bZc8GlVphJSCB4AQKpxSu6mP3vDPZjIMdtg6uCAWWQGUF3OAx4LsDOeZr/8rKDoZ6T67AqwtYtwGbJlchuMp/4cYxPS12b3DJFbjoAlrAKjppmA02ZfzrXljA0pGy4QygMYcUX85OtefCCa2kEpBAyAKFDd6jPHvl85yCsStOTcj1KLsEyi1g8BTGNT7A5dmZdn+5+1d/Eki6QGEBC+dWh7ck3SKg+n+RynHsopn2m4AyK2qJBLSAVSLY0JpNd/h5GMcD9aFlT3Dey6jhdC1gJXgGqHQJVEBgbLvXbPgePmQRB7hxkl7DqMAgqMvQBf5KYVNi48LFLdwG5qEXpPwSCEVAC1ihjNQ/5XRuNTi2u83uCTC9IhdZQAtYRQYNtbl0h1+Acaz2NgloBI0rBlZzml4hDGjMFFUCMRKY8H3f1Eazq6W4FGeHGJWmUiRQcgGHPnN+44UnqafxMzMtYpUcXR1IANArhOFNA4dfep7jlsywu8JLr8TFFtACVrFFA22vMePfLKxsA6MCLSGJsbWJexJHXTVLoIoECntj9b7CtlFE2o0LqyiaokggBIEczsPuHNMwmpt0QmEIQ6aMoQtoE/cgR/A2g+O6W+3OINMrdFEFtIBVVM5wG0tn/GIYPGFK+5mEMozGPOvji92fs2dCiaycEpBAPAWau7yhv4/3OyxEG7zHc5BVVakECq8PPkPE57Z8hRsum22rS9WR2pWABCA913fyGm43Z2N5BCLg3O5wfE+b3RFIYsUsoYAWsEqIG1LT6Yx/GzgaSIWUO8lZDX44kONEnWSU5Fmg2iVQRQLutv9CNq3rY6bDN6somaJIIASBlRYxe/ULLFx2nPWHEFgZJRCiQGEBixSFhZANQ8yfyMzG7ZFzwuJW+1Ui61fRrxPQApYmxKBAY4d/x4yjgEgkYQiY86OBPMdqASuM8VJKCSRFYPC1wn72wrnC/v40ln4YScrgq84RCRjk887p1scl2dm2ckSN6WYJSGCtAukFvhMD/BoYI6IwBAx+lXdO7Gmz28JIrJSlFNACVil1A2o73enfwzkS0JwIZNzMub4m4ujrWuypQCIrpgQkkCCBCfN901SOz+ed/7KIDXC9op6g4VepIxEwrlnVzzE3HG4vjKQZ3SsBCfy7wISMvzdicAFrA/kEI3BH3jhxSYv9MpjECloyAS1WlIw2rIYbM/59Y3ABS59wBLJWy+e7D7U/hxNZSSUggSQJjG33mjHbs0+U50Scj7lpz5Ekjb9qHYGAc2sqz/RFM3kMdELhCCR1qwReJ/DqAlbhNLsG0QQj8GvLc2L3DLs1mMQKWjIBLWCVjDashgefwCosYLmewApm5IxlnudzPW32p2AyK6gEJJBIgaYrfUNqOd5h2qubvNcnEkJFS2AIAga/jXK07vIY97W3W34It+pSCUjgDQQmXuXvy9dwj05eD2qK3BEZJy7WE1hBDVqpwmoBq1SygbXblPHvFhawXHtgBTNyDj/NRcxcNt2eDCa0gkpAAskVaPeoaXs+5nkOByYAm+u19eROB1W+XgKO84A5s196lF8ub7eB9bpLF0lAAm8okL7a349xH6Z9f0OZJmb8Kp/XHlihjFepc2oBq9TCgbQ/uIk7HKW/zAMZsEJM51aHqT1t9nhAqRVVAhJIuEB6jo+mnmOJ2MedvQ1qE06i8iXwZgIOPBDBF1Ztzk3LxuuEQk0XCQxfwG3SfD6Yyw0+gaVPIAKFTdw94oTsdLs9kMiKWUIBLWCVEDekptMdfgl/P4VQp0WFM3C/zqVoXjrNHgsnspJKQAISGFyBt8k/ZIfVqznKnIOAd8pFAhJ4Q4HBJ7HyxldHr6Bn4dH2sqwkIIGhC7SveRL47q35mEf8Yuh3646KCRi3R84Ji1vtVxXLoI6rRkALWFUzFJUN0tTp33I4WqdEVXYchtj7PakcBy6aaY8O8T5dLgEJSKAqBMZd4nW1mzGNPB91OAy9xl4V46IQVShgFBax/uBw4ep6/vuGKTqhsApHSZGqXKC5y1P9/YNP/95Y5VEV758FnNsj0wKWJsXfBbSApZkwKJDO+EUGx7he5QhpRvwv0JRttUdCCq2sEpCABP5VYHLGtxgwDjfn0w77SEgCEli7gMFDnucHudHMWzrFnpaTBCSw/gK7zfHad4xmAs7163+XrqwCgduIOD473X5dBVkUocICWsCq8ABUS/fpDr8A41igrloyKcc6BR7Ipxi/ZJo9vM4rdYEEJCCBKhcoPI1VtzEfzMNBbsx8dZP3Kk+teBKogIDzBE4mV8vl2kagAv7qMliB5i4f1buSZouYF2wRCQxu8Msoz3GLZthdCSxfJf+LgBawNCUGBdIZPxc4HmgQSTACD6fy7Ldohj0UTGIFlYAEJPBmAu42bi6bp1LsadBMxCG4nhbXpJHAWgT+YrAwl+Ii/ZCl+SGB9RMYt9TrUs/RanDZ+t2hq6pCwLnV4NjuNtPm+1UxIJUNoQWsyvpXTe/pjJ8NnABsUDWhFGRdAo+b8enuFntwXRfq/5eABCQQksDYdq/ZcFvenTcOMOcwg91Cyq+sEiiTwIvAUjPO1HeBMomrm6AFmru8oa9/cM/fC4IuJGHhDW7BOaa7ze5LWOkqdy0CWsDStBgUaOrwdjdOAjYUSRgCBk/lU3yqZ5r9MYzESikBCUhgKAJu6Tk0UMc2GCe4cajpR5ahAOraZAisBH6WquXYRYfqUJdkDLmqHK7AfhnfYBScbnDqcNvQfRUQMH6ed45e0mqF/X/1SbiAFrASPgH+UX5jxr9s8AVgE5EEI/CcrWbP7sPsgWASK6gEJCCBoQq426Sr2Xh1Df8ZORcBuw+1CV0vgTgLOKw25w5v4OCeKfanONeq2iQwEoGmK31Dr6Gw7+/skbSje8su8D8DEUctm26/K3vP6rDqBLSAVXVDUplAjR1+ihknA5tVJoF6HYbACmrYIzvV7h/GvbpFAhKQQFAC7e0e/eY9bDRQS7PlKbz2vkVQBSisBEorkMf5Qw3seX2bPV/artS6BMIUaO7yjft6uQxjSpgVJDO1w83Rao7Uj/bJHP9/rVoLWJoHgwKNnX4SzikGbxVJGAJW+MU1YpfF+jUijAFTSglIoGgC+87xjRsauNKgyaG2aA2rIQmELuD8ud/Y8cZWeyX0UpRfAsUW2P8K36x2FNca7FvsttVeCQWcm1LObB1cVULjgJrWAlZAg1XKqI0dfgzGaQZblrIftV1cAYMPd7dwF2Ze3JbVmgQkIIHqF2ju8q36erkFG3x6eEz1J1ZCCZRBwHnWBtilexZP6ftBGbzVRTACkzv8LbmIxe58IpjQCgrGjZ7ncz1t9rg4JKAFLM2BQYF0xo8wOMPhXSIJRyBnjFv5ED9d3m4D4aRWUglIQALFEzhijtc+VUcTEd/k708R6zTd4vGqpVAFnCdsgM90P8Efabd8qGUotwSKKZBe4JszwI/RybbFZC1HWz925/CeNu3xVw7sau9DC1jVPkJlypfO+AzgTGDrMnWpboogYE5LXQNdC6fYqiI0pyYkIAEJhCngbo0Z3oFxohlN7mxterUwzLFU6mIJOM6DHnHI7tP5TbtpEatYsGonXIFxV/lba2q4GXh/uFUkMvlSq2FW91R7JpHVq+jXCWgBSxNiUCDd6YfinAVsL5KgBE58S44fXD3T+oJKrbASkIAESiAw9mav2eBJ9kjBie7sBmxTgm7UpARCEShsL/B/kTF7VB2/WjjFcqEEV04JlEJgcsa3GIDb9d+GUuiWtM1sjTNTB1SU1DiYxrWAFcxQlTZo+mr/LNHgqU47lbYntV5kgXP64Vxt1lpkVTUnAQkELdDc5WN6+2iKoNVhF+BtQRek8BIYpoBB3uFec77w0iPcoi0Hhgmp22Ih0LTA3+Y57sX134TABnTxQETrsun2UmC5FbcEAlrAKgFqiE1OuNonRBHnAR8IMX9iMxtzbCNO7p5oKxJroMIlIAEJrEXA3e2zC9hqIMdBbkzGBxeytD+WZksSBQp7YN1lxukvvYubl++tfTOTOAlUM4zv8ren+vgDsKE8ghK4rr6e6QunWG9QqRW2JAJawCoJa3iNpjO+z5oTnAob4H4ovPSJTnxdKsdhi2bai4lWUPESkIAE3kCg/WavuedJ9sg7+2NMxdkWiAQmgYQJFJ7E+nUqxZl/ewc3aRErYaOvcgcFGjt8K4t4CKdGJAEJOF0rHmGaniANaMxKGFULWCXEDanpiZ3+8bxzMbBHSLkTn9X5eX0DkxdOsRcSbyEACUhAAm8i0NzlDb29TDDj48Dn1vxoM0ZgEkiYQB7jjshp/9vD3KR/DCZs9JNerruNX8AHUznuSTpFSPUXXoPGWNDdQitYYV8/fRIuoAWshE+Af5TflPHdMb7tPvjFXp9ABNz5jdXymexUey6QyIopAQlIoIICbpM72Gx1RJMVnsiCgysYRl1LoBICg09iRcYZLz3EzVrEqsQQqM9KCLS3e3TPthyQhyWV6F99DlPAWGVOR3erHTHMFnRbzAS0gBWzAR1uOU0LfGdyfNedvYbbhu6riMCD/fCJG1vtLxXpXZ1KQAISCFCguctTvavZ1nJ8EjhFJ/AGOIiKPBKBwT2x8s5/jW7g5zqdcCSUujcUgcLf+/19zHK4LJTMyjkosBK4Ittqx8tDAgUBLWBpHgwKpBf4TgxwKTBWJEEJPG017NI91Z4JKrXCSkACEqgCgeYuH7Wqjw/lbfC/fWdrX5QqGBRFKJdAYRHrXos4tm4Ut2sRq1zs6qdSAmNv9pqNHufLbpxZqQzqd1gCLzl8r6fVThvW3bopdgJawIrdkA6voHTGtyn8ImGw7/Ba0F0VETBeztWxw9Ip9nRF+lenEpCABIIXcBs3jw1TA3zUUszAOTT4klSABNZDoLC3jMPv83naljy6Zl+gdissaukjgVgKHDHHa5+q50qMllgWGN+inse4KNtiX49viapsKAJawBqKVoyvbbrG3+GruRI4IMZlxq60wpfPfD3b9Eyxx2NXnAqSgAQkUEaBwuslr7zCW1MpmoBTga3L2L26kkClBBznQfI0ZWfwAKZNkis1EJQc6zMAACAASURBVOq3tAKFJ277+lgGFE5e1yccgacdzu1ptUvCiaykpRTQAlYpdQNqe3KHv2UArsZoDCi2ohYEIj6Wncav9KVT00ECEpDAyAUKv9L/uZ4to4iT3TkSSI28VbUggaoWcIzHPc8netrsT1WdVOEkMEyBcZd4Xc0m/BLYdZhN6LbKCDzuRntPi82tTPfqtdoEtIBVbSNSoTzNXT6mv5+MO5MrFEHdDlPAnUN2b2Vhu+nR/2ES6jYJSEAC/yYweGLVdnw073wD2FNEEkiAwDP19Wy/cIq9nIBaVWLCBMbO9foNa/gtzvYJKz3och0eiuDU7lZbGHQhCl80AS1gFY0y7IYGf3FuYL5Bc9iVJC+9w3+9/DAX6Sjs5I29KpaABEovkJ7jo300J5szC3innsgqvbl6qKjAE9Swa3aqPVfRFOpcAkUWmDHX619I8ZjDFkVuWs2VVuB+nJOybVZ4/VMfCegUQs2B/y+QzngGmDb4Upo+wQg4XP6OXo6+bLatDia0gkpAAhIITGDcPH9XTW5wA+DC6ydv0UnOgQ2g4g5F4D53xut1wqGQ6dpqF9gv4xvUOYUNweuqPavy/X8BM35LjmO6Z9jP5SKBgoCewNI8eE2gqcO/kzcON6gXS0ACzk31DYxfOMVWBZRaUSUgAQkEJ7DbHK99ZwOfdTjJYReD2uCKUGAJrEvAyWPcksoxY9FMe3Rdl+v/l0AIAo0dvpUZj4WQVRlfJ3BPKsXnFk2zu+QiAS1gaQ68TiCd8bPNOMadjUUTlMA9A5vzsWXjrT+o1AorAQlIIFCBSXN9k1yKHwDvBz4QaBmKLYE3Eyj8KLY0leeLi2bYQ6KSQOgCE+f7vvkcPwm9jgTm/3UUMWPxdPtdAmtXyWsR0BNYmhavCTR2+MkGJ2O8VSxBCTy6Isd7l8+0vqBSK6wEJCCBkAXcramDj3vEl4HdQP/tDHk4lX2tAq+sWaQtbJx8VrbVHpGRBEIWSGf8ROCikGtIaPbbUrVMXXSongZN6Pj/W9lawNJMeE0gnfEjDM5weJdYwhEweHGzHFterQWscAZNSSUggZgIuE3O8NYBZybGOIO9XPtIxmRsVcarAn8FOmojLrxuuj0pFQmEKpDu9CtwDgs1f1JzG9xCDc3dU+2ZpBqo7tcLaAFLM+I1gcYOP9iMrwPbiiUogRw1vF0nBgU1ZgorAQnESGDszV6z0RPs4sbncT4FOqY9RsOrUuBp4NIa+MH1rfYXgUggRIF0p9+Es0+I2ZOc2eHmaDUTuw+zFUl2UO3/X0ALWJoNrwlMyPj+EVwMvFcsYQmknI8sarM7wkqttBKQgARiJOBuzQvZvK+ffSk8kQV7AzUxqlClJFvgsTV7pF5ck6dj0Ux7MdkUqj5EgXTG7wV2DjF7YjMb7s6NL7+bxuV720BiHVT46wS0gKUJ8ZrA5A7/2AD8ANNf7gFOi5nZVrs6wNyKLAEJSCBWAv/0NNZkoBlnh1gVqGKSLPBg3jk32owfZtO2MskQqj08gXTGC6/AvjO85IlOPIBzXbbNDk60gorXApbmwNoFmjp8Z4ersMHNaPUJScD5ZrbNTg4psrJKQAISiK+A2+QONlttfMTgC8CewKj41qvKEiRwv8FX6upZvHCKFU4q1EcCVS/ghUM3OikcStBQ9WEV8J8FVmJcnW2xo8UigX8I6AkszYXXBCbM922jAeZjfFQswQn0ZFstHVxqBZaABCQQY4HmLk/1rWQnatiHHKdgvCPG5aq0ZAg48HsivrjiQX6yvF2v9SRj2MOu8sB5/q7VeR4H9G/fsIay8LryJdlWOzOs2EpbSgH9IS6lbmBtNy3wt+UHWFg4RSmw6IoLd2dbTU/OaSZIQAISqEKB5i4f07eKD1ierzt8EkhVYUxFksB6Cax5Aivvzu/zEUd++CFubW+3/HrdqIskUCGBpk6f4E5PhbpXt8MX+IvDOT2tdsnwm9CdcRPQAlbcRnQE9bRkfIMXoRt0QscIGCtyqxtP9rTYuyvSuTqVgAQkIIF1CrS3e3Tfdryt39kzgmv1JMA6yXRBdQsUFq3ujSLaFk/nf8EKT2bpI4GqFGjq9HZ39BRPVY7OG4cy40mHL2Vb7JrAoituCQW0gFVC3OCadrfGefSYM05frMMaPYNV3S3UY/oCGdbIKa0EJJA0gcIm7xs8wlZRDT8CPpS0+lVvrATyOL+IckxfPMueiFVlKiZWAo0dfp0ZhYM19AlL4JE8HLmk1W4IK7bSllJAC1il1A2w7aaMdzgUTnqoCzB+oiObsVN3iz2QaAQVLwEJSCAQgeYuH9Xfx4EO+mU5kDFTzLUIGE6ea2yAz3cfZitkJIFqFEh3+m249vitxrF5s0wGf/CItux0uz207MpbOgEtYJXONsiWmzr8fDdmAxsFWUCCQztM62m1BQkmUOkSkIAEghIovFZ4x3vYORVxOfCfmH48CmoAFfY1AYczGuo5XycTalJUo0A64w8D21RjNmV6YwGD36XgoOtb7fdyksA/BLSApbnwOoGmTj/JnVOBzUUTloA7F/W0WeG4dn0kIAEJSCAggX3n+Mb1o5lhzukYm+LUBBRfUSVQONvNzZn60rv50fK9dTKhpkT1CBRe297wCf4KjKmeVEqyngL3uTO+p83+tJ7X67IECGgBKwGDPJQSmzp8uhvnAe8cyn26tioElmZbbUJVJFEICUhAAhIYkkDhH1kbPcm+OF/yv++NtcmQGtDFEqi8QC5KMWFULT9dOMVylY+jBBKA9NX+fiLu0vYoQc6Gu+rrGbtwir0cZHqFLomAFrBKwhpuoxMyvn8El+ox2yDH8O5sq+0WZHKFloAEJCCBQYEDO33LgTyz3ZgFvANIiUYCoQiY8TfyTN71Ef6nvd0KJxXqI4GKCjRe7a1RxBUOtRUNos6HKlA42fTW7hY+aTqkaqh2sb5eC1ixHt6hF9c43/eIcnQ67Dj0u3VHhQX+lG3h3TqJsMKjoO4lIAEJjFBg3FKvSz3PVJwWg92BDUfYpG6XQHkECpu6O49YRGv3NH6p7yTlYVcvbyzQ2OHfMuMY/RgQ2CwxVhl0d7dYc2DJFbfEAlrAKjFwaM2P7/AdU8Z1wPtDy6689PbD1je22l9kIQEJSEACoQu4Tcjw/show2nFeCuOvreFPqzJyJ/Dud1qOap7qt2XjJJVZbUKNHZ6T+SMc4iqNaNyrVXglTVPIV+WbbWT5COBfxbQFyHNh9cJTM74FgNwI/BB0YQl4LA6MiZ3t9iSsJIrrQQkIAEJvJHAfhnfYJRzuEU043wEtMG7ZksQAivXnKz537lVnLH0cHssiMQKGUuBdMbvBHalcNSAPiEJvOjO13ra7KKQQitr6QX0B7n0xkH1UHhtofZ5/sdhD/3SG9TQFcLmLOLc7ul2RnDJFVgCEpCABN5YoN2jCdvxiRSkHU7UKYWaLEEIOC9gXJpPceGSaVY4BU4fCZRVoPADQB38DtiqrB2rs2IIPOvOsT1tdm0xGlMb8RHQAlZ8xrJolaQ7fCkRn9EX5KKRlquhwmap12db7aBydah+JCABCUigfALNXb5xbx9tERytvSrL566eRiTwJyK+sWI1ly+faX0jakk3S2CIAo2dvqv54Jslbxnirbq8wgIGT+FM626zmyscRd1XmYAWsKpsQKohTlOHX+bGdKChGvIow3oLFE7ruD3bah9f7zt0oQQkIAEJBCUwtt1rxmzNPpbiQOAIPS0d1PAlL2xhU3d4EOdrKx7mmuXtNpA8BFVcKYF0h8/GuEAHYVRqBIbfr8GTeaOxp8XuHX4rujOOAlrAiuOojrCmxox/2eBkYKMRNqXbyy1gPLzbQ+ygo6vLDa/+JCABCZRRwN0m/pB35Qc4eM0C1leB0WXsXV1JYKgChSfEf2PGV7qns1QnEw6VT9cPV6Ap4991OAyoH24buq9iAo/WRux13XR7smIJ1HFVCmgBqyqHpbKh0hlvWbN4Vdgwb/PKJlHvQxZwnrWIj3e32INDvlc3SEACEpBAQAJu4+axYSrHfmYcD+wZUHhFTZiAwWo3frzmcaz2nha7O2Hlq9wKCaQzvshgvENthSKo2+ELPLgix3/q1ePhA8b1Ti1gxXVkR1DXpHn+6XyeToctR9CMbq2AgBl/G8hx5NIZdk0FuleXEpCABCRQZoHmLh/VN8C2nudIy3OsTtoq8wCou/UXMHrd+X4+xzeXzrSn1/9GXSmB4QmkM/4rg90douG1oLsqJJDHuS3bxl5ghdeQ9ZHAawJawNJk+DeBxk7/IE6PwbvEE5xAYYPUy7KtVvg1Xh8JSEACEkiCgLtNupqN8ykOczhFT1AnYdCDrfEVnC/VNzB34RTrDbYKBa96gcYO38qMm4Dtqz6sAr5OwGG1RfwwO91aRSOBfxXQApbmxL8vYHX4O834BbC1eIITGDBY0t1qk4JLrsASkIAEJDAigeYuT/X2spsZ5wL7jKgx3SyB0gm8kofW0fUsXjjFcqXrRi0nWaCxww8y4zvA25PsEGjtfWZ8o7vF2gPNr9glFNACVglxQ2163FKvq3me3+LsEGoNSc1tkHe4M9vCR7VJalJngeqWgASSLtB8hW/WN2rwH24HYdTqpMKkz4jqq9/hSTcO/vBD3K6DZ6pvfOKQKN3h52EcpRMIgxzNVyLjqMUtlgkyvUKXVEALWCXlDbfxdMaX4+yF6Z3x0EbR4SGcfXra7PHQsiuvBCQgAQkUR6CwN1ZvL182ow14J5AqTstqRQJFEjCW4RydbeFR/ehWJFM185pAep5nyDEFo04swQm8FDmfXdxmPw0uuQKXXEALWCUnDrODpoxf5gx+6R0VZgWJTv0MxnHZFutKtIKKl4AEJJB4AbemDsa6cRbwUaAm8SQCqDaBs+rruWjhFPtbtQVTnnAFCq9T9/WzFOfTWrwPchxfJM+e2Rn2f0GmV+iSCmgBq6S84Tae7vQv4oNfeBvCrSKxyVcYXNrdav+VWAEVLgEJSEACrwnsl/Et6uAK4FPARqKRQBUJFPbAOnzLXuZfNttWV1EuRQlYoLGwn29EN86uAZeR5OjP08tO2dn2XJIRVPvaBbSApZmxVoGmjB/o0AGMEVFwAv3Af2dbbVpwyRVYAhKQgARKIjBjrtc/F3GWGeOAD5SkEzUqgWEIuPOKQXO2zZYN43bdIoF/E0h3+iTyXIzpQKogp4fz6G6PsJ32xwty9EoeWgtYJScOs4P0PP+oOT92Z+MwK0hwaie/5lf2m//cx7i79GtmgieCSpeABCTwLwLuNqGT/SLjBJz9AX0P1CSpCgGDP3gNE7NT7f6qCKQQQQs0dfqZ7hwPbBp0IckM78BPs622XzLLV9XrEtAXl3UJJfT/nzTXt86luFt/8Qc7Ae5NjeKziw6xh4KtQMElIAEJSKD4Au426Vq2za/iqw6TgA2K34lalMCwBK7NpzhyyTT767Du1k0SeFUg3eGXY0wH6oUSlkDhRHWc73S32QlhJVfacgloAatc0oH1k57jo72BBw22DCy64v79J/UncU7tbrN5ApGABCQgAQm8TsDdDpzH21fDMUAzzg4SkkDFBYwBd85rqOdrC6fYqornUYAgBfbL+AZ18ENgPOg09QAHsbCAdVS2zeYEmF2RyyCgBawyIIfaRbrDf0XEh3G9YhDaGJrxN3cuzbbaqaFlV14JSEACEiiPwKS5vslADRMMZr56Wld5OlYvEnhjgb9axGnd05iDWeFVIn0kMCSBpmv8Q76ay4Ddh3SjLq4WgVxhr8buFvtJtQRSjuoS0AJWdY1HVaVJZ7xwYtEs7ZFRVcOyvmEKv1xem2211vW9QddJQAISkEDyBMbO9foxER+KIk5y50A9sZC8OVBNFRdeH3L4fd44ckmL3VJN2ZQlDIGmeT7L85wJbBVGYqX8F4EcOT6Qnan98DQz1i6gBSzNjDcUaOzw4824SF9mg5wk7s5NVsuh2ak6gjbIEVRoCUhAAmUSaO7y1Mo+dkzBcXnnUDMd4FImenWzdoH+NW8ALLGIo7qn2jNCksBQBBo7/SzyHKe/x4aiVj3XOgy8XM+my6fYy9WTSkmqSUALWNU0GlWWZXyHN6aMRUCqyqIpzvoJ/G8qzwmLZthN63e5rpKABCQggcQKuFvTVWzJKA70PMdh2hcrsXOhOgpfYXDl6s05Zdl466+OSEoRgkC603/gziyD2hDyKuO/CTycbWF7vUKsmfFGAlrA0tx4Q4GmBb6zDwyeRKgFrDDnyTMRfGNxq10cZnylloAEJCCBcgs0d/mY3pV8xCK+AexW7v7VnwT+SeBPZpzXPZ3v6R+zmhfrIzDxGn93boBLrbCBu/bwXR+yqrvGjOu7W6zwOrs+ElirgBawNDHeUKCwuWuuhmdxasQUpMArDj/oabUvBpleoSUgAQlIoCICY2/2mjF/ZhvLUTjJ9sPaC7Miw5D4Tgv7YQG3Gpy8uNV+lXgQAaxTIN3hEzG+DrxvnRfrguoUME7PtlhhDPWRgBawNAeGLtCY8UcN3jP0O3VHFQj4mqPR59c3MGPhFMtVQR5FkIAEJCCBYATcJs1l43yKhW6M1Y9ZwQxc3ILmDDr6V3HyDYfbC3ErTvUUV6Cpw09yo3AC9+bFbVmtlU3AmJxtscIWNvpIQAtYmgNDF2jq8OvcmDz0O3VHVQgYP3c4rqfF7q2KPAohAQlIQAJBCbS7R3fP4zyHY3AaggqvsPEQcPodzs/9jXOWHaf9sOIxqKWowi3dybk4JwB1pehBbZZeoMbY5Xr9u6X00AH3oFcIAx68ckRvzPipxuCjuPqEKOA8noevLmmzq0KMr8wSkIAEJFAdAhM6vSmCK3E92VAdI5KwFMYfPc9pDQ1cr6fKEzb261lu0wJ/m6/mYoxD1/MWXVZ9Avneejb76RT7W/VFU6JqEdACVrWMRJXmSM/1SaS4vkrjKda6BVaYcUF3i31t3ZfqCglIQAISkMAbC0yc5+/LO4vM2c4hkpUEyirgdJHnzOwMHtCm7mWVD6Kzxnn+actzHrB7EIEVcm0CT2RbbSvRSODNBLSApfnxpgJrXiHcec0rhHr9LNx5kje4rK6ekxZOsd5wy1ByCUhAAhKoBoED5vrWtTVcg/MhvaZTDSOSqAyF/TwvGBjgomWz7NlEVa5i1ynQ2OmHR85ZDluu82JdUK0Ci7Ktpq1rqnV0qiSXFrCqZCCqNca4eb5RTZ7Cl4RR1ZpRudYh4NzkOb7UM8vulpUEJCABCUhgZAJuE6/hXZ7jQs/zaWCzkbWnuyUwBAHnhSjixE0H6Lp6pvUN4U5dGmOB5i5P9fVxCnA6aK++gIf6y9lWOyfg/IpeBgEtYJUBOfQu0hm/H/iP0OtIcP5HPM8ZPTNsfoINVLoEJCABCRRR4MBO33J1nuOJaMbZtohNqykJrEtgeSrFibv8kfva2y2/rov1/8dfoPD30YBztsOs+Fcb3wrdObCnzbR1TXyHuCiVaQGrKIzxbiSd8QzQEu8qY13dCjfae1rsolhXqeIkIAEJSKCsAvtf4ZuNGsVBwFHAB8vauTpLroCx5msNPyDFV7un2jPJhVDl/xCY0OF7Rza4/9UeUglXwI1ddHJ6uONXruRawCqXdMD9NHX68e58K+ASkh698Ovktwci2pdNt5eSjqH6JSABCUigeALNXT6mv4/93DkZ4yOAvlsWj1ctvbFAL86Jb8nToVcJNU2a5vl0d76J8zZpBCuwghq2zU6154KtQMHLIqAvGWVhDruTpk4/wJ1lYVeR8PTGjQ6n9rRoH6yEzwSVLwEJSKDoAuMu8bpRG7NX3vgysCeQKnonalAC/y7wO3MO7W7ltzqVMLnTo/D3T2pjjjPjbO3ZG/Q8uJNePpWdbSuDrkLhSy6gBaySE4ffQVOnb+/OH8OvJNEVPIJxcrbF/jvRCipeAhKQgARKIjC23Ws22I49Ivgyzj46obAkzGr03wUW99bT9tMp9jfhJFMgnfFt1vyDtt2hNZkC8ai68Frw6hc5Ydlx1h+PilRFqQS0gFUq2Ri1u+8c37ihgcJG7m+PUVlJK6XwqP0Xs61cql8pkzb0qlcCEpBAeQTa2z26exs+4BGn4zQCo8vTs3pJsMCAO6f1tNkFCTZIdOlNHb63GxdrH77Ap4Fz9IqtuGz53jYQeCWKX2IBLWCVGDgOzTd3eUNfHz8CxsehnoTWUNjw9Ps1xjnXtdhTCTVQ2RKQgAQkUHIBtwnz2SbKcQLQBmxU8i7VQdIFnl5l7HVDiz2YdIgk1j8h482Fp3cMNkti/XGp2fPsv/uj/FQni8ZlREtXhxawSmcbm5abu3xUfy+nuXFmbIpKZiF35o2TlrTYLcksX1VLQAISkEC5BMZd5W9NjeIwy3OqFrHKpZ7cfgzurKvnkwunWG9yFZJXeeEQid5ejjHjHCBKnkBsKh7wFO/rmWbasiY2Q1q6QrSAVTrb2LTc3OWpvn6m4CyITVFJLMR51ozPd7fadUksXzVLQAISkEB5BfbL+AZ1cKDBHIeG8vau3hImkPOIc3um2xkJqzvR5U6c5+/L5bnA9JZI6PPg/3I59l06054OvRDlL72AFrBKbxx+D+42cS575Gu4PfxikluBQR7j+Lo6Lls4xVYlV0KVS0ACEpBAuQQKm7uPeQ97Woqb9IREudST2Y/BXzzHp7IzrbBvqz4JEGjs9LEGV+O8JwHlxrZEg0yU4/hFM+3F2BapwoomoAWsolHGu6Fx8/xdNXnuAzaNd6Uxr87o8gG+3DNTj+jGfKRVngQkIIGqEhj/Q98x1c99GHVVFUxh4iTgGPewkr2ys21lnApTLWsRcLfGDJMsogunRkbhCrjzJevje/pzG+4YljO5FrDKqR1wX+kFvrmvZr4Z+wVchqLDg5Exa7H2wdJckIAEJCCBMguM7/AdU8YtGG+lsNSgjwSKLODO3yzi3N0e4gJtBl1k3Cprbvxcf3sqNbjH3nFVFk1xhihg8Nm395K9bLatHuKtujyBAvrykMBBH07JhU0S+/o4BTh9OPfrnqoReAVj+m4P0a0vdlUzJgoiAQlIIBkC7jZ+Ph+I8lwfwTauTZeTMe7lrtK532Bqdxu/AfNyd6/+yiPQ1OE7O3Ri7FyeHtVLiQRWpfJ8fFEbd2P681oi41g1qwWsWA1n6YoZd4nX1W7MIW5cXbpe1HKZBM6jhguzU+25MvWnbiQgAQlIQAKDAu3tHt29DR8k4iqHD+jVH02MogsYAzg/poaZ+q5TdN3qaNDd0p18ElgEbFIdoZRiOAJm/Caq5aBFh9hDw7lf9yRPQAtYyRvzYVU8eBJhH3sCPwW9Zz4sxGq5ybkrb8xY0mr/Wy2RlEMCEpCABJIjUFjE+s0OfCiX5yKcj4D2xUrO6JenUocngXOe6uXKu/RaUnnQy9hL8/d8TP9GHObOxaDXkctIX4qurrYaTumeas+UonG1GT8BLWDFb0xLVlF6ge/EADcAW5WsEzVcDoG/ApOzD3ML7ZYvR4fqQwISkIAEJPA6AXdr6mS3PHzVYCwwWkISKKaAG78kz4k9bXZHMdtVW5UXaOzwrSLjSod9K59GCUYkYJwyYFy6bLq9NKJ2dHNiBLSAlZihHnmhjR3+TuA7ZkweeWtqoWIChpPjC/WjuXzhFHu5YjnUsQQkIAEJJFugcIrYPD6Ec4rBAcCGyQZR9UUW6MWYu6qfM2443F4octtqroICEzL+gQhuAraoYAx1PVIBwz3PoQ0NXL9wiq0aaXO6PxkCWsBKxjgXpcpJc32TXIoTga8UpUE1UkmBn0S1HLb4UHuikiHUtwQkIAEJSKCx0z9I4Rh1aAQ2kogEiijwwJpHzdtfeTc/Wr63DRSxXTVVIYHmLh/V20+zORl0EESFRqFo3T5vERO7p/FLbeBeNNPYN6QFrNgPcfEKHLfU60Y9z8F5p6N4raqlSgg4PJuKGLt4uv2uEv2rTwlIQAISkMA/CxzQ4TvXGl8EJmoRS3OjiAKO0ZMzTl863X5bxHbVVIUEJsz3TaMclwOfrVAEdVs8geXUcGR2qt1fvCbVUtwFtIAV9xEuYn2vnhz0KbfBEz/0C2kRbcvelJP3iNaGOhbqkd2y66tDCUhAAhJYi0D6an8/0eAi1oH6nqEpUkSBv7pxtq3kB9nZtrKI7aqpCggc2Olbrs7za4zC1ib6BCzgxnfzdZyzdIo9HXAZil5mAS1glRk89O5efef8KuDDodeS+PzGf+cjPrdkmhU2dddHAhKQgAQkUHGBxrm+g6U4zYyD3BlT8UAKEBeBe804uXs6P9WrSuEOaeHH9F9vy2ci6NGp6OGO4z+Sm/GFujou05684Y9lOSvQAlY5tWPQV2Ejd4toxzk8BuUkvYQ/1Rofvq7Fnko6hOqXgAQkIIHqEZg017fOpfgyMBVoqJ5kShKsgDFg8L0a+Ia+9wQ7ioy7xOtSG3O5GS3hVqHkrwqsMpheV891C6dYTioSWF8BLWCtr5SuGxQYN883SuU4yoxzRRK8QM6MA+vqWKL/cAQ/lipAAhKQQKwECq8JDThnO0wHRsWqOBVTKYHnIufIJ/tYfNdsW12pEOp3+ALprI/mRX6H857ht6I7q0TgdxZxRPd0u7VK8ihGIAJawApkoKolZnOXp1at4qB8ngU6+aNaRmUEOZzFK/Icsnym9Y2gFd0qAQlIQAISKLrA/lf4ZnWjuNihteiNq8GkCvwsD8csabXfJxUg5LobO3xPM5YDqZDrUHYw+CHGGd0t9qA8JDAUAS1gDUVL1w4KNF3tn8wbV5ixg0iCF3imH7a7sdVeCb4SFSABCUhAArETaO7yhpV9XBP9/XRCfSQwUoGcOYe9lOda/Xg3Usry39+U8WscDil/z+qx6ALOeTXwzevb7Pmit60GYy2gBaxYD29pihvf4TumjK/r+NrS+Ja71TwcsKTVbih3v+pPAhKQgAQksH4Cbo2d/Nic/dbvvb3B2gAAIABJREFUel0lgTcRcJ43+Ex3G78Bc1mFI9CY8ScNnT4Yzoi96Z/Do1dsxWXL97aBWNSjIsomoAWsslHHp6NxV/lbUylOLpzmEp+qkluJG0t6WqwxuQKqXAISkIAEql1gbJeP2aiP6x321utD1T5aAeQzvj5gfGPZdHspgLSKCDRe6R+zUdyKF94+0ydwgcccju1ptWzgdSh+BQT0F0AF0EPvsrnLR/X3c4Q739KXyNBHczD/XwY2Z6tl460/FtWoCAlIQAISiKVA81x/e1/EPDM+6VAbyyJVVFkEDFY7fGa3h7mlvd3yZelUnYxIoDHjPzQ4eESN6OZqEfhxLsepS2fab6olkHKEI6AFrHDGqqqSNmY8bfBdYKuqCqYwwxIwo7G7xZYM62bdJAEJSEACEiiTwIHzfdvVA1zmxidNi1hlUo9nNw5LanJMXzTTXoxnhfGpqvkib+jbnPv1746YjKnz/Vyery2daU/HpCKVUUYBLWCVETtOXU2a77vk8pyLc0Cc6kpwLUuzrTYhwfWrdAlIQAISCELAbUKG90fGt3A+BdQEEVshq1PAODjbYl3VGU6p/iHQNNcP8BSF18305z38aTHg8JWXc1ysgxTCH8xKVKAFrEqox6DP8XP97akazsA5KgblqAT4S43zPp0EoqkgAQlIQAJVL+BujRk+bMb5wJ7azqDqR6xqAzo83PsSe9x0jE5Cq9pBAtIZ/xFwIGj/q2oep/XJZvCk5/lSdoZdsz7X6xoJ/KuAFrA0J4YlMHau149JcWIEX9U+FMMirLabcgZHdrfa5dUWTHkkIAEJSEAC/yrQ3u7R3Tuwp+f5Os7HgEhKEhiOQN74yoenc067aS+s4fiV+p70At+cAe4Atil1X2q/9AIGN0cpTlk0zQpjqo8EhiygBawhk+mGfwhMyPghEYO/fr5bKsELuDnLu9tsn+ArUQESkIAEJJAIgeYuT/Wu5NNEnGWwh57OSMSwF79I42UG+HB2phX2WNKnygQmdvpMh0vcGVNl0RRnOAJGh+c5vafN/jSc23WPBLSApTkwbIH0XP8wKc4DtOgxbMXqudHgqQFn7NI2+0P1pFISCUhAAhKQwBsLHDHHa5+qZ/81Lxa1A7tqEUuzZZgCV9fXM3vhFFs1zPt1W4kEmjp9scN4XPtflYi4bM06rDY4f0WOs7X/VdnYY9eRFrBiN6TlK+jATt9ydZ5zMGaWr1f1VEKBXne+0dNmXy1hH2paAhKQgAQkUFSBcZd4Xe0mTHD4Ksb7ce2TU1TgZDT2IjV8NjvVfpaMcsOosqnTt8dZ4sYO+nMdxpitI+Xj5nylu806YlGNiqiIgBawKsIej06bu3xUXx+nA6cAo+JRVYKrcPJm3Lrrw4xtb9c+EAmeCSpdAhKQQHAC6Tk+OmpgUmERy2H74ApQ4EoL5IAb6ldw8MKj7eVKh1H/fxdoyviXHE4FNpFJDASMn0fOlxa32q9iUI1KqJCAFrAqBB+XbhszPtXgbG2sGJcR5YnImLa4xW6JTUUqRAISkIAEEiHQ3OVj+nqZiXEa8PZEFK0iiynwvDlf0NMhxSQdfluFgxru3JZug/1Brw8OX7Kq7ry21jjxuhZ7qqpSKUxQAlrACmq4qi/spKt9t1w0uJG79sGqvuEZTqJXgMuzrXbicG7WPRKQgAQkIIFKCjR3+ca9fZyxZl/H2aBNnys5FgH2XXgK6xf5FJOXTLO/Bpg/VpHTGf+UwWUOO8aqsOQW0+/w3ZffzSnL97aB5DKo8pEKaAFrpIIJv39yxrcYgIuBqQmniEX5BnmHX9bXM27hFD1CH4tBVRESkIAEEiYwYb5vGg1whRlph9qEla9yRybwfGGT6e5WK/w4q08FBRoz/k2DI4ANKxhDXRdP4BE32ntaLFO8JtVSEgW0gJXEUS9mze0epbfjazgnAKOL2bTaqoyAw1MYX+lpsSsqk0C9SkACEpCABEYmMG6eb1Tj/BzngyNrSXcnTMDXvFXw8xqYcn2r/SVhtVdNufvO8Y0b6unC+IxOFq2aYRlpkF+Yc1x3m90z0oZ0f7IFtICV7PEvSvUTO/ygvA3ug/UfRWlQjVRaoN/g2u5Wa6t0EPUvAQlIQAISGK7AfhnfoM55HGOz4bah+xIp8BLw/WxrYS81Kyxo6VNmgXTGD8M5E+PdZe5a3ZVIwIzrowFmLZppL5aoCzWbEAEtYCVkoEtZ5sR5/j7P812HvUvZj9ouq8CdUcSsxdPtt2XtVZ1JQAISkIAEiigwucPfkjMecHhLEZtVU/EX+BlweLbVHol/qdVVYWHz9ru24zs4s4D66kqnNMMUWIHz/WybFU6u10cCIxLQAtaI+HRzQWDw1J8+rjBodoikEguBF4BvZ1vtrFhUoyIkIAEJSCCxAumr/f1EFBYktkgsggofqsArON9dsRVf1obTQ6Ub2fXj5/p/plJ8B/jUyFrS3dUiYPCHvHNKT5tdXy2ZlCNcAS1ghTt2VZV8QoefEdngPlh6TL+qRmbYYXI4/z2Q4nPLplvhUXp9JCABCUhAAkEKNHd5qm8lkzAu0+uEQQ5hpUL/JJfjC0tn6mn08g2AW1OGkxwKT+psXr5+1VOJBW7zFG090+yPJe5HzSdAQAtYCRjkcpTYeLXvZ9HgaYTvK0d/6qMsAr9353T9WlIWa3UiAQlIQAIlFHj1afGTgS8AG5SwKzUdH4GVDhe9nOOc5TOtLz5lVW8lzV2+WV8vF2FMB1LVm1TJ1lvAGMDpXpFjmv4crbeaLnwTAS1gaXoUReDAef6u1c58nE8WpUE1Ug0Cg4/P1zfwlYVTbFU1BFIGCUhAAhKQwHAFDuz0LVfD+eYc7FA73HZ0X3IEHH4awandrXZncqquXKXpTp9kzjmuH8QrNwjF7/k5d87vabMLit+0WkyigBawkjjqJah5bLvXbLQdV3ieQzDqStCFmqyMwE/M+WJ3m91Xme7VqwQkIAEJSKBYAm5NnexYeKoG5wC0b2exYGPbzppX2QpPXp3TUM+FC6dYb2wLrYLCmru84f+xd+fxcdX1/sdfn5mkSUrLrrKIguJV7r2ot+BVuSpFEaXNpAVNlC5JF2xRUET2PYDIvlgWaaGkmbRFGoU2SVtAkSoiIBT04oI/Vtn3pVu2mfn8OrF4UYFmmcmc5T3/wOPRc77fz+f5OW1OPnPO99vdyYlufU9JjgxASAqhAAKb1r+a2dFgvy7AcBpCAqiBpYugYALVzX6oJTgDZ6eCDaqBSi3w4sZl+Rvbp9iVpQ5E80tAAhKQgASGKpDf4eze3dg7YZzrMBZ0LzxU06if785t0LcA9W+jnmsp86tu8TGW4xyMA0oZh+YuqIBj3M0GUu2z7aWCjqzBYiugBlZsS1/4xKvn+8esnMVaB6vwtiUcMb+YezrTw2krv2FPlTAOTS0BCUhAAhIoiEDtEh/R08X+OeOsjWuzjCnIoBoksgL5p7AMTqqs5Co9hVWsMrvVNDPdjfO0eHuxjEsybqfDwo6pzMbMSxKBJo2cgBpYkStp6RLatEDqsk3b3mrhxdKVotAzP4hzQnuD5WurjwQkIAEJSCD0Agcu9C3Lnek4xzvsGPqElEBxBYxVuSzHLJ9mq4s7UTxHr272nS3BqeT4Brbx2X99oiLwgif4TscUuz4qCSmP0guogVX6GkQoArfqNGcafAfYMkKJxTsVp9sSnEMPF7fNtLXxxlD2EpCABCQQFYH8L80YJxtMByqjkpfyKIpAfi2sIysradFTWIX3HZ/2LyXgUuAjhR9dI5ZQ4DHgC+31lv+vPhIoiIAaWAVh1CBvCKTS/nkgDewslQgJOHc4HNvRYHdGKCulIgEJSEACMRf48nz/cHk55+LU6MmPmF8Mm0//1+Ycro1tNg81kCPyT0OWZTkC43RgxEDO1bEBFjAyOD/fsZOaebOtN8CRKrSQCaiBFbKCBT3c8Yt8G8tyl8G/BT1WxTcggbUkOXyvh1jU2Gi5AZ2pgyUgAQlIQAJBFdi4qHv1h9jbMlyM8T9BDVNxBUKgx2F69jV+uvI71h2IiCIQRKrJP0GCORifikA6SuH/BNbhnNTeYJcJRQKFFFADq5CaGgvcLbWQ+TiT9S1KpC6I/MKLSzzLqR3T7aFIZaZkJCABCUgg1gJjb/OyUU/xNXPO3PgU+QdijaHkNyewKpdk5vLJ9ujmDtSfb16gdoknu7r5Cs4CoGrzZ+iIEAm8nM2y/4rp9rsQxaxQQyCgBlYIihS2EFMt/hWD+e5sFbbYFe87CjzvCeo7ptgtcpKABCQgAQlESeDAOV5RtjXnAjOB0VHKTbkUVCBjOSaueT83r9rPMgUdOYaD1bT47hv/vl3k+Vd49YmOgOE4/6+yko+21llPdBJTJkEQUAMrCFWIWAzVS3xn6+J+4F0RSy326ViC83t7uHDlDHsx9hgCkIAEJCCBSAnULvERnV0sN9gP0G7KkapuAZMxVlqS6W2T7PkCjhrLoWoW+v+4046zTSwBopt01nOc3zHNTopuisqsVAJqYJVKPuLzptKef0pnf0DXWLRq/XgCvr6s3u6OVlrKRgISkIAEJACHLPbt12e41WFP3cPoinhLAcMty9gxj/NrrQs6+GvkoGbfLgsnufG9wY+iM4Mo4NCbTbDfyil2RxDjU0zhFlBzIdz1C2z0qbRP27gT4dVAWWCDVGADFnBwS3Bkd45rb6m39QMeQCdIQAISkIAEAi5QnfZxCWhyeHfAQ1V4pRNosV4Ob5tpa0sXQohndreaNHs6dGDsEuJMFPpbCLjzystVvPfOOusUkAQKLaAGVqFFNV6fQP6ddnd+D4wUSbQEzHgAqG2ban+JVmbKRgISkIAEJPA3gVTa5xgc5lAuEwn8i4CRzWbYWwtUD+7aSM31kWzBLHJcrCcdB2cY6LOMee1TbXagY1RwoRVQAyu0pQt24I2Nnlj9Ae4BxgQ7UkU3UAGDXs8xpXIkS7Uw40D1dLwEJCABCYRBoG9nwidZacYXcC2HEIaalSDGSyorOba1zrIlmDvUU1Y3+/vMuBn4SKgTUfBvKeA5vtQxTZs+6fIojoAaWMVx1ah/+/byKOj7ZkWfqAk4vyozam+stxeilprykYAEJCABCeQFxjX5DskyfobznxKRwL8ION3lSXa/YYo9JZ3+C2xqDtcZpLVZQv/dQnTkqz097H7zofZKiGJWqCESUAMrRMUKW6jj075Hgr7XzbSTT9iKt/l48+tf1ew1lVWNZrnNH64jJCABCUhAAuETSDX5RE+wwIytwhe9Ih4GgdPb6zkLzIdhrkhMUTPfR3s5vwD2jkRCSuIfBZzr2htsklgkUCwBNbCKJatxyX/DMvpJVgMfFUf0BMz4SUUF9a1aoDF6xVVGEpCABCTQJ7DXXC/fqYozgWP1hZwuin8WyC9W3dvLh/S0Sf+vjZom/7InWQaM6P9ZOjI0As7E9gbL11cfCRRFQA2sorBq0DcEqpv9BDPOkUgkBdYk4IBl9XZ3JLNTUhKQgAQkIAHgwCX+rrIurgIOFogE/qWJBbM66i2/87Y+/RBIpf0W4Iv9OFSHhE/gZXc+1tFgT4cvdEUcFgE1sMJSqZDGWbPYP0qG+x0SIU1BYb+DgMOijnqbIiQJSEACEpBAVAVql3iyM8OnLUMLsGtU81Regxb4vfXy2baZtnbQI8TkxJqF/j+e61u8fYuYpByvNBMsrhzBdG3yFK+yD3e2amANt3jM5qtd4qM6O7ndjI/HLPVYpGvO68kKPn3j1+3PsUhYSUpAAhKQQCwF8vcz3d3MdOd8vfoUy0vgnZLegPO19gbrkMw7C1S3+DJzauQUTQGDQyoqadXOnNGsb1CyUgMrKJWIaBx962A9xXE4Z0c0xdinld9Fpq3eGmIPIQAJSEACEoi0wMEtvmMvnAJ8E0f30JGu9oCSywK/qKykWk+evL1b9SL/b8v2Ld6up68GdHmF5uCXPMk+HZN5WJsahKZmoQxUP3xDWbYQBe1uE9N8ImvcBbrZC1Hl+h2qO6+XjeDjSw+xx/t9kg6UgAQkIAEJhEyg0T1x73XsY1l+iDMmZOEr3GIKOM/gHNA+zf5YzGnCPHaq2a/HqAtzDor9HQVaKiv5dmudvS4nCRRTQA2sYupq7D6Bg9L+7oyzDONTIomkgDtc01FvsyKZnZKSgAQkIAEJbBIY2+SVo5JMM7gIGCkYCWwS6MJY2D6VWXr65F+viU1r4v7M4d26YqIpYMaUioq+1wd7opmhsgqKgBpYQalEhOOoXeJVnV182+C8CKcZ79ScZzJZPr5yhr0YbwhlLwEJSEACURc4qNm3y8AJGEfr6fKoV7uf+Rnuzh9yWQ5YMd2e6+dZsTkslfa0wdcdymOTdLwSfaEMvnBjPX9UAzdehS9FtmpglUI9ZnM2Nnrivl35tCe5XWtGRLb4PThN7Q12WGQzVGISkIAEJCCBTQI1Tf5FT/Z9MfdfQpHAJoGXcM5sb7DLJPJ/AhMX+AezCX4G7CaXaAoYXN1byckr6/RFdjQrHKys1MAKVj0iG011s7/PjDSwb2STVGIPZ7N8Vt886kKQgAQkIIHoC7jVtHDMxnfoG/UqYfSr3a8MDSfH7ZVVjG+ts3X9OifqB7lbqoWrgclAZdTTjWl+bs70NTmuXzXdumJqoLSHUUANrGHEjvNU+e2nO7uZZd63ZoQ+0RToxGja6xG+3dhouWimqKwkIAEJSEACfxPoe5UwwbnANJwyuUhg4yLlf7Is32ybZr+SBhz0Y98j08NPgH+XR0QFnMeTzleXTrPVEc1QaQVMQA2sgBUksuE0eiL1AT4LtAFbRjbPOCeW/+bRecCzfLVjuj0UZwrlLgEJSEAC8RCobvaDDM4iwb9rmYR41HwzWXY7LFq3C7NX7WeZOIuMvc3LRj/Vt2NnA7BFnC2inLvBFZks39cbGFGucrByUwMrWPWIdDQTr/Nds71cCHwl0onGO7l1bsyvquDo1jrLxptC2UtAAhKQQOQF/vYF3SnAkcC2kc9XCfZH4Jee5Rtx/zKvusXHmHM1xn+pudufyyaUx3QDh2W257qV4yz///pIoOgCamAVnVgTvCEwNe1bvObMwLgESEomkgIO3JNIcOiyKfZAJDNUUhKQgAQkIIE3CdQu8R26urjKYJx2WdOlgfEMOc7d6zGuiOuSCgfO8Yqyrfterz0UGKWrIrIC92fhmyvq7e7IZqjEAiegBlbgShLhgNytJs3Y/BM62okkwnWGNQZX7dDJKfNmW2+kM1VyEpCABCQgASDV4ofgnI2xq542if0l4QbXZ5N8a/lkezWOGqmF/im87wvrT+rvQ6SvgEuzWc7T64ORrnHgklMDK3AliXZA4xb5+5MZTseYHu1MY52dY/wG46j2KXZPrCWUvAQkIAEJxEIgv97Plk9xiXvf/Y3W+4lF1d8xydWe4PiOKXZr3ChSc32kVXG6wzeB0XHLPy75uvF6wjhyh4+weN7e+sI6LnUPQp5qYAWhCjGKoXaJV3V2McPoWwtL2+lGt/ZrLMEV2+7MmQv205a60S2zMpOABCQggTcEJiz0PXM5rtu045ruseN8aTgb3Li4qpKzWuusJ04UqbTvi/W9PqinryJceIPbgOPa6u3eCKep1AIooB+uASxK1EOqWeSf8xyX4IyJeq6xzc9wc36Lc2Jbg+V/wOkjAQlIQAISiLxAKu2z3DnfjK0in6wS3JzAT3NJjls+2R7d3IFR+fP95/pWVZWciHGEnkSMSlXfOg8zLuiu4Nyb6+yVaGeq7IImoAZW0CoSg3hqrvOd6OVUh8NikG58U/zbt4+XZxOcvXKKrYkvhDKXgAQkIIG4CIy9wkdtOZobHT4PJOKSt/J8S4EnLMHJbZNZhFl+k5vIf6oX+AGW4BzQl9QRL/bTbhxfVcGPtet4xCsdwPTUwApgUaIe0qy5Xv7cyL5dSc5x1zeUEa/37804oW2q3RTxPJWeBCQgAQlIoE9gXNo/WWbcrHuc2F8QOeD8ykrObq2zdVHXSC327S3Lce58W8uERL3atFPGie2T7I+Rz1QJBk5ADazAlSQeAaWa/FOUcQ7O2HhkHNssuzEuI8l57ZPspdgqKHEJSEACEoiPQKMnaj7A9x1OjE/SyvRtBG4y56S2Brs/6kI1Lf5ldy4G9oh6rrHOz8jgXEgnZ7XPtg2xtlDyJRFQA6sk7Jp0/CLfxjKcaX97R16fKAs4DyWM7y6rtxVRTlO5SUACEpCABN4QqF3i23Z18QiwtVRiLbDW4eiqSq6N8qtW45p8h7IEx7rxHaAs1hWPfvJ/xDm5vYE2iMersdEvabgyVAMrXPWKTrTuVrOIes9xFrBLdBJTJm8hkAWuKDfOvWGqPSshCUhAAhKQQBwEUs0+AeNGQPfbcSj42+Xo/CCZ44Kl0+21qDLUtPgXPcd8TPf0Ua3xG3k5tOIc09FgT0Q9V+UXTAH9QA1mXWIRVarJP0KSC4DqWCQc7ySfM2O61sKK90Wg7CUgAQnESWBak1e+XMb/4nwoTnkr138RuNdyfLdtmt0RRZvqZn/fxrwazZimZm0UK/wPOa0x58Ixj3F2Y6Pl13jTRwLDLqAG1rCTa8I3BBobvey+D3Keux43jsNVYcaP3Tmpvd4ei0O+ylECEpCABOIu4DY+zUeSxu/cGRF3jRjn7wln1nu6aJ4323oj5eBuE5v5fDbR96Th6EjlpmTeSuBOd47uaLA7xSOBUgmogVUqec3bJ1DT4uNzzjkGe4ok8gLrHQ5Z9ygrVzVaJvLZKkEJSEACEoi9wIELfctyuMadr+J6lTC2F4RxHkkujNqGNqm07wZcCXw5trWNT+I5nOstw+y2mbY2Pmkr06AJqIEVtIrELJ78oo/JMi7HOQhIxCz9+KVr/MoTHNoxmYe18GP8yq+MJSABCcRRYNOSCb/c+Iv+u+OYv3LuE3jQy5jRMYm7onL/M2uulz87inFkuR6oUJ0jL/Ckw1kd9XZ15DNVgoEWUAMr0OWJQ3BuNWmOdThm40Lf74pDxnHO0aDXjNnbZLhuwXTrirOFcpeABCQggXgI1C7xrbq6OBY4UV/WxaPmb5GlAw2VlVzfWmc94VdwS6XZlfyC3rBX+PNRBpsRyF+/v0rmmLl0muV3V9VHAiUTUAOrZPSa+A2B6vn+McqZa/BJqcRC4MEyOPjGqTyIafvdWFRcSUpAAhKIucCEhb6n5/iJw7/FnCK+6SeYU5bj7Bvr7YWwI9Qu8RHdXcxwuBxIhj0fxb9ZgfXAtZWVHNVaZ/ndxfWRQMkE1MAqGb0mfkOgb5eeJD/a+Hj114FKyURbwCCHceaaDOet0lNY0S62spOABCQggT6B/ef6VlWVHEaC7+OUiSWWAk/kkhy8fBL3hf0LvPFp3yMBy4H8Glj6RFzA4P85fLO93n4R8VSVXggE1MAKQZHiEGKqxb+CcyH0PY6sT/QFniNLTft0uyf6qSpDCUhAAhKQAFRf62OsrO8Lu/+WRzwF3KndqYtlod6N0N1SLfwQOAK0MUEMruT8xku3JLNMXjrdXotBvkox4AJqYAW8QHEJ76Ab/N3ZdfzY4XN6FDkeVTf48ZhHmdzYaLl4ZKwsJSABCUggzgJjr/BRo7fgGyQ4FxgRZ4u45u7G5b3dnH7zofZKWA1Sad/XnWVmbBXWHBT3gARe2rgAVmNHvV0xoLN0sASKJKAGVpFgNewABdytZhHHeo4TgG0GeLYOD6fAhqQxfelUWxLO8BW1BCQgAQlIYGACExf5x3NZznf44sDO1NFREDB4ysv4Yvsh/CWMrxH27TxYxS3A2CjUQzlsRsBwc/6cyDJ+6XR7XF4SCIKAGlhBqIJi6BM4qNn/LWN979PvLpLYCPwhmeWzeiQ5NvVWohKQgARiLbBp3c9vGpztUBVrjJgmnzUO3KKCn4VxMeyatB+Wgzkbr9/ymJYvXmkbnQbzKio4OozXa7yKFZ9s1cCKT60Dn2n+W51nqrjCnHqMisAHrAALIZB1OL+j3k4qxGAaQwISkIAEJBB0gZpm/yjGDxzGBz1WxVcUgTndcNIt9Zbf2S00n5rrfCfv5efAHqEJWoEOVeAlEqTap9hdQx1I50ugUAJqYBVKUuMURKC6ycdakp8A2xVkQA0SBoGnDSa21du9YQhWMUpAAhKQgASGIlC7xEd0dXEscIp2Xx6KZDjPdXgu0ctebTPtmTBlUN3sl5pxGOhL5jDVbQix5gx+sW2W1ALtGj4ERp1aaAE1sAotqvGGJPDpJV61fTc/w9lHO5sMiTI8JxsZy9He1mAHhydoRSoBCUhAAhIYvEB1i38M5zyDLw1+FJ0ZUgFPOp9a2sA9YBvXxw7+Z0Kz758z5mPsgmvnweBXrCAR9hg0tNXbjwsymgaRQIEE1MAqEKSGKZxAzUKf4jnma4eewpmGYKSXHU7sqLerQxCrQpSABCQgAQkMSWDsbV625ZOc6c73tGzCkChDebIZjWMe4aww7MRcu8ST3V0sdfgyUBZKcAU9cAHjuYzx4ZVTbM3AT9YZEiiegBpYxbPVyIMUmNjkW2eTPAZsPcghdFr4BHLA3cks47Sge/iKp4glIAEJSGDgAhMW+p65HJcCnx/42TojzAIGL/Ruz/tWjrPuoOdRs9CP8xzHaXmPoFeqwPEZJ7RPtfMKPKqGk8CQBdTAGjKhBiiGQHWLn2nOqcUYW2MGViC/mOm17fUcGZZH6gMrqcAkIAEJSCAUAqm0/xD61hUaEYqAFWTBBHp6+NDNh9rDBRuwCAONv9Y/kChjIfApLe1RBOCgDmn4xrdhdulosKeDGqLiiq+AGljxrX2gM//KIv9QT5Y/6VHlQJep8ME5D+aM7y6vt5sLP7hGlIAEJCABCQRLYPwC38sSXGHwyWBFpmiKLWAJprVNseZizzPY8fO7gz87kktxpgEjBzuOzgufgMOijnqbEr7IFXEcBNTAikOVQ5mjW00JiKggAAAgAElEQVQL7e7aYjqU5Rt80BlPcKMbs5dPtlcHP4zOlIAEJCABCYRDoLrZ55kxVTsShqNehYrSjHvHPMInA7kOlvfdhx/k8APgw4XKWeMEX8CgN+fs29FgdwY/WkUYRwE1sOJY9ZDknEp7fk2I/JM4WjAyJDUrUJgv4FxcWcUlrXXWU6AxNYwEJCABCUggkAI1Lf5l9761sNQoCGSFihSU4ZUVvKe1zl4s0gyDHvbgFt8x41zsxldx3YcPGjKMJxp3rM2w/6rp1hXG8BVz9AXUwIp+jUObYWquj6SKXwF7hTYJBT4YAce5PQnHLm2w3w5mAJ0jAQlIQAISCItAo3vi3hbyW9VPNCgPS9yKc+gCnuNLHdPslqGPVLgRUu0+0l7lSIfvAdsXbmSNFAKBHMYhez3CTwL5ZGAIABVi8QXUwCq+sWYYpEBjoyfu/yBTcrAAR9fqIB1DetoGd64tN866sd5eCGkOClsCEpCABCTQL4HqhT7JslyAsVO/TtBBkRBwZ3FHA1OCtHlNKu37AudgfEr335G4zAaSxJ+sly+2zbRnBnKSjpXAcAqoKTCc2pprwALjFvn7kxl+hvGhAZ+sE8Iu8Kg5pz/dxfWrZ1tv2JNR/BKQgAQkIIG3E6hd4iO6usg/ifMZICmp2Ai81A273lJv+Z2YS/45eKG/N+Oc5M6MjU2sipIHpACGVSAHx6zPcoVeHxxWdk02QAE1sAYIpsOHV6B2iVd1d3G0w1nDO7NmC4BADlhuziltDfa/AYhHIUhAAhKQgASKJlDT4t8kxzlubFW0STRw0AQ6yfGJ9mn2x1IH9umLvWr77ZkEnAHsXOp4NP+wC/w1m2Tiiof4Xxotfw+ujwQCKaAGViDLoqDeEMi/Rrj6/exlSW5weK9kYiewzuAyyvhh2yR7PnbZK2EJSEACEoiNwOSFvuWaHL/F+De9uhWbsvc4HNtRb3NKnXFNs/8XxvkOX9jYxNLviKUuyDDP73CRJzlbu4APM7ymG7CA/nEaMJlOGG6Bg5p9u4xxGvCd4Z5b85VewOCRHBy17lFWrmq0TOkjUgQSkIAEJCCB4ghUp/08nKPMtJh7cYSDNapBftHsO9a8l8+v2q909zjjmnyHRJJjzPgWTlWwlBTNMAg87wkmr3uYX+peexi0NcWQBNTAGhKfTh4OgbGNXjZqVz5vib4derYZjjk1R6AE8o8xryDLse3T7cFARaZgJCABCUhAAgUUyK/9WZZltcN2BRxWQwVb4OkyGFOqTWv61l/rZhzO5Xp1MNgXStGic5ocTu1osKeLNocGlkCBBNTAKhCkhimuQN+ikjnOdqgv7kwaPaACG4ALy5w5NzbYywGNUWFJQAISkIAEhixQnfafGew/5IE0QFgEXnLnoI4G+3UpAq5u8g9ZkquBz+nVwVJUoLRzurPeEsyorGBpa531lDYazS6BzQuogbV5Ix0RAIG+b4c28BWMJky7ogSgJKUI4Wl3vr53Pb9pNC0uWYoCaE4JSEACEii+wMRFvlc2y2+BRPFn0wwBENiAM6e9wU4c7ljGL/JtyHJqAg4HRgz3/JovEAI3lDkn3thg/y8Q0SgICWxGQA0sXSKhEahp8Q+7cy4wMTRBK9BCCrjDqkQ5U9oOsWcKObDGkoAEJCABCQRFoHaJJ7u6yP+ce3dQYlIcRRVw4J7KSj47nE/A5K+z3m4+m4UbcC3RUdQKB3fwjBnfWZOhadV06wpumIpMAv8noAaWrobQCBy4wivKX2aG57gc07eSoSlcIQM1Mhg/qBzBua111lnIoTWWBCQgAQlIICgCqWafjXFVUOJRHEUX+Is7XxjONYjyT18lc/zSnT2Lnp0mCKrATW6c0DHVfh/UABWXBP5ZQA0sXROhEqhu8Y8lnPMcvhSqwBVs4QSMTkvyqbZJPACW/9ZSHwlIQAISkECkBPqewurmNZxRkUpMyby1gPOkO9M7ptmtw0GUv746u7nMnG8Ox3yaI5ACnnBO2ibHpQv09FUgC6Sg3lpADSxdGaESqF3iVZ09HGk5vg8kQxW8gi2kwF8qK9m7tc7WFXJQjSUBCUhAAhIIgkBjoydWf5AOnAODEI9iKLrAWpy57Q12bNFnAmoW+P/kEtxmUD4c82mO4AmY8atcjhM6GuzO4EWniCTw9gJqYOnqCJ3AhBbfJ+ecB3wmdMEr4MIJGE2VFRw2nOtFFC54jSQBCUhAAhJ4Z4GaZv+oG/fpC7sYXCmGk+P2yiq+WOz7mgOv9Xcly7jfYOcYyCrFtxBw6M3v7l1VyQ/0ZbAukbAJqIEVtoopXg5c6FuWOcfjHA3akTCul0T+h2/C+GrbVGuLq4HyloAEJCCB6Ark1yiybF+j4f3RzVKZvUngXncmFnMdrJr5PpoRNLtzkOTjK2BwrzknLmuwn8dXQZmHVUANrLBWLuZx17T4FzftSDgm5hSxTt/g8YzzpRXa+jfW14GSl4AEJBBFgfyyCV1dnAycBOiePYpF/secHgQOa6+3XxYl1Y2vpaZ24xsYlwBVRZlDgwZfwOnGmJcczWlLD7LXgh+wIpTAPwroh6GuiFAK5L+VTGQ5A/gGUBnKJBR0IQSywDLKmN0+yV4qxIAaQwISkIAEJBAMAbcJC9kjl+NeNRyCUZEiR/GqOz/saLD8/W3BP6mF/gly/BhjN1wN0YIDh2fAP+Kc3N5gy8ITsiKVwP8JqIGlqyG0Aqlmn4BxNvAfoU1CgQ9ZwJ3XgTPXPcacVY2WGfKAGkACEpCABCQQEIGa+b6Tl3O91v0MSEGKGUZ+FawENz6zB4es3tvyaxQV7DOxyXfNJrjSjP1dC7cXzDWEA+WfvlrMBo5rn60vfkNYP4Wsx5F1DYRZILXYtyfDBcAhWgsrzJUccuwOPOJwZEe9rRjyaBpAAhKQgAQkEBCBaU1e+UqCSW7M02LuASlKccP4WZlzyI0N9nKhpnnTq6iHA1sXalyNE0qBhw1ObavPN8Utf/+sjwRCJ6AnsEJXMgX8dwF3m7CIulyO7wO7Sya+Aga9Drdnkxy9YrL9Lr4SylwCEpCABKImMH6B75U0bnVjq6jlpnz+ReBOyvhG+yT7Y6Fsqpv9awnjbIcP6OGFQqmGcpweh2XlcMSN9fZCKDNQ0BLQP2K6BsIukN8KuKyMy6BvN5URYc9H8Q9JYK1BOumcXshvLocUkU6WgAQkIAEJDFGg7/WvZN+9TvUQh9LpARdweCQBp7TV248LEeqEFt8nv+mRw6eBskKMqTFCK/BXN07umMJiTE9fhbaKClwL+OkaCLmAu9W08FWH84DdQp6Nwh+KgOHuPG3OOe31/Eg/nIeCqXMlIAEJSCAoAmObvHJ0kq8D1+g1wqBUpUhxOBuAK9vrOW6o9zETrvVdskkazfgasEWRItawIRBw6DW4iTJmaNOjEBRMIb6jgF4h1AUSeoFNOxI2OYwzLUwZ+noOMYEccL/DaVoPa4iSOl0CEpCABAIjUNPs+7lxg9YwCkxJihVIfl2i69iGb7SnLN/MGtRnr7levlMV+TWvjgd2GNQgOik6AsYzwFHtU2gdamM0OijKJKwCamCFtXKK+00CbqkWJuBcDuwsmtgL9JjR5lka26cVbg2J2KsKQAISkIAESiZQ3eQfSpRxnnvfkgn6RFnAWJqt4Jsr6uy5waa5aafu/Bqx+Z269fveYCGjcJ6R36H7ts4Kan9eZ/mdu/WRQKgF9A9aqMun4N8QOCDtW1TCT934Aq53/HVlsNacizd0ccnPZ+uHta4HCUhAAhIIt8Cse7382T9RD8zVa4ThruXmojfjDnOOXlZvd2/u2Lf685q07+1wFsb+uicejGC0znHnFUsws32qLY1WZsomrgJqYMW18hHMO9XsB2K0ANtFMD2lNFAB43nLcUxbPYv0uPRA8XS8BCQgAQkETSD/VI0naDbXboRBq00h43F4Cjizo96uHui445p8h2SS44BvARUDPV/HR04gv7TGb16q5IA766wzctkpoVgKqIEVy7JHM+n8+/47j+RWd/5n4w/+RDSzVFYDEXD4s8ER7fX2i4Gcp2MlIAEJSEACQROoafaPeoJzcQ4MWmyKp6ACOTcu3fsRjm1stHwDol+fTeteTYa+JTW0aHu/1CJ/UKcnmNgxxW6JfKZKMDYCamDFptTxSLR6gX/BEizTD+541HuzWRr5xVA7EsYJy6bwZ9C2wZs10wESkIAEJBBIgVlzvfy5Sr6VMy4xrWsUyBoVKiiHqxO9HN0209b2Z8zGRk/cuzv7WZYmjF36c46Oib6Awd1rduEzq/az/DpY+kggEgJqYEWijEriDYHGRi9b/UFuxfmcVCSwSSALnF3mzLmxwV6WigQkIAEJSCCsAhMWeH0u0feEzeiw5qC4+yHgXGcjOKbtEMvvHveOn3zz6r7d+E835mxcrHvfzR2vP4+NQMZzfLljmt0am4yVaCwE1MCKRZnjlWTNAv+cG7dgevc/XpV/+2zNWOcwK7MdN6wcZ91ykYAEJCABCYRRIJX2zwMXAv8VxvgVcz8FjFUJ54TNL+TuVrOYd+eynGLet+6VltDoJ3HUDzO4fcyjfL6xUU9fRb3WcctPDay4VTwG+Y5t9LJRH2CpwfgYpKsU+y/wODBz7aP8apV+mPdfTUdKQAISkEBgBGqv8W27yjiVBEei1wgDU5ciBPIEcEp7veU3J3rbz7Qmr3yljOnuXKJF24tQhfAOud6dL3c02K/Dm4Iil8BbC6iBpSsjkgKbthD+GbB1JBNUUoMSMON2chzRVs8D2plwUIQ6SQISkIAESiyQSvt3NzYrzgEqSxyKpi+SgEFvfifCMY/yg7dbyD3/6uDq3RlHjgXagbtIhQjvsNc/08nU1bMtfx3pI4FICaiBFalyKpk3BMbe5mWjnuRKg29IRQJvCBjkd/O5rqKSo1rr7EXJSEACEpCABMImUJP2r7tzDsauYYtd8Q5AwLmQLk5vn20b3uqsVJN/imRf8+rDAxhVh0ZdwHmRHDXt07lbmxdFvdjxzE8NrHjWPQZZu41bxMeSWTqAnWOQsFLsp0Dft5oJzlvzMGfoVcJ+oukwCUhAAhIIjEB1k38okeRch4MDE5QCKbiAwVW9GU5bOeNfv3Cb2OS75pJc7cYXcPT7XMH1wzugO5dXrePE1sNtXXizUOQSeHsB/YOnqyOyAqm5PtKrOMXgxMgmqcQGK7Ae5+j2Bps72AF0ngQkIAEJSKAUAvmnzLd8krMdjgaSpYhBcw6LwNIcnLS83v785tny97dWxaX5dT1di7YPSyFCNMljJPjaXg+z+u1ePQ1RLgpVAm8poAaWLozICvx9W2G4HuMjkU1UiQ1KwOApN77bPtV+OqgBdJIEJCABCUigRAKpFj8J5yRgixKFoGmLLeD8ETi2vcFWvjGVu1tNmhMxTgZGFjsEjR8uATfOyhoXrpxia8IVuaKVQP8F1MDqv5WODKFA7RIf1dXJ4RjnhjB8hVxcAXe4H+eIjga7s7hTaXQJSEACEpBA4QSqm/2rZpwF+oKucKqBG2k98L32qVz9xsYz1WnPr+16hsGOgYtWAZVUwOABYMaYR7lPT1+VtBSavMgCamAVGVjDl1ig0RM1u/GfOWOewSdLHI2mD5qA0YNzi1dyeEed5bes1kcCEpCABCQQeIGDW3zHXucy4CuBD1YBDlrA4KTe7bl45TjrTjX7BBL8AO9rWiYGPahOjKSAOydmk1ypp68iWV4l9SYBNbB0OURe4IC0b1HhzMD44cZvrXTNR77iA04w/w3nj62Xo9pm2toBn60TJCABCUhAAsMs0LdMwgeY4zAbKBvm6TXdMAk4nFNVyXkbetk9keUig30cyodpek0TFgHnjpxz5PLHuZ9Gy++4rY8EIiugX+YjW1ol9ncBdxvfwn8kjItwDpCMBN5C4FWcuXs9xsl67FrXhwQkIAEJhEEglfbvA0cCo8IQr2IchIDRRIZ5nuRIg4lA5SBG0SkRFjDIOhy7Ncxrqbf8l7L6SCDSAmpgRbq8Su4NgbFNXjk6QQPGHGCEZCTwTwL5Taifxbmgvd7yO/voIwEJSEACEgi0wISFflAuxw+0DlagyzS04Iz7cLqBPdWoHBplZM92OhI5Tlo2nT+AeWTzVGIS2CSgBpYuhdgI1LT47u6cAUyKTdJKtP8ChuM84nB6R70t7v+JOlICEpCABCQw/AJfWuLbjuiiBRg3/LNrxmESeKMhod/Zhgk8ZNOsN+PYpzdwzerZ1huy2BWuBAYloH8MB8Wmk8IokF8vYvUHmAxcDGwfxhwUc5EFDDe4252T26dy2xu7/hR5Vg0vAQlIQAISGJRATdoXOnwdSA5qAJ0kAQmEVSD/9sAinNPa6+2xsCahuCUwUAE1sAYqpuNDLVBzne9EllM9R34bYt3shbqaxQneIL/45dIknP6xR/mT1sQqjrNGlYAEJCCBoQtUp/1KYLppbaShY2oECYRL4AlLcHLbwyzWwu3hKpyiHZqAGlhD89PZYRNwt4nXMSGb4RytGRG24g1fvAb5x7DnZ5Kcu2IST+hJrOGz10wSkIAEJNB/gVTaZwGnATv3/ywdKQEJhFnAodegyco4rW2SPR/mXBS7BAYqoAbWQMV0fOgFxi/ybRJZTgUOA6pCn5ASKIqAQ5fBRWUw58Z6e6Eok2hQCUhAAhKQwBAENq3vmV+38RNDGEanSkACIRJweAA4uaPe2kMUtkKVQEEE1MAqCKMGCZtAKu37YpyL86mwxa54h1VgjRnfT2S4eul0e21YZ9ZkEpCABCQggc0IuLvVtLDC4ACHhMAkIIFoC5ixzp1rrJfT2mba2mhnq+wk8K8CamDpqoilQO0Sr+rs5EQzjgC2iSWCku6vwAs4Z1RWkW6ts3X9PUnHSUACEpCABIZDIJX2nwATgLLhmE9zSEACJRPIbzb025xzVEeD3VmyKDSxBEoooAZWCfE1dWkFJjT5np7khw77om8tS1uM4M/+RM45bX2O61dNt67gh6sIJSABCUggLgKptOd3V85vTjMqLjkrTwnEUcDgZYzLel/l3JXfse44GihnCaiBpWsgtgJjG71sy904fONaRydg7BBbCCXeX4G/JJwTR1TR1lpn2f6epOMkIAEJSEACxRRINfuE/C+1Gzcf2aWY82hsCUigpAL5e8/bPcusjun2UEkj0eQSKKGAGlglxNfUpReobvadzbgCOBAYUfqIFEHABe4Djm2vt18EPE6FJwEJSEACMRGoXeLv6uri58BHY5Ky0pRAHAWec+fUveu5ttEsF0cA5SyBvIAaWLoO4i3gbtUtVBtcDrwv3hjKvh8CjnF3wvnusnq7ux/H6xAJSEACEpBAcQXcLZXmdjM+rYXci0ut0SVQIoH864JLeyr51s119kqJYtC0EgiEgBpYgSiDgiilwAFp36LCOQdjJjCylLFo7uALOHgC7szC7OX19ofgR6wIJSABCUgg6gKpFr8Z5wtAMuq5Kj8JxE3AjGdzOeo6GuzXcctd+UrgnwXUwNI1IQEg1eQfIckKjF037jinvxe6KjYnkMVYlckye+U0e2RzB+vPJSABCUhAAsUUqE77lQbTgKpizqOxJSCBYRfoJseFlSM5s7XOeoZ9dk0ogYAJ6Bf1gBVE4ZRGoHaJJ7u7meVOfiefytJEoVlDJWDkbyJu7dnAzJtn27Ohil3BSkACEpBApASqm/1rluBynO0jlZiSkYAEHrNePtM2054RhQQkoDWwdA1I4O8CNfN9tJdzK/AJsUigXwJOtxnLs+s4dPm37NV+naODJCABCUhAAgUWSC327clyL877Czy0hpOABEooYFDXNpWfYOYlDENTSyAwAnoCKzClUCBBEJjQ4vvknDuCEItiCI1AF9BaWcns1jrrDE3UClQCEpCABCIk4JZqIb8u4x5aCiFCZVUqsRZw+PlOnYybN9t6Yw2h5CXwJgE1sHQ5SOCfBFJpnwvMEowEBiDQ6dBcVcn31MQagJoOlYAEJCCBggmk0n4PsJd2GS8YqQaSQCkFsp5kj47J9lApg9DcEgiagBpYQauI4im5QM3V/p5cBX822KbkwSiAMAmsB+ZVdnJG62x7PUyBK1YJSEACEgi/QHXaf2awn3YiDH8tlUG8BQxyGGe2TbUz4i2h7CXwrwJqYOmqkMBbCNQs9Bme40fACAFJYAACaxyuqOrhwtZD7ZUBnKdDJSABCUhAAkMSSDX72RhHAxVDGkgnS0ACpRUw/pLNMHbFdHuutIFodgkET0ANrODVRBEFQGBik2+dTXA9xgEBCEchhEjAnNdJcKknubx9kr0UotAVqgQkIAEJhFigpsW/6HADzqgQp6HQJRB3gTUG09c8StuqRsvEHUP5S+CfBdTA0jUhgbcQaHRP3JtmHzN+DOwsJAkMUOBVh4utjKvUxBqgnA6XgAQkIIFBCfR9+ZbkEWDbQQ2gkyQggVILOMa1ZTmOv7HBXi51MJpfAkEUUAMriFVRTIEQqJnvoxnBd3POqQblgQhKQYRHwHjJnIuTzjzdhISnbIpUAhKQQJgFUml/Sl+8hbmCij3WAs6fHabt/Rj3NjZaLtYWSl4CbyOgBpYuDQm8nYC7pa7jw2S4CthXUBIYhMBLGJf0dHPVzVoTaxB8OkUCEpCABAYikEp7fsey3Qdyjo6VgAQCIbDWjJMqKljQWmfrAhGRgpBAAAXUwApgURRScATGNnnlqAQTLMHFODsFJzJFEiKBl924rGoDl2p3whBVTaFKQAISCKFAKu2rgTEhDF0hSyDWAmb8JJfhpI7pPAzmscZQ8hJ4BwE1sHR5SGAzAjXzfafcCE4053BAf2d0xQxG4DWDH3XB2bfU2/rBDKBzJCABCUhAApsTSLX4YpxDNnec/lwCEgiUwF8sx3EVI7mptc56AhWZgpFAwAT0y3jACqJwgidQu8STnZ182ozzgU8HL0JFFAoBZ60nuLaqguN0cxKKiilICUhAAqETSDX7tzHmhC5wBSyB+Ap0Y1xEkku08U98LwJl3n8BNbD6b6UjYyxQu8RHdXVxKHAasE2MKZT60ATWYyzc7r18d8F+1jW0oXS2BCQgAQlI4B8FJi7yvbJZ7pWLBCQQEgHnFjNObnuU+9DC7SEpmsIspYAaWKXU19whEnCraeGDDmfq0fwQlS2YoXYC19PJ4e2zbUMwQ1RUEpCABCQQRoHai72qa3vWAskwxq+YJRAzgSfdOHP7DAsXTNcXmzGrvdIdpIAaWIOE02nxExjb6GWjd+PLDmeZ8fH4CSjjAgrkG1dLc+s4Yvm37NUCjquhJCABCUgg5gKpFl+Hs0XMGZS+BIIt4OQwmnqMU2+eas8GO1hFJ4HgCKiBFZxaKJIQCByQ9i0q4DjgKGB0CEJWiMEV6HS4eYTxrRt04xLcKikyCUhAAiETqE77ywbbhixshSuBuAn8Opfh+OXTuRPTroNxK77yHbyAGliDt9OZMRVIpX03dy41oyamBEq7cAI9Brflkny7Y7I9VLhhNZIEJCABCcRVIJX2p4Cd45q/8pZACASeA85buwuXr9rPMiGIVyFKIDACamAFphQKJEwCqUU+wXL8wJ1/D1PcijWQAjngV+Z8r62B34G+hQtklRSUBCQggZAIpNL+p41rLe4RknAVpgRiJWCQv+9bmhjNzKUH2WuxSl7JSqAAAmpgFQBRQ8RP4MA5XlG2NedC386Eo+InoIwLLJBfB+HXOKet3YU79G1cgXU1nAQkIIEYCaRafLE2nIlRwZVqmAQcuJ8Eh7dPsbvCFLhilUBQBNTACkolFEfoBPpeJYR5Bvtpt5/QlS+IAbvBne58f22O21ZpN5og1kgxSUACEgi8wPi0H52ACwMfqAKUQPwEXna4aO9HOa+x0fJPYukjAQkMUEANrAGC6XAJvFmgutm/asb5wK6A/j7p8hiqgLtzX8I4rwtW3FJv64c6oM6XgAQkIIF4CdQ0+Rc9yS3xylrZSiDYAga9+c17cknql0/WDtTBrpaiC7KAfuEOcnUUW+AF8q8Slm/FhW7MAEYGPmAFGBaBB825oDfJT1ZOsTVhCVpxSkACEpBA6QUOvtrf21vBk6WPRBFIQAKbBHzja71/SWSZuWyG/UYqEpDA4AXUwBq8nc6UQJ/AxOt811wvaYd99CqhLopCCRg86QkuyBkL9U1doVQ1jgQkIIHoC9TWerIrRbfuSaJfa2UYGoEN7pxVVcUFrXWWDU3UClQCARRQAyuARVFI4RNItfhEnB8BO4QvekUcYIGXzJlDOfPaDuEFTDsUBrhWCk0CEpBAYASq095pUBmYgBSIBOIrkF+4vS2XZLq+kIzvRaDMCyegBlbhLDVSjAVql/iI7h4aPccJWgsrxhdCcVLPr4N1NTCnvd4eK84UGlUCEpCABKIkUJ321w22jFJOykUCIRV42Jy6tga7P6TxK2wJBEpADaxAlUPBhFmgZrG/J5eheeNOcl8Kcx6KPZACPQ6tGBd3TLX7AhmhgpKABCQggcAIpNL+IrB9YAJSIBKIoUDfwu1ZZrX/lTTadTCGV4BSLoaAGljFUNWYsRWYkPZPZuFGgx1ji6DEiyWQxViVNC5aOsVWFmsSjSsBCUhAAuEXqE77M7oXCX8dlUG4BQyuqqjke6111hnuTBS9BIIjoAZWcGqhSCIgULvEk90bmOUJrtCrhBEoaPBScHN+78bl7fU2P3jhKSIJSEACEgiCQHWLP27O+4MQi2KQQCwFjLsMprZNtYdjmb+SlkCRBNTAKhKsho2vwJeu8W3LR3CBwYz4KijzYgkY5Bz+anD1mF24oHE/yxRrLo0rAQlIQALhFEilffXGhaPHhDN6RS2B0AusJcGkyhGs1K6Doa+lEgiYgBpYASuIwomAgLvVpNnTjeuAf49ARkoheAKO8QKwuKeb7998qL0SvBAVkQQkIAEJlEqgutmXmVFTqvk1rwTiLGDGab3GD1dOsX6e6BsAACAASURBVDVxdlDuEiiGgBpYxVDVmLEXyO9K2NXNRHMWOpTHHkQAhRcwHGcdTodlOKNtpv2l8JNoRAlIQAISCKNATbNf5sYRYYxdMUsg5ALtyRxHLW3gUcw85LkofAkETkANrMCVRAFFReCgZt8uk+BYnOOjkpPyCKRAD87tG++QGjsa7NeBjFBBSUACEpDAsAqkWvx4nHOHdVJNJgEJPOc5GqpGcqteHdTFIIHiCKiBVRxXjSqBPoGD0v6fGfgR8BmRSKCIAvmnsR4kx0nt021pEefR0BKQgAQkEAKB8WmfmYBrQhCqQpRANAT+9mT897rh6lvqbX00klIWEgiegBpYwauJIoqQwNhGLxv9Qapx5gLvjlBqSiWIAsbzBmfQw8K2GazTo+tBLJJikoAEJFB8gXHNPiFp6AuN4lNrBgnkBbLAgmySs1ZMtr+KRAISKJ6AGljFs9XIEugT2H+ub1VVyWEYpwEjxSKBIgt0OlyZMK6qqOAxPcJeZG0NLwEJSCCAAuNbfJ+Ec0cAQ1NIEoiagDv81uD49qn8Sl8eRq28yidoAmpgBa0iiieSAjUtvrvDKTiHACMimaSSCpJA1p02S3L+M+tZvXq29QYpOMUiAQlIQALFFaiZ7x/2ch4s7iwaXQISMHg2B6dXVdLcWmc9EpGABIoroAZWcX01ugT6BNzdDlrE5zM5zk7AJxwSopFAkQXyO9/cm1/cvaqS21rrrLPI82l4CUhAAhIIiMBBaX93Bp4PSDgKQwJRFViD8yPKubB9kr0U1SSVlwSCJKAGVpCqoVgiLXDgCq8oe5FpwMkYu0Q6WSUXGAGHpwzOcmd5R4M9HZjAFIgEJCABCRRNYPwi3yaRJf8Ltb4wK5qyBo65QLcZK8w4fdkUeyDmFkpfAsMmoAbWsFFrIgn07Ur47qxxjDuHAtvIRALDJNBlMN8TNLdPsXuGaU5NIwEJSEACJRLY1MB6EUiWKARNK4EoC+TXvfpDwjhlzBQ6Gs1yUU5WuUkgSAJqYAWpGoolFgLjFvqeyRw/AA7QelixKHlQksxh3EaGy3fsYfk8rYsVlLooDglIQAIFF8g3sCzbtzNtecEH14ASkMBzGBdVVnCFlmjQxSCB4RVQA2t4vTWbBKhd4snOLsYZnIfxERz9PdR1MVwC+XWx/mLGVWWw5Iap9uxwTax5JCABCUhg+AQmNvnW2STPARXDN6tmkkAsBNZhLN64WnvjzbqPikXBlWSwBPSLc7DqoWhiIlC7xKu6ujgMOAF4d0zSVprBEHCDF934SS7Ltcun2epghKUoJCABCUigUAL5BlYmybMGlYUaU+NIQAJkgLuySb69YrL9Th4SkMDwC6iBNfzmmlECfQIHLvF3lXdxOkaDO6PEIoFhFljncAfO3Ge76FitVwqHmV/TSUACEiiewKYnsPIbd4ws3iwaWQLxEshvjJMwDquo4KbWOsvGK3tlK4FgCKiBFYw6KIqYCtS0+O7uXAN8RgutxvQiKG3aPQYPu7MokyS9coo9VdpwNLsEJCABCRRCoK+BleBpTA2sQnhqDAlgrHPnhOz2XLNynHVLRAISKI2AGlilcdesEugTaGz0xG8/wCeSsBTYQSwSKIFAfl2sl3F+5gku7Jhq95UgBk0pAQlIQAIFFFADq4CYGkoCkDPjyl7j5JVTbI1AJCCB0gmogVU6e80sgT6B/KLuXd18BViEUyYWCZRIoAv4E86Zmde5aeV39O1iieqgaSUgAQkMWUANrCETagAJ/F3A4e5clokrplt+YwR9JCCBEgqogVVCfE0tgTcEZs318qerOD0BJ0tFAiUUyAGvuPMjK2dO+yR7qYSxaGoJSEACEhikwKY1sPKvhW8xyCF0mgQk8DeB9VlnzIoGHgLLP7WujwQkUEIBNbBKiK+pJfBmgWlNXvlyGStxxkpGAiUWyBr8MlHOzKWH8FfdsJW4GppeAhKQwAAF1MAaIJgOl8DbCGSNA1dMtZsEJAEJBENADaxg1EFRSKBP4MCF/t5kjt8a7CgSCQRA4GU3jrUNXN8+2zYEIB6FIAEJSEAC/RBQA6sfSDpEAu8skHXnrGe7+IF2atalIoHgCKiBFZxaKBIJ9C3qfs9ufD5h/BTYUiQSKLmAk8O40cr5zg5reHHebOsteUwKQAISkIAE3lFgUwPradAuhLpUJDAIgfySCu2ZSr6xss5eHMT5OkUCEiiSgBpYRYLVsBIYrEBqro/0kRxmORoxRg92HJ0ngUIKuPGoJfheppvfrJyhm7lC2mosCUhAAoUW2NTAegaoKvTYGk8CURdweCDhTGl7jD/QuPGOXB8JSCAwAmpgBaYUCkQC/ydQs9jfQ4ZGh2lApWwkEBCBdQbNluHKEaN4uLXOegISl8KQgAQkIIE3CWxqYD2rewhdFhIYmIDDX805orKKW3SfMzA7HS2B4RBQA2s4lDWHBAYq4G4TFrFHzrkQ5wAgOdAhdLwEiiTQk99O2nJcninjNyunWH6XK30kIAEJSCBAApsaWM8BFQEKS6FIIOgCz5lxZq+xaOUUWxP0YBWfBOIooAZWHKuunEMhMPY2Lxv1FJ8x5wJg71AErSDjIuDuPG/GEhIsrBzBH1rrrDMuyStPCUhAAkEXGL/It0lmed6hPOixKj4JBETgNTOupoxL2w6x/Ou3+khAAgEUUAMrgEVRSBJ4Q6BvPawqJibgdId/k4wEAibQ6XBXAq6zDDctm2FPBiw+hSMBCUgglgL5BlYiS37xaT3BHcsrQEkPUKAb44aE8f1lk/kzZj7A83W4BCQwTAJqYA0TtKaRwGAFDmr27bIww+G7GDsNdhydJ4EiCeRv8p4xaM8/jVXxAve1fk9PYxXJWsNKQAIS6JdA7RLftqubl3B0r98vMR0UY4H8fcyvEsapIyr4TWudZWNsodQlEHgB/VALfIkUoATg4EX+/kyOY9xpAO1MqGsigAJGJ85qd25MlLOobZI9H8AoFZIEJCCBWAgc/FN/b+969FRsLKqtJIcikN9x0IwzMtvRsXKcdQ9lLJ0rAQkUX0ANrOIbawYJDF2g0RMTduc/slm+bwnG4ZQNfVCNIIGCC7jBc26swmipHMGt2sGn4MYaUAISkMBmBWqa/aNu/H6zB+oACcRb4AkSXGijWdA2wdbGm0LZSyAcAmpghaNOilIC1C7xZFcXnwHOB/5bJBIIsECPwcPurOjp5ZybD7VXAhyrQpOABCQQOYFU2vcFVkUuMSUkgcIJvOpwbaKbC9q+oafGC8eqkSRQXAE1sIrrq9ElUFCBA+d4RdmWTLAEZ2lR94LSarDiCKzBeSAHVy1vsIXFmUKjSkACEpDAPwvUpL3WYYlkJCCBtxTIvyq4vDfL0TdN56+gRdt1nUggLAJqYIWlUopTApsENu1MeGgCTnDYUTASCLKAQc6NF3FuNeP0tqn2cJDjVWwSkIAEoiBQ0+JHunNpFHJRDhIosEDO4B5LMEM7DhZYVsNJYBgE1MAaBmRNIYFCC4y9wkeNHsXpGLO1qHuhdTVekQR6gCfyT2M918mc1bOtt0jzaFgJSEACsReoXujnWY7jYg8hAAn8k4A5j5clqfvow6xubLScgCQggXAJqIEVrnopWgn8XaBmvo/2MlrMGOdQLhoJBF7AcHL0mLHakpy5bLLdHPiYFaAEJCCBEArUpH2hw+QQhq6QJVBMgVdxJrfXcxOm1waLCa2xJVAsATWwiiWrcSUwDAK11/i2neV9r2Z9DNDf52Ew1xSFETDjdXeuLxvBRWUJHmmts2xhRtYoEpCABCSQavHbcMZKQgIS+JuAQ1fC+F7bVPuRTCQggfAK6Bfe8NZOkUugT+DAH/sHy3r5Bc77RCKBkAm4wUMOF1kZy9bsyMur9rNMyHJQuBKQgAQCJ5Bq8QdxPhy4wBSQBEojkH/6+4cVFZyoL8xKUwDNKoFCCaiBVShJjSOBEgpMuM73yfXyU2CHEoahqSUwKAGDXjduI8elmSz3jhrFK7rBHBSlTpKABCTQJ5BK+1PAzuKQgATImHPDmhwNq6ZblzwkIIFwC6iBFe76KXoJ/F0g1eKHAJfgvEcsEgipwKsOP0nkWJgt54Hlk3lNW1uHtJIKWwISKKlAqtlfwHhXSYPQ5BIovYADv8xkqFs5w14sfTiKQAISGKqAGlhDFdT5EgiIwKy5Xv5MFUcZHA9sG5CwFIYEBiaQX+jd+as7CyzJzZlXuH/ld6x7YIPoaAlIQALxFkil/VVg63grKHsJcC85prU38Cct2q6rQQLREFADKxp1VBYS6BOY2ORb55Kc4s4sjNFikUCIBXLm/C8J5uXg7o4p3K+bzxBXU6FLQALDKpBK+3pg5LBOqskkECyB3+eco9a/j9u1vmawCqNoJDAUATWwhqKncyUQNAF3q06zU8I43WEqUBm0EBWPBAYikF8fK//4v8MistzVPt0eHMj5OlYCEpBAHAVq0t7jUB7H3JWzBIA/Ypy+NsNyrXul60EC0RJQAyta9VQ2EqCx0RP37cKHcuU0GtQCSbFIIOQC+TUsXnH4hcGKZI7bl06zR0Kek8KXgAQkUBSBg5p9u0yCF3F0n18UYQ0aZIGNX+A+gnFuYkuub5tga4Mcq2KTgAQGLqAfbAM30xkSCLxA7RJPbtjAxxNGIwnG6yY28CVTgP0TyALPOdyeSLC8zLn1hqn2bP9O1VESkIAE4iEwboF/Lpngl/HIVllK4B8Enjbjh56kqX2SvSQbCUggegJqYEWvpspIAn0CtUt8ROd69iHJaQb7iUUCURHIv1bo8CRwB8ayym5uaz3UXolKfspDAhKQwFAEqpv9SDMuHcoYOlcCYRMweNmNuZ7jyo4GntEuxmGroOKVQP8E1MDqn5OOkkAoBaY1eeVLSb5ocArw36FMQkFL4O0FugyeAO7KGAu3qODXrXXWKTAJSEACcRZItfi1G3dznR5nA+UeO4ENZjS7c0H7VB7Xpi+xq78SjpGAGlgxKrZSjafAAWnfYoQx0ZyTgH+Pp4KyjrSA0enOkwm4y4xr3rOBu+bNtvzi7/pIQAISiJ1AKu2rgTGxS1wJx1Kg76ls58beBKd96hEeamy0XCwhlLQEYiKgBlZMCq004y1QM99H58poMOMY4P3x1lD2ERboAp7PP5GVMOYsm2q/iXCuSk0CEpDAWwqkmv1ZjB3EI4EYCOQ3efm5OceMqecPjabmVQxqrhRjLqAGVswvAKUfH4F8E8vLOQo4AnhXfDJXpjEU6AFeN+eXiTLOXjrZfhdDA6UsAQnETKBmvu9EOd8Ejncoj1n6SjeeAr8lwRGVI7ivtc7yG73oIwEJRFxADayIF1jpSeDNAvnXCSvgLGAmsKV0JBBxgaxBZw5uTjhntjXY/0Y8X6UnAQnEUCC12D9iGY50+AqwDVAWQwalHDMBhz9TxqyO/8dv0GuDMau+0o2zgBpYca6+co+lQKrdR/IKl2N8DRgZSwQlHUeB9Rg3eY5Ln+3i7tXPktUNbxwvA+UsgQgIuNvYVSS3fII9MY5wOBjYOgKZKQUJ9E/AedyTzO6YYrf07wQdJQEJREVADayoVFJ5SGAAAgcu9C2TWeYbpDAqBnCqDpVA2AXWAbfh/CiZ484ne1i/Wgu+h72mil8CsRAY2+hlZTuyxcgKPkaCWQ7jNj1xFYv8laQEMNycp934bvtU+6lEJCCB+AmogRW/mitjCfQJHNTs22WMhcD+et1AF0UMBfJPZN2RMK5Kwj2d2/LiynHWHUMHpSwBCQRcoHaJj8h2s12PsaflmGXO/m5sFfCwFZ4EiiHwHFlObJ9GM2b5Bdz1kYAEYiagBlbMCq50JfBmgZrrfKdcL4sNPgfo3wNdHnEUyO9ceLcluMYT3J/J8eTKyazVjXEcLwXlLIFgCaTm+khG8z6y/Ed+7Up3PmewRbCiVDQSGDaBF0nQuNfDXNWoNa+GDV0TSSBoAvqFNWgVUTwSGGaBiU2+azbBQhLsg6uJNcz8mi4oAkYG5wGM6xPwm94MD62Ybs8FJTzFIQEJxEcgtdi3T2T4YBb+y4wGd/Yy7SoYnwtAmb6VwIsYF1VWcKF2G9QFIoF4C6iBFe/6K3sJ9Al8ZbF/pDfDPIfPikQCcRZw8I2/MD5m0J5zbs05f1lRz0N6IivOV4Vyl8AwCLhbqoVdzfgwzuccJjjsYXo6ehjwNUXABV5247LsdpyrV/0DXimFJ4FhEFADaxiQNYUEAi+Qv3FewN6W5CI1sQJfLQU4XALG8zir3Lg54TxQUckfW+usc7im1zwSkED0BcY2eeXWI/gIsGcmy/4GY4Fd9Fp/9GuvDPsh4LzixtyqSs5rrbPX+3GGDpGABCIuoAZWxAus9CTQX4H87kajP8D/bDy+kb/dQOsjAQnkn8hy1mDc43A7zn1Wzj1tk+x54UhAAhIYrEB+I5XeJB8nyycswefM+W+HbdW4GqyozougwKs488qMi2+s50XQou0RrLFSksCABdTAGjCZTpBAdAXyOx11buCzluAUNbGiW2dlNkgBoxPnkY1b1/8WuCeZ4VdP9fLQ6tnWO8gRdZoEJBAjgdolnuzuZjdyfC5n7G3wCeDDwOgYMShVCfRH4DV3rgZ+2FHPM3qNvz9kOkYC8RBQAysedVaWEui3QP51hq2S7JuDE4F9+32iDpRAfATyC76/APyh78msBLf15LjrlnpbHx8CZSoBCfRX4MAVXlH+Kp8kx+fd+5pW/wnsAIzo7xg6TgIxElhjcHUmyWUrJvGEmlcxqrxSlUA/BNTA6geSDpFA3ARq/397dwJnaVkd+P933ntvLU3TK410g+yCIKgjKG5oIyqCAVymO4KhEeOAmRmdxI+TyceZf1KZZGYySSYTnSQTGBE3ULsyoiAwgobWGKMCgooLO7I0NDQNvdZ273v+vNVtxAXppZa7/N7Ppz5d0vc+zznf81hddep9n2d1Do6MclJsb2K9stfyN18FdkogyIBNmfwY+E6U/FN/cvmwpxfuFJ8vUqDbBU75cC5q9PHWInhlJscChxDM98Tfbq+8+e2BwOYn94C7uNbggy+8jfuGhqLcg7F8qwIKdKGADawuLKopKTAVAqdfmHOyj5OjNtnEetlUjOkYCnSxwHjCY5H8OIObM7jqC7/B1RHu2dHFNTc1BX5BIDPjzEt5ebZ40+S/ncHBwBLvtnKxKPCMAltJPkbw58fdzY9tXj2jly9QoCcFbGD1ZNlNWoGdE1jxFzk4upjXE5N7Yh2/c+/yVQr0vMA24DGSu4FrG3U+/dm3R/W5lwIKdKnAWy7Ng5olbyI5NeE5k02rYK53W3VpwU1rqgVGAj7ZrPFfXnIH99u8mmpex1OgewRsYHVPLc1EgWkRqPbuqD/GqeTk6YQvmJZJHFSBbhRISoKqmfUo1cbvwWfLguuuens83o3pmpMCvSbw+o/nXgPByVnyNmJyb6t9CeaQ1HvNwnwV2G2BZIxgddHkP37+PB5wz6vdlvSNCvSEgA2sniizSSqwZwJD12f9hnt5c1Hjj3acmLRnA/puBXpJIEi2N7PGs2RtkVwXBR99YIRve4JhLy0Ec+0GgeokwZExjingvEzeABw4+XhgUHi3VTdU2BxmUiBhguTzgyXvGT6PdeBj9zPp71wKdKKADaxOrJoxKzALAtW+Hqd/nDcF/Hdi8vEILwUU2H2BkuR2Cj7LKB/e/CD3r4ESN6zdfVHfqcA0CAwNZfH9o4mxJvvQ5NyEtwHPB2rTMJ1DKtBLAuPA1fXkXZefG4/1UuLmqoACuy9gA2v37XynAr0nUDWxPsmZlPwpweGAX0N6bxWY8dQLVN/Ef4tk9cAgw1vG2cYGxq55b4xN/VSOqIACzySwYnX2bRlnoFEwSIu3ZfIvn/xB+yVuxP5Mcv69AjstMBrJNf0TvGv4XbFhp9/lCxVQoOcF/OGz55eAAArsqkDG6R/jjdUpMcARNrF21c/XK/ArBUaBbwCfrydXbyvYPK+fzcMr2Oq+IK4cBaZJoPrlzBcYjM3s3Rhj3niD11FtyA6vBAanaVaHVaBXBUYSvlBvcf7nzosnehXBvBVQYPcEbGDtnpvvUqDHBTLO+ASnZPIXwFE9jmH6CkyXwJbqzqyALwZ8pVnj0cYcNjQm2Dy8MlrTNanjKtALAtWjgV9byt79c1lcJIuz5GURvIHkpcACfznTC6vAHGdBYITgcyP9/NaXVsbGWZjfKRVQoMMFbGB1eAENX4HZFPi1T+bJJP8zkmNnMw7nVqDLBapN4KuTC2+Ogn8AbqRkbb3g4Q0H8Oiak6LZ5fmbngJTIlBtwD62kX3KAfbLZL8avIjgpExeBCyyaTUlzA6iwNMJbAlY3T/AvxteGdUvaLwUUECBXRawgbXLZL5BAQWeKnDGR/NVWUw+TlgdIe6lgALTLBDBxkzuePJukW8QfLNMHqDgwWVbuPeiC2Jimqd3eAU6SmD59Vmf9wAHl00OiDpLA45PeDnJkcDCjkrGYBXoXIEnAi7dNMDvrbF51blVNHIF2kDABlYbFMEQFOh0gTM/kSdm8l8STuz0XIxfgQ4TGAHuJfleFHw9gvuqu7PKOnddeXas77BcDFeBKRE4/bLcJ5NDixYHEDw7S06IghdkcjAwZ0omcRAFFNhZgfUkHy3r/Ner3h7V3cReCiigwG4L2MDabTrfqIACPxGoHssYGZncP+T3CV5Lejqhq0OBmRaIpMzgAYK7Cb5bwO2Z3F9L7qgPcO/wyqiaXV4KdJ3AitU5uG2UgwmeUys5MKsDRoJjEw4P2N9HA7uu5CbUKQLB2iy5uNXif13zTtZDZKeEbpwKKNCeAjaw2rMuRqVAxwkcd2E2lg5wfBH8h4TTgaLjkjBgBbpHoGojbw54ALizTO4ognvLFrcXLW7t35t1bgTfPcXutUyqxwLn38PSZp2ji+SwKDi4LDkygsNJnv3kKblzbVr12qow3zYUuLdILiyCj1y+ikdtXrVhhQxJgQ4UsIHVgUUzZAXaVaBqYu3Xz/Oj4P0FvDWh0a6xGpcCvSQQMJHwOMmDBPdE1cxKfly0uL0Jt1z9DtYR/ma8l9ZEp+VaPRZIk+cnHBNwCHBIJgdFsHTHXlZ9nZaT8SrQrQIBt5fw14NNPjV8Huv996VbK21eCsy8gA2smTd3RgW6WmDyN+P3clRZ8DsEZwEDXZ2wySnQgQIRjGSyMal+K85a4L6iulOr4JYo+Lb7Z3VgUbss5DM+lcuqhhXB88qSwyI4OGBpdXogsMB/W7qs4KbTTQK3ZvLBwUE+O7wyNnRTYuaigAKzL2ADa/ZrYAQKdJ3A5J5YExxKi98JWAXs1XVJmpAC3SUwBmwCHgt4NKumVnAXcGvADZvu4t41Q9HsrpTNpl0Ezr8wGw/P4aBs8eIsODqSw4ADo6DajH1hwrzwlyHtUi7jUOBpBTK4heTPBke4aviC2CiVAgooMNUCNrCmWtTxFFBgUmBoKIsbD+GACH47k3dGMF8aBRToDIGEiSLYliVbCTYSk3dq3VWddlgE3xxJvnPtqtjaGdkYZbsJnHFx7l0UHNcKjqfGkVXDKmE/kvkJe0UwSNDwQJB2q5zxKPArBW4i+OOx5Dr/fXClKKDAdAnYwJouWcdVQAHIjBWXsM9onfdlcn4Ei2RRQIGOFCiB8QjGMhkh2BLJ/cA9ZXAzJd9aNsrNF10QEx2ZnUFPm8CK1dk3Psq/aMEJwFGRPIfgEIK9SAaBau+qar/E2rQF4cAKKDDdAt+OFr83sZmvXvPeqO7o9VJAAQWmRcAG1rSwOqgCCjxV4NQP5bzGQn4nk38L7KOOAgp0gUBSRtBKqB4trD6qH1p+DPwggptocWORfP9z58UTXZCtKeyEwCkfzkWN2uRBHidUe1cFk3dWHQ6Td1TVM6nH9hNqbVbthKcvUaDtBYIEbi6Sf903wI2ebtv2FTNABTpewAZWx5fQBBToDIHqhML9B3lvwu/ZxOqMmhmlAlMgME7yMAV3UHIbybdbybdyM7f7W/op0J2lIaq7qkbGOIqSFxO8CHhu1ayKZGlWj/55KaBALwiUmdzcgLMvPzdu74WEzVEBBWZfwAbW7NfACBToGYFqX6wbDuecWskfJ+wP+DWoZ6pvogo8RSDZRnA/wX2Z3F/ADwi+n8lttRaPjzUo526kZAmtLQ9TjhxLa81XKBmK6lFGrykUqL4ur3k1xeD3qNX7qQ00KbbMp+ifoCj6WNQsOYKSozM4FiZPAjwog/3JyUf/vBRQoDcFql9O/MN4wTlfPCce6k0Cs1ZAgdkQ8IfH2VB3TgV6WSAz3vhJTovkgxEc6ia9vbwYzF2BXxCoGlSPR7CWZG2Z3AfcTY17ypJ7+/pYn8l4QoukVZugOVpjor6V5sDCyccYWz7C8lPT6kTYLQ9Tby2gPn+A+ujjNGJvagS1gFqM0Zf97NOa4LACDs3kUIIDgKUky9h++IaP+/l/VAUUeKrA1oAr+wd49/BKTxp0aSigwMwK2MCaWW9nU0CBHQKnfTxPqMGHSY4mJvdE8VJAAQWeSWAE2ACsJ1gPPELJfQEPZfIIBesiebxqZEWN5kSLZtRpRpNm0aTZvzcT2yZo1kYnP28ufJzmRefTJKLax6XNr4zl11M7+F7qG0oarQHq5Rj1xiCN5lYaMUgtm9QjqNUL6q2kEcmCLNivKFlKsCxz8s7XJQSLM1kcsBDYq80TNzwFFGgXgerrbvLJgfV8YPh9UX099lJAAQVmVMAG1oxyO5kCCjxV4IxP5OFlclHAy4F+dRRQQIE9FUiYCNhEsLH6M6vPk43AE5lsLGrb/4xgY9liU1FQPaw4FsX2O7jKoMwWZRGUZZOSxvb/VmtSlgVlX9Kqdquv/qxirT7v76fFKDSLJx9z/CVXWSf6CqI1QdRKivHYfldT1WwqSopWUhR1iqd+Xt35FM3J103eMUVBPWFeVHdFlSwsg/lVgypgUW5vRM3LFLu8/wAAIABJREFUYC7J3gHzYPLuKR/z29MF5fsVUOAnAtUvC/5607P5izUnRfX10ksBBRSYcQEbWDNO7oQKKPBUgTM/ks9u1flTklMnfzDzUkABBWZSoDpFq2QcGCEYJZnImGyCVf9t8iNhPLY3xiYIxjInT96q/o4Myh1/V21oPPFLQw/qkw2pJCY3OU/6c/tpfH0BjYTG5J/VXVPQoKCveg0wkEl/xOTn1Yfft83k2nAuBRT4icAPyuR/lBu51AM4XBQKKDCbAn4jNJv6zq2AApM//p1xMUuzwb8HzgKeJYsCCiiggAIKKKDArAtUzfobCP50c5Or1pwXo7MekQEooEBPC9jA6unym7wCbSKQGWd8in2Z4HyCcxMOa5PIDEMBBRRQQAEFFOg9gZi8y3RNwJ9PLOar15wW1RPTXgoooMCsCtjAmlV+J1dAgZ8KZJx+GYtp8VaSC4B/oY4CCiiggAIKKKDAjAtsBq7MGh8cbHDL8MqYfGTaSwEFFJhtARtYs10B51dAgZ8ROPWTOa8GJ0fJvwNOZPs+MV4KKKCAAgoooIAC0y+wLpNPt2pcNLeP24ZXxuSBFV4KKKBAOwjYwGqHKhiDAgr8jMCK1Tk4NsGLs8X7SN7A9g2MvRRQQAEFFFBAAQWmT+CehP9DcukXVnE/EdUeWF4KKKBA2wjYwGqbUhiIAgo8VeD8C7Oxro/nlnXemyUrPKHQ9aGAAgoooIACCkybwI/K5M+KBldceTaPgc2raZN2YAUU2G0BG1i7TecbFVBgugWGhrK4+UD2b9X5rYB3AUume07HV0ABBRRQQAEFekUgoCyT7xL8x8EBvjq8Mrb0Su7mqYACnSdgA6vzambECvSYQMYbL2VBreTtJB9IWNpjAKargAIKKKCAAgpMh0AT+Mdajd9uNPiBm7VPB7FjKqDAVArYwJpKTcdSQIFpEzj1Q9lfW8DrI/hbkmXTNpEDK6CAAgoooIACXS6QMAF8tmjwvhfdxsNDQ1F2ecqmp4ACXSBgA6sLimgKCvSMQGa8+RM8twmXA0f2TN4mqoACCiiggAIKTJ1ASfInm0v+aM15MTp1wzqSAgooML0CNrCm19fRFVBgGgTedEkuaNb5SCRvBPqmYQqHVEABBRRQQAEFuk0gA7YC/+qKc/iMpwx2W3nNR4HuF7CB1f01NkMFulKgOqXwoUH+E/AeYGFXJmlSCiiggAIKKKDA1AiMA3cGnHvFqrhxaoZ0FAUUUGBmBWxgzay3symgwBQKLL8+6/Me5G1Z8p+BA4HaFA7vUAoooIACCiigQMcLZLIxgi8D77/yHO71zquOL6kJKNCzAjawerb0Jq5AdwhUTawFD/DKVskfE7wQ2Ks7MjMLBRRQQAEFFFBgjwUezOSyiYL/+cVzeBgi93hEB1BAAQVmScAG1izBO60CCkydwIrVWWuOclQTfhd4A7Bk6kZ3JAUUUEABBRRQoOMEWsDtkfxN/wSXDb8rNnRcBgasgAIK/JyADSyXhAIKdIdAZpx2GQcWLd4V8HbgkO5IzCwUUEABBRRQQIFdEtia8K1o8aGxGtdduyqqjdu9FFBAgY4XsIHV8SU0AQUUeKrAio/kktE6b65O2Al4QUJDIQUUUEABBRRQoEcEHiG5KuH/PDTKjTddEBM9krdpKqBADwjYwOqBIpuiAr0mcPqFOacc5MQCzo/g5Ezm95qB+SqggAIKKKBATwlUe1vdE3AJwaevuIu7GYqypwRMVgEFul7ABlbXl9gEFehNgWpfrPFxjm61OCfgHIL9elPCrBVQQAEFFFCgywXGCb6d8FdR44tXnh3ruzxf01NAgR4VsIHVo4U3bQV6QyDjjItZmg1+DXgf8Byg6I3czVIBBRRQQAEFekCg2t/q80Xwt+OL+dY1p8VYD+Rsigoo0KMCNrB6tPCmrUAvCaxYnXNHxjkhkt+N5CT3xeql6purAgoooIAC3SkQsIXgzxnj0hc9wN1DPjLYnYU2KwUU+GcBG1guBgUU6AmB5UNZn3cYh5G8J+HdQK0nEjdJBRRQQAEFFOhGgQeL5LcLuP7yc+OxbkzQnBRQQIGfF7CB5ZpQQIEeEsh488dY1AzeBPwVMNBDyZuqAgoooIACCnSHwHWRvL9/kB8Nr4zx7kjJLBRQQIFnFrCB9cxGvkIBBbpMYMXq7GuNccxE8rfAi7ssPdNRQAEFFFBAgS4UCCiz5L/VCz50+Tk8SkR18qCXAgoo0DMCNrB6ptQmqoACPyOQGSsuYZ+xOn+Q8G/UUUABBRRQQAEF2lUgggey5LeaG7numve6UXu71sm4FFBgegVsYE2vr6MroECbC6xYnYOjo/z6k48T/gnJEsJTCtu8ZIangAIKKKBAzwgETCRc3Sz4wAl38iM3au+Z0puoAgr8EgEbWC4LBRToeYEVq7M2PsrxZfAHJK8G5vQ8igAKKKCAAgooMJsCrUw2UPDXjeR/X74qHpnNYJxbAQUUaAcBG1jtUAVjUECBNhDIeMulHDje4j0R/AbJPp5U2AZlMQQFFFBAAQV6T2AbwXcz+B9bJvjCmvNitPcIzFgBBRT4RQEbWK4KBRRQ4CkCZ3w+9+YJVmTwbuAYYFAgBRRQQAEFFFBgugUmN2mHDQFXFzU+9MI7uNlHBqdb3fEVUKCTBGxgdVK1jFUBBWZEYPKRwjFenskFCacAiwG/Xs6IvpMooIACCijQkwJjwG0En4lxPnrFb8banlQwaQUUUOBXCPgDmctDAQUUeBqBMz+Vzy4nWAWsePIbyqNI+sRSQAEFFFBAAQWmWGATcB3JRwcGuXZ4ZYxP8fgOp4ACCnSFgA2sriijSSigwHQJnHp19tcf5XUUnEPya27wPl3SjquAAgoooEDPCWTCHQHD9eTjl58bt/ecgAkroIACuyBgA2sXsHypAgr0qkDGGZ/gCErOyuDtwOG9KmHeCiiggAIKKDAlAhnBlSSfHIWrr10VW6dkVAdRQAEFuljABlYXF9fUFFBgagVe//Hca7Dg9WU5+Vjhme6LNbW+jqaAAgoooEBPCARrSS6pw6cvP4fvE5E9kbdJKqCAAnsoYANrDwF9uwIK9JhAZpz+MY4GVhKcT7BfjwmYrgIKKKCAAgrspkDAl4CLtw1wzZdWxsbdHMa3KaCAAj0pYAOrJ8tu0goosKcCb7w0F0aTk6Pg3SQn7+l4vl8BBRRQQAEFulgg2QB8JAs+tWwb37vogpjo4mxNTQEFFJgWARtY08LqoAoo0AsCK1Zn39gIz82CXyd5F7BvL+RtjgoooIACCiiw8wIR/APJ39Tg719wN+uHhqLc+Xf7SgUUUECBnwjYwHItKKCAAnsgMDSUxT8dwIK+BidGwfsyedUeDOdbFVBAAQUUUKB7BJ4APloUfGR8Ebdfc1qMdU9qZqKAAgrMvIANrJk3d0YFFOhCgfMvzMbDczgok98MeGd6N1YXVtmUFFBAAQUU2GmBG6PGf9vW4Muv/AGbvetqp918oQIKKPC0AjawXBwKKKDAlAlknHo1fbX1nBzJfyY4bsqGdiAFFFBAAQUU6ASBTQmX9tX478+/g/ttXHVCyYxRAQU6RcAGVqdUyjgVUKCjBE67JPerFXwg4e0RLAT8ettRFTRYBRRQQAEFdkmgBdxewn/aejdXrBmK5i692xcroIACCjyjgD9QPSORL1BAAQV2T2Aos7jpUk6L5I8SjiQZ3L2RfJcCCiiggAIKtKlAAuuBK6LB719xVqxt0zgNSwEFFOh4ARtYHV9CE1BAgXYXeMsncmkT3p/JW4FnA0W7x2x8CiiggAIKKPCMApsjuKuV/NGcAT4/vDKqu7C8FFBAAQWmScAG1jTBOqwCCijwVIHMjDM/znKC/y/hGGCJQgoooIACCijQkQJNknsyuDxG+LMrL4jqDiwvBRRQQIFpFrCBNc3ADq+AAgo8VWDF6pw7Osa7Sd4GHAXMUUgBBRRQQAEFOkbgQeCGMvnQVatYQ0T1CKGXAgoooMAMCNjAmgFkp1BAAQV+rolVGx3nRVHyrhJODjjUTd5dIwoooIACCrSxQLAlku9m8ultcNmXz2UD2Lxq44oZmgIKdKGADawuLKopKaBAJwhknPJhFjb6+bVIfh04AVjcCZEbowIKKKCAAr0iEFCWcGfA/6sllzYGuWV4ZYz3Sv7mqYACCrSTgA2sdqqGsSigQM8JHHdhNpb1c0QEb8mY3OT9eUC95yBMWAEFFFBAgfYTqPa2+irB31HjuivP5jHvumq/IhmRAgr0joANrN6ptZkqoEAbC7zpklzQrPHyAt6UwRtJlrVxuIamgAIKKKBANwtUd1hVjwuurrW46oEJ7rjpgpjo5oTNTQEFFOgEARtYnVAlY1RAgZ4QGBrK4sZDOKBWsDyTlQmvBub2RPImqYACCiigwOwLZAQPZsmnCb4wMsItX7ogNs5+WEaggAIKKFAJ2MByHSiggAJtJrD8khzYOzgsa5wScD4lzyEo2ixMw1FAAQUUUKCbBEYSvlCDT0y0uOHqd7DOEwa7qbzmooAC3SBgA6sbqmgOCijQlQKvvTDnD8zlyGhxFnABMNiViZqUAgoooIACsyjw5B6U3ytK/jKD6zc/m/vXnBTNWQzHqRVQQAEFnkbABpZLQwEFFGhngcx488dZNJG8MGr8B5LXtXO4xqaAAgoooEAHCYxk8qclXLbXIPcPr4yRDordUBVQQIGeE7CB1XMlN2EFFOhEgRWrszbaZGExMbnJ+x8kHNCJeRizAgoooIACbSGQrA74k9Hg9mtXxda2iMkgFFBAAQV+pYANLBeIAgoo0EECy6/P+tz7eFYUvAf4tyR7dVD4hqqAAgoooMBsC3y7LPnDOXP4++EVbHWfq9kuh/MroIACOy9gA2vnrXylAgoo0DYCQ5nFTR/jKILfp+AtJDUP5mib8hiIAgoooEB7CSTwQAkfHE0++uVz47H2Cs9oFFBAAQV2RsAG1s4o+RoFFFCgTQVW/EUOji7mZIL3A8fv2OjdEwvbtF6GpYACCigwcwIBEwkbSP5v1vnLL5zNnd5xNXP+zqSAAgpMtYANrKkWdTwFFFBgFgROXZ1LihHeVgSrgOfC5KOFfo2fhVo4pQIKKKDArAs0CR4j+Vomf7nlHr6xZsiTBWe9KgaggAIK7KGAP9zsIaBvV0ABBdpHIOOMizmCBu8sg1MDDicZbJ/4jEQBBRRQQIFpFSiB6vHAW7Lg4sE+rhpeGVumdUYHV0ABBRSYMQEbWDNG7UQKKKDAzAhUJxZuGeeltRa/GcEJAc9JaMzM7M6igAIKKKDALAgkGwi+B3w+GnzmirNi7SxE4ZQKKKCAAtMoYANrGnEdWgEFFJhNgVOvzv7GY5yUydkkLyYmHy30UkABBRRQoJsENhPcHCVfqvXzmct/nTvc56qbymsuCiigwE8FbGC5GhRQQIEuFzj9wpwTg7wBeEuZvDSCw7o8ZdNTQAEFFOh+gRGCb5fJmphg+Mp38t2IqE4b9FJAAQUU6FIBG1hdWljTUkABBX5e4M0fy8WtgjeQnAq8IuFglRRQQAEFFOgwgfGqcZXJ9UXBVQ9u5Vs3XRATHZaD4SqggAIK7IaADazdQPMtCiigQKcKDA1lcfOR7F9OsDzhtIDlwH6dmo9xK6CAAgr0jEALuBW4phZ8cVtyw7WrYmvPZG+iCiiggAIese4aUEABBXpR4LgLs7H/HA4ieFWWnJ7JqyJY1IsW5qyAAgoo0L4CAWUGdwRc8eTdw9e1Cm686myecJ+r9q2ZkSmggALTJeAdWNMl67gKKKBABwisWJ2Do00OoslLgTPZfkfWgg4I3RAVUEABBbpbIEl+HAXDUXJtEXz3BXezfmgoyu5O2+wUUEABBZ5OwAaWa0MBBRRQgKqRNTbG/gkvJjkLeA2wlzQKKKCAAgrMqEBQbcT+CMllwOfr8EMbVzNaASdTQAEF2lbABlbblsbAFFBAgZkXWH5JDswt2DeKyTuyfjOSkxIaMx+JMyqggAIK9KDApgg+HMnqss5dx53FhqHwjqseXAemrIACCvxSARtYLgwFFFBAgV8QWLE6+5qjLBgPXlpLfjvhJJkUUEABBRSYJoHRJw8U+dsSLh4b4f5XPsRmHxWcJmmHVUABBTpYwAZWBxfP0BVQQIHpFlixOmsbRxloBMtr8IFMXj7dczq+AgoooEDPCFSnCF7UqPHBDeOsW/MOxtycvWdqb6IKKKDALgvYwNplMt+ggAIK9KZAdXLhs+fwihb8LskbwJNse3MlmLUCCiiwxwKPUT0qWOdDV7yNh2xa7bGnAyiggAI9IWADqyfKbJIKKKDA1Amc+qHsb8zjhKzx3oDXksxxn6yp83UkBRRQoAsFyoTxAu4rg8v6gos/+3YetHHVhZU2JQUUUGAaBWxgTSOuQyuggALdLFDtkzU+xvGt5IKA5cASYMA7s7q56uamgAIK7JJAC9hMcEeWDNdafPrz7+QBiOqkQS8FFFBAAQV2ScAG1i5x+WIFFFBAgZ8XWD6U9bmH8CKCdwScSHIQwVwbWa4VBRRQoEcFgmYmj0ZwWwZ/Rx+f+8LKeLBHNUxbAQUUUGCKBGxgTRGkwyiggAI9LzCUxamH8II6nE3wCoJDSfa1kdXzK0MABRToHYFmwo8JfhTJ30Wda644O9b1TvpmqoACCigwnQI2sKZT17EVUECBHhQYGsripiM4IluctmOPrOcCB9vI6sHFYMoKKNArAiOZ3BYFtwKf29zky2vOiyd6JXnzVEABBRSYGQEbWDPj7CwKKKBATwq85RO5dLzF66LgtcDzgSN37JPVkx4mrYACCnSVQLAeuDWDm6Lk6oEBvja8Msa7KkeTUUABBRRoGwEbWG1TCgNRQAEFuldgxeqcPzLKK4BXB5ywo5m1sHszNjMFFFCgawWqDdjvA24K+HpRsmbfMb570QUx0bUZm5gCCiigQFsI2MBqizIYhAIKKNAbAq//eO7VlzyfgpdFciLwMuBZvZG9WSqggAIdLJCMUW3KDv9YBP9YNvnWsnHutXHVwTU1dAUUUKDDBGxgdVjBDFcBBRToBoHll+TA/AaHJrwok5cFLM/kcKCvG/IzBwUUUKCLBDaR3BDBGoJvNpt87yXv4JGhiLKLcjQVBRRQQIEOELCB1QFFMkQFFFCgWwWWD2V93pHsmxM8h5IXZ8EpweSjhoPdmrN5KaCAAh0gkAEPZ3JVwFeKOrc2GtwzvJJNENUjhF4KKKCAAgrMuIANrBknd0IFFFBAgV8UyDj1Q+xdLGD/Ijia5FTgTcBitRRQQAEFZlAguSmDz5UlXx2oc3etj0fcmH0G/Z1KAQUUUOBpBWxguTgUUEABBdpK4PwLs7F+DvuMtVgWdV4XydtIXtBWQRqMAgoo0EUCCaMBV1Gyuh7ckiWPfO4dbCS826qLymwqCiigQMcL2MDq+BKagAIKKNCtAhkrVrPXCCwqRjmhDM6K5BRgTrdmbF4KKKDATApkcldRY3WZ/F0jeaA+wBPebTWTFXAuBRRQQIFdEbCBtStavlYBBRRQYFYEll+f9Xl3M9hqcEAt+ZcZnAUcNSvBOKkCCijQ2QIjBGsiuYQJ/rF/I48P/w6j3m3V2UU1egUUUKAXBGxg9UKVzVEBBRToJoHMWDHMXqPjnEjJBcBrgL27KUVzUUABBaZUIEiSexMuTbhszgC3D6+kdEP2KVV2MAUUUECBaRawgTXNwA6vgAIKKDB9ApkZb72MQyZanBnBqkwOCxhIaEzfrI6sgAIKtLdAQJkwHrCJ4KutFh8txrj+ygtiW3tHbnQKKKCAAgo8vYANLFeHAgoooEBXCBx3YTaWDfJykrMIXk8yn2Au0NcVCZqEAgoo8KsFEqgaVFsC7gr4TAlXXrkq7hFOAQUUUECBbhCwgdUNVTQHBRRQQIGfETj5r3LxnPm8npIzCV4ILAYWAHWpFFBAgS4T2JrweMC6gC+XyeeOX8U3hyLKLsvTdBRQQAEFelzABlaPLwDTV0ABBbpZYGgoi+8cwuGtglMpeU0GhwL7ESwgbWZ1c+3NTYEuFxgFHgEeJrgxS77UqvHla34jNnV53qangAIKKNDDAjawerj4pq6AAgr0ksDpF+ac1iDHFslJEbwYOBw4EJgHFL1kYa4KKNCRAuOTDSu4L+CHEXxtouArezV4YHhltDoyI4NWQAEFFFBgFwRsYO0Cli9VQAEFFOgGgYw3f4xFEzVeGCWvSDgm4LAdDa3qNEP/beyGMpuDAt0h0Ap4KOFO4Pay5FtlyT+xhbuueW+MdUeKZqGAAgoooMDOCfhN+s45+SoFFFBAgW4UyIxTLmK//jkcEyXHZXBMwlEkzyWY040pm5MCCnSEwP0BtwG3lfCdIrmxf5A7hlfGlo6I3iAVUEABBRSYBgEbWNOA6pAKKKCAAh0okBmnfpj9GwMcFS2OKYOjCZ6XwdFRnWjopYACCkynQHI/wfcSbi2S75UFP2gFd7qv1XSiO7YCCiigQCcJ2MDqpGoZqwIKKKDADAlknHExS8s6h0ZwZNXIIif3zXoesHCGgnAaBRToZoGgmTm5n9UtATeXyY8ouGM8ufPaVbG1m1M3NwUUUEABBXZHwAbW7qj5HgUUUECBnhFYsTprzVEWNwsOipKDSZ6XBS+JnHzkcAnpnlk9sxhMVIE9F6g2Yr8buCHhxiL4YTa5f6zG/deewzYics+ncAQFFFBAAQW6U8AGVnfW1awUUEABBaZBoGpmbZtgHi32qyf7l8GxJCcQvBQ4AKhNw7QOqYACnS1QNa2+k8nXi4IbssldNXi4tQ+PXHl6bOvs1IxeAQUUUECBmROwgTVz1s6kgAIKKNBFApkZZ36EuREsaDVYVCRHZHIiwauAF3RRqqaigAK7LrClalglfKVo8Q2CtfUaG0afYKOnB+46pu9QQAEFFFCgErCB5TpQQAEFFFBgCgRWrM6+TZuY22gwt9bigLLBiSSvBE4AlkzBFA6hgALtKhBkJHeUyVcpWBNNbmrU2dgcZ8uL7mfr0FCU7Rq6cSmggAIKKNApAjawOqVSxqmAAgoo0DECQ0NZ3HsQfesa9NVaLCiC48uS1xUFrwEOTyg6JhkDVUCBpxN4IuDGTK6n5O/rNe6ub2bbwjpjF10QE7IpoIACCiigwNQK2MCaWk9HU0ABBRRQ4BcFMmPF8GTTqjYyMbkZ/GsCTslkuacaumAU6BCBoElyb8AXWyXX9hV84/G72bAcyqEhEtyAvUMqaZgKKKCAAh0qYAOrQwtn2AoooIACnS+wYnUObhvj+EheDZNNreOBRkAtt28I751anV9mM+gkgSBJqsf9WpMfwePVHVaZXFcmX7vmXO72pMBOKqixKqCAAgp0k4ANrG6qprkooIACCnS0wCsuzr0XNHh5kbyKgpdnciRJfwT9MPlR7+gEDV6BNhMIKBOqx/3Gdnw8RvLtDL5eJF+/YhW32LBqs6IZjgIKKKBAzwrYwOrZ0pu4AgoooEA7C1T7aH3/QBaPNTiuTI4PeEm1fxYwN2BOwl47mlr+W97OhTS29hKo7q4q2AZsJdmasD6C71NyY9a5MbZw65UXRPX3XgoooIACCijQZgJ+09tmBTEcBRRQQAEFfplA1dD61kHsW69zLCXHZnBswGGZLIpgfsI8YG9PGHb9KPAzAuPAph0fGwkeJflBFNxSJrds2cRda/5NbNFMAQUUUEABBdpfwAZW+9fICBVQQAEFFPilAm/8m1xYzOPwbHJMERyVcAQFC0kWJywKWAAMyqdAjwhU+1ZtJthA8kQmj0dwf8APM7mtDj9c8jzuueh4TwjskfVgmgoooIACXSZgA6vLCmo6CiiggAK9K7Bidda2beGgWoMjsuQ5BIeSLKNgMSVLgH0IFu949LB3ocy84wV27F1VPer3KLCeYD3JugzuLUruioK7c5S7rvhXsa7jkzUBBRRQQAEFFJgUsIHlQlBAAQUUUKBbBYayeO1S9h7s5wDqHJglBwUcFMHShH3JyabWvsCzbGp16yLomrw2BTyc8AiwrvqzSB4qkx9HwY/LJvdvDdauOS9GuyZjE1FAAQUUUECBnxGwgeWCUEABBRRQoIcEqru0RpssbI2xtGiwb9FiaQv2rxUszZKlxD83tKqm1kJ/2dVDi6MNUq1OBAx4DHio+phsWiUPZ7AuggcLJptWD43BI9euiq1tELIhKKCAAgoooMAMCdjAmiFop1FAAQUUUKCdBd50SS5owpJajUUZk48a7lPdmZUl+ycsjeBZ5OSdWvuz/QREv4do54K2f2zVflWPJzxUwNpM1lYNqx2NqkeLkkdbBY9Ssn5wkEeHV0a1GbuXAgoooIACCvSwgN989nDxTV0BBRRQQIFfJbBidfY1R1lAsqBZY37RYn4GCzPZj2BZwLIdjyBONrkm99dKG1uuqp8KBEzseOSvalCtJVhLsjaSh7JgQ8IT9SZPjPfx+PgWnli4kC3DK6NqbnkpoIACCiiggAI/I2ADywWhgAIKKKCAArsksPySHNi7n7m1MeZmgzmU7N0qmRt9LMgm+0eyrNpnC1iW25tcS0nmExS7NJEv7gyBZAx4JIK11R1VVZMqqwZVsrao9qwKNmewuVGypdXHlokWW+b2sdVGVWeU1ygVUEABBRRoFwEbWO1SCeNQQAEFFFCgwwWq/bU2jjLQX2ewUTLQTAYiGCxhoGpyJexXwNLqDq4MDiiSZWWwX5E8K4P5HZ5+14YfwXjm5Gl/1Qbq1b5Uk4/6ZckjkTyQfawrJtjaCkYLGG21GOmD0bFnMXLNaYxDZNfimJgCCiiggAIKzJiADawZo3YiBRRQQAEFeldgaCiLby6iMXc/GtsmaNSCvhilrwmNWoMGJXPKYGlUd2vBfhEsKZN9Cib34/rJ/lv7JDR6V3GKMw8yYJRk/eRjfsGjBOtosY6Y3Dz9oQgervahihpj9YKJZsHExAgT/cHEthoTB4/ur1pgAAABo0lEQVQwftH5NAmbVFNcHYdTQAEFFFBAgZ8TsIHlklBAAQUUUECB2RfIjOV/SG1wEbV6P7WBhRRbximKoNbXpCCo1ZPGeMmiVp3FRbJkcqP5kn12bDq/KKpTE5OFuf30xEXV3l0E/bOf3IxF0IpgCzm5OfrjsX2T9McJHqfksclGVcH6suTResH66GP9+Ahb+2uUJK0saY01KFslrWUtWn3jtJadT2soopyxDJxIAQUUUEABBRR4GgEbWC4NBRRQQAEFFOgggQyefCBt6A+J7x+9fcP4R5cQm28njquOtVtIbHmY4HAYWUfsNcJgY5D5ZcG8qqEVBfOz2o+rYO9ssVcEexHsXZ2smNVHMhjBQMBA8tM/d/z3qpHWT1In6as+/8k3Urn9VMb6jo9/9qw2Mc+kaixNPkaXMLb9M0YJWtX/DhhPaAaMEIxQTv7dCMloBFsTtgSTf1Yfm7NgS61kc1mysd7giVawqdFiY3OcLRNLGedOmLvf9lkWPk7efgTJV2DJ0eTzVpBDf/hkIH9QbbfvXVMdtPANVQEFFFBAgZ4X+P8BOiAbq9+Q0aAAAAAASUVORK5CYII=;" parent="1" vertex="1">
                    <mxGeometry x="1020" y="420" width="73" height="73" as="geometry"/>
                </mxCell>
                <mxCell id="14" value="" style="endArrow=classic;html=1;rounded=0;strokeColor=#3B82F6;strokeWidth=2;entryX=0;entryY=0.5;entryDx=0;entryDy=0;exitX=1;exitY=0.5;exitDx=0;exitDy=0;" parent="1" source="walrus" target="13" edge="1">
                    <mxGeometry width="50" height="50" relative="1" as="geometry">
                        <mxPoint x="430" y="287" as="sourcePoint"/>
                        <mxPoint x="870" y="407" as="targetPoint"/>
                    </mxGeometry>
                </mxCell>
                <mxCell id="15" value="" style="endArrow=classic;html=1;rounded=0;strokeColor=#F59E0B;strokeWidth=2;" parent="1" target="12" edge="1">
                    <mxGeometry width="50" height="50" relative="1" as="geometry">
                        <mxPoint x="960" y="280" as="sourcePoint"/>
                        <mxPoint x="870" y="287" as="targetPoint"/>
                    </mxGeometry>
                </mxCell>
                <mxCell id="16" value="" style="sketch=0;points=[[0,0,0],[0.25,0,0],[0.5,0,0],[0.75,0,0],[1,0,0],[0,1,0],[0.25,1,0],[0.5,1,0],[0.75,1,0],[1,1,0],[0,0.25,0],[0,0.5,0],[0,0.75,0],[1,0.25,0],[1,0.5,0],[1,0.75,0]];outlineConnect=0;fontColor=#232F3E;fillColor=#C925D1;strokeColor=#ffffff;dashed=0;verticalLabelPosition=bottom;verticalAlign=top;align=center;html=1;fontSize=12;fontStyle=0;aspect=fixed;shape=mxgraph.aws4.resourceIcon;resIcon=mxgraph.aws4.cloud_development_kit;" parent="1" vertex="1">
                    <mxGeometry x="130" y="416" width="58" height="58" as="geometry"/>
                </mxCell>
                <mxCell id="17" value="" style="endArrow=classic;html=1;rounded=0;strokeColor=#232F3E;strokeWidth=2;exitX=1;exitY=0.5;exitDx=0;exitDy=0;exitPerimeter=0;" parent="1" source="16" edge="1">
                    <mxGeometry width="50" height="50" relative="1" as="geometry">
                        <mxPoint x="268" y="354" as="sourcePoint"/>
                        <mxPoint x="278" y="445" as="targetPoint"/>
                    </mxGeometry>
                </mxCell>
                <mxCell id="18" value="&lt;font style=&quot;font-size: 14px;&quot;&gt;CDK&lt;/font&gt;" style="text;html=1;strokeColor=none;fillColor=none;align=center;verticalAlign=middle;whiteSpace=wrap;rounded=0;fontColor=#232F3E;fontSize=11;fontStyle=1;" parent="1" vertex="1">
                    <mxGeometry x="138.5" y="474" width="41" height="30" as="geometry"/>
                </mxCell>
                <mxCell id="19" value="展開" style="text;html=1;strokeColor=none;fillColor=none;align=center;verticalAlign=middle;whiteSpace=wrap;rounded=0;fontColor=#232F3E;fontSize=11;fontStyle=1;" parent="1" vertex="1">
                    <mxGeometry x="210" y="410" width="40" height="30" as="geometry"/>
                </mxCell>
                <mxCell id="20" value="Base Sepolia&lt;div&gt;パブリックブロックチェーン&lt;/div&gt;" style="text;html=1;strokeColor=none;fillColor=none;align=center;verticalAlign=middle;whiteSpace=wrap;rounded=0;fontColor=#232F3E;fontSize=11;fontStyle=1;" vertex="1" parent="1">
                    <mxGeometry x="984.75" y="333" width="148.5" height="41" as="geometry"/>
                </mxCell>
                <mxCell id="21" value="Sui&lt;br&gt;&lt;div&gt;パブリックブロックチェーン&lt;/div&gt;" style="text;html=1;strokeColor=none;fillColor=none;align=center;verticalAlign=middle;whiteSpace=wrap;rounded=0;fontColor=#232F3E;fontSize=11;fontStyle=1;" vertex="1" parent="1">
                    <mxGeometry x="982.25" y="504" width="148.5" height="35.5" as="geometry"/>
                </mxCell>
            </root>
        </mxGraphModel>
    </diagram>
</mxfile>